/* XPM */
static char * 0_xpm[] = {
"50 50 118 2",
"  	c #40CA00",
". 	c #3BBD00",
"+ 	c #3EC400",
"@ 	c #3FC800",
"# 	c #3FC700",
"$ 	c #3FC900",
"% 	c #32A400",
"& 	c #39B700",
"* 	c #3ABB00",
"= 	c #3BBF00",
"- 	c #3CC100",
"; 	c #3DC300",
"> 	c #3DC200",
", 	c #3DC100",
"' 	c #3CC000",
") 	c #3BBC00",
"! 	c #38B400",
"~ 	c #36AF00",
"{ 	c #34A900",
"] 	c #33A600",
"^ 	c #31A100",
"/ 	c #2F9C00",
"( 	c #41CB00",
"_ 	c #40CB00",
": 	c #000000",
"< 	c #41CE00",
"[ 	c #3EC600",
"} 	c #3EC500",
"| 	c #36B000",
"1 	c #104100",
"2 	c #288800",
"3 	c #39B600",
"4 	c #309E00",
"5 	c #1D6600",
"6 	c #40CC00",
"7 	c #278700",
"8 	c #35AC00",
"9 	c #0F4300",
"0 	c #42D000",
"a 	c #125000",
"b 	c #40C900",
"c 	c #41CF00",
"d 	c #2A8F00",
"e 	c #2F9900",
"f 	c #175A00",
"g 	c #042B00",
"h 	c #0E4300",
"i 	c #247D00",
"j 	c #39B800",
"k 	c #3AB900",
"l 	c #0B3500",
"m 	c #3EC700",
"n 	c #145200",
"o 	c #1F6E00",
"p 	c #092E00",
"q 	c #42D200",
"r 	c #34A600",
"s 	c #298D00",
"t 	c #114700",
"u 	c #43D300",
"v 	c #0C3B00",
"w 	c #022200",
"x 	c #2B9200",
"y 	c #2B9300",
"z 	c #44D500",
"A 	c #258300",
"B 	c #2E9A00",
"C 	c #114500",
"D 	c #45D900",
"E 	c #34A800",
"F 	c #207000",
"G 	c #39B900",
"H 	c #114900",
"I 	c #48E200",
"J 	c #309F00",
"K 	c #217400",
"L 	c #052700",
"M 	c #3CBF00",
"N 	c #2A8C00",
"O 	c #2A8D00",
"P 	c #175900",
"Q 	c #227900",
"R 	c #32A000",
"S 	c #45DA00",
"T 	c #1E6800",
"U 	c #34AA00",
"V 	c #1C6A00",
"W 	c #44D600",
"X 	c #1F7200",
"Y 	c #196100",
"Z 	c #35AD00",
"` 	c #32A100",
" .	c #37B300",
"..	c #31A200",
"+.	c #217300",
"@.	c #1A6200",
"#.	c #175B00",
"$.	c #2A8E00",
"%.	c #073200",
"&.	c #104B00",
"*.	c #2B9100",
"=.	c #35AE00",
"-.	c #2C9000",
";.	c #2D9800",
">.	c #0E4500",
",.	c #247B00",
"'.	c #000D00",
").	c #298800",
"!.	c #298A00",
"~.	c #36B100",
"{.	c #2F9D00",
"].	c #1D6700",
"^.	c #32A300",
"/.	c #35AB00",
"(.	c #38B600",
"_.	c #36AE00",
":.	c #3BBE00",
"<.	c #41CC00",
"    . + @ @ @ @ @ @ @ @ @ @ @ @ @ @ @ @ @ @ @ @ @ @ @ @ @ @ @ @ @ @ @ @ @ @ @ @ @ @ @ @ @ @ @ @ @ # ",
"@ @ @ + @ @ @ @ @ @ @ @ @ @ @ @ @ @ @ @ @ @ @ @ @ @ @ @ @ @ @ @ @ @ @ @ @ @ @ @ @ @ @ @ @ @ # # @ @ ",
"@ @ $ % & * = - + + ; > , ' ) & ! ~ { { { { ] ^ / / / / / / / / / / / / / / / / / / / / / / ^ , @ @ ",
"( $ _ : : : : : : : : : : : : : : : : : : : : : : : : : : : : : : : : : : : : : : : : : : : : > @ @ ",
"< $ @ : : : : : : : : : : : : : : : : : : : : : : : : : : : : : : : : : : : : : : : : : : : : [ @ @ ",
"< $ @ : : : : : : : : : : : : : : : : : : : : : : : : : : : : : : : : : : : : : : : : : : : : } @ @ ",
"< $ } : : : : : : : : : : : : : : : : : : : : : : : : : : : : : : : : : : : : : : : : : : : : ' @ # ",
"< $ > : : : : : : : : : : : : : : : : : : : : : : : : : : : : : : : : : : : : : : : : : : : : | } } ",
"< $ . : : : : : : : : : : : : : : : : : : : : : : : : : : : : : : : : : : : : : : : : : : : : / > > ",
"< $ . : : : : : : : : : : : : : : : : : : : : : : : : : : : : : : : : : : : : : : : : : : : : / > > ",
"< $ * : : : : : : : : : : : : : : : : : 1 2 ~ ) } - 3 4 5 : : : : : : : : : : : : : : : : : : / > > ",
"6 6 # : : : : : : : : : : : : : : : : 7 } @ @ @ @ @ @ @ @ 8 9 : : : : : : : : : : : : : : : : / > > ",
"0 @   : : : : : : : : : : : : : : : ^ @ @ @ @ @ @ @ @ @ @ @ ' a : : : : : : : : : : : : : : : { } } ",
"b < c : : : : : : : : : : : : : : d @ @ @ [ e f g h i j @ @ @ k l : : : : : : : : : : : : : : { m m ",
"@ 0 @ : : : : : : : : : : : : : n m @ @ } o : : : : : p ~ @ @ @ e : : : : : : : : : : : : : : { } } ",
"$ q @ : : : : : : : : : : : : : r @ @ @ s : : : : : : : 1 > @ @ } t : : : : : : : : : : : : : / > > ",
"$ u @ : : : : : : : : : : : : v # @ @ - w : : : : : : : : x @ @ @ y : : : : : : : : : : : : : / > > ",
"$ z @ : : : : : : : : : : : : A @ @ @ B : : : : : : : : : C @ @ @ & : : : : : : : : : : : : : / > > ",
"  D @ : : : : : : : : : : : : E @ @ @ F : : : : : : : : : : G @ @ @ H : : : : : : : : : : : : / > > ",
"_ I @ : : : : : : : : : : : : ) @ @ @ l : : : : : : : : : : J @ @ @ K : : : : : : : : : : : : / > > ",
"< I @ : : : : : : : : : : : L # @ @ M : : : : : : : : : : : N @ @ @ O : : : : : : : : : : : : / > > ",
"_ I @ : : : : : : : : : : : P @ @ @ ! : : : : : : : : : : : Q @ @ @ R : : : : : : : : : : : : / > > ",
"_ S @ : : : : : : : : : : : T @ @ @ U : : : : : : : : : : : V @ @ @ E : : : : : : : : : : : : / > > ",
"$ W @ : : : : : : : : : : : X @ @ @ r : : : : : : : : : : : Y @ @ @ Z : : : : : : : : : : : : / > > ",
"$ q @ : : : : : : : : : : : Q @ @ @ ` : : : : : : : : : : : P @ @ @  .: : : : : : : : : : : : / > > ",
"@ 0 @ : : : : : : : : : : : Q @ @ @ ..: : : : : : : : : : : f @ @ @  .: : : : : : : : : : : : / > > ",
"@ c @ : : : : : : : : : : : +.@ @ @ r : : : : : : : : : : : @.@ @ @ Z : : : : : : : : : : : : / > > ",
"@ c @ : : : : : : : : : : : T @ @ @ U : : : : : : : : : : : V @ @ @ E : : : : : : : : : : : : / > > ",
"@ c @ : : : : : : : : : : : #.@ @ @  .: : : : : : : : : : : Q @ @ @ R : : : : : : : : : : : : / > > ",
"@ c @ : : : : : : : : : : : L # @ @ M : : : : : : : : : : : N @ @ @ $.: : : : : : : : : : : : / > > ",
"$ < @ : : : : : : : : : : : : ) @ @ @ %.: : : : : : : : : : J @ @ @ K : : : : : : : : : : : : / > > ",
"$ < @ : : : : : : : : : : : : { @ @ @ F : : : : : : : : : : G @ @ @ &.: : : : : : : : : : : : / > > ",
"$ < @ : : : : : : : : : : : : A @ @ @ e : : : : : : : : : C @ @ @ & : : : : : : : : : : : : : / > > ",
"b < q : : : : : : : : : : : : v # @ @ - w : : : : : : : : *.@ @ @ y : : : : : : : : : : : : : / > > ",
"6 6 0 : : : : : : : : : : : : : r @ @ @ s : : : : : : : 1 > @ @ } H : : : : : : : : : : : : : / > > ",
"6 6 c : : : : : : : : : : : : : n m @ @ } o : : : : : p =.@ @ @ e : : : : : : : : : : : : : : / > > ",
"_ _ @ : : : : : : : : : : : : : : -.@ @ @ [ ;.f L >.,.j @ @ @ k l : : : : : : : : : : : : : : / > > ",
"_ _ @ : : : : : : : : : : : : : : : ..@ @ @ @ @ @ @ @ @ @ @ ' a : : : : : : : : : : : : : : : / > > ",
"_ _ @ : : : : : : : : : : : : : : : '.).} @ @ @ @ @ @ @ @ Z >.: : : : : : : : : : : : : : : : *.> > ",
"_ _ @ : : : : : : : : : : : : : : : : : 1 !.~.. m , & {.].: : : : : : : : : : : : : : : : : : ^.; # ",
"_ _ @ : : : : : : : : : : : : : : : : : : : : : : : : : : : : : : : : : : : : : : : : : : : : /.@ @ ",
"_ _ @ : : : : : : : : : : : : : : : : : : : : : : : : : : : : : : : : : : : : : : : : : : : : (.@ @ ",
"_ _ @ : : : : : : : : : : : : : : : : : : : : : : : : : : : : : : : : : : : : : : : : : : : : ! @ @ ",
"< $ @ : : : : : : : : : : : : : : : : : : : : : : : : : : : : : : : : : : : : : : : : : : : : ! @ @ ",
"    @ : : : : : : : : : : : : : : : : : : : : : : : : : : : : : : : : : : : : : : : : : : : : _.@ @ ",
"$ $ @ : : : : : : : : : : : : : : : : : : : : : : : : : : : : : : : : : : : : : : : : : : : : ] # @ ",
"$   @ : : : : : : : : : : : : : : : : : : : : : : : : : : : : : : : : : : : : : : : : : : : : { @ @ ",
"@ @ @ ; > - ' > > > ' ' :.) k k k k k k k k k j (.! ! ! ! ! ! ! &  .8 / / / / / / / { { { / / & @ @ ",
"$ @ @ @ @ @ @ @ @ @ @ @ @ @ @ @ @ @ @ @ @ @ @ @ @ @ @ @ @ @ @ @ @ @ # # # # # # # # # @ # # # # @ @ ",
"<.$ @ # # # # @ @ @ # # # @ @ @ @ @ @ @ @ @ @ @ @ @ @ @ @ @ @ @ @ @ @ @ @ @ @ @ @ @ @ @ @ @ @ @ @ @ "};
