/* XPM */
static char * 0c_xpm[] = {
"35 35 70 1",
" 	c #8F8F8F",
".	c #90908F",
"+	c #C0AA75",
"@	c #E6C250",
"#	c #F6CC30",
"$	c #FDD115",
"%	c #F7CD2E",
"&	c #E8C34D",
"*	c #C4AD73",
"=	c #918F8E",
"-	c #9B958A",
";	c #E9C34B",
">	c #FFD200",
",	c #EDC645",
"'	c #9F9788",
")	c #93918D",
"!	c #EBC648",
"~	c #EFC840",
"{	c #97938C",
"]	c #CBB16D",
"^	c #FFD204",
"/	c #D8B861",
"(	c #A79C85",
"_	c #94928D",
":	c #A39A86",
"<	c #D3B666",
"[	c #FED10B",
"}	c #92918E",
"|	c #F9CF28",
"1	c #CDB26B",
"2	c #C5AE72",
"3	c #FCD01B",
"4	c #99948B",
"5	c #B8A57B",
"6	c #F3CA37",
"7	c #90908E",
"8	c #EDC644",
"9	c #C1AB75",
"0	c #D8B961",
"a	c #D1B568",
"b	c #C8AE70",
"c	c #DFBD59",
"d	c #E8C34C",
"e	c #B5A47D",
"f	c #A89D84",
"g	c #EFC740",
"h	c #F6CC31",
"i	c #A09888",
"j	c #FED207",
"k	c #FBCF1F",
"l	c #F5CC32",
"m	c #9A958B",
"n	c #B9A67A",
"o	c #C1AC74",
"p	c #F9CE27",
"q	c #FCD019",
"r	c #CCB26C",
"s	c #D2B566",
"t	c #D4B665",
"u	c #ECC547",
"v	c #F0C83E",
"w	c #97948C",
"x	c #9C958A",
"y	c #EAC44A",
"z	c #EEC743",
"A	c #A19888",
"B	c #E7C24F",
"C	c #FDD113",
"D	c #F7CD2D",
"E	c #92908E",
"                                   ",
"                                   ",
"                                   ",
"                                   ",
"                                   ",
"                                   ",
"            .+@#$%&*=              ",
"           -;>>>>>>>,'             ",
"          )!>>>>>>>>>~{            ",
"          ]>>^/(_:<[>><            ",
"         }|>>1     2>>34           ",
"         5>>67      8>>9           ",
"         0>>a       b>>c           ",
"         d>>e       f>>g           ",
"         h>>i       )j>3           ",
"         k>>7        |>>}          ",
"         j>$         l>>m          ",
"         j>$         h>>m          ",
"         k>>7        |>>}          ",
"         h>>i       )j>3           ",
"         d>>e       f>>g           ",
"         0>>a       b>>c           ",
"         n>>67      8>>o           ",
"         )p>>1     2>>q4           ",
"          r>>^/(_:s[>>t            ",
"          _u>>>>>>>>>vw            ",
"           xy>>>>>>>zA             ",
"            .9B%CDd2E              ",
"                                   ",
"                                   ",
"                                   ",
"                                   ",
"                                   ",
"                                   ",
"                                   "};
