/* XPM */
static char * 1_xpm[] = {
"50 50 69 1",
" 	c #40CA00",
".	c #3BBD00",
"+	c #3EC400",
"@	c #3FC800",
"#	c #3FC700",
"$	c #3FC900",
"%	c #32A400",
"&	c #39B700",
"*	c #3ABB00",
"=	c #3BBF00",
"-	c #3CC100",
";	c #3DC300",
">	c #3DC200",
",	c #3DC100",
"'	c #3CC000",
")	c #3BBC00",
"!	c #38B400",
"~	c #36AF00",
"{	c #34A900",
"]	c #33A600",
"^	c #31A100",
"/	c #2F9C00",
"(	c #41CB00",
"_	c #40CB00",
":	c #000000",
"<	c #41CE00",
"[	c #3EC600",
"}	c #3EC500",
"|	c #36B000",
"1	c #40CC00",
"2	c #022200",
"3	c #165400",
"4	c #217300",
"5	c #298B00",
"6	c #309E00",
"7	c #36AE00",
"8	c #227700",
"9	c #42D000",
"0	c #32A000",
"a	c #40C900",
"b	c #41CF00",
"c	c #3EC700",
"d	c #309D00",
"e	c #3ABA00",
"f	c #34AA00",
"g	c #2E9A00",
"h	c #278600",
"i	c #1E6F00",
"j	c #124E00",
"k	c #42D200",
"l	c #319E00",
"m	c #43D300",
"n	c #44D500",
"o	c #45D900",
"p	c #48E200",
"q	c #45DA00",
"r	c #44D600",
"s	c #052200",
"t	c #36B200",
"u	c #2B9100",
"v	c #32A300",
"w	c #35AB00",
"x	c #38B600",
"y	c #3BBE00",
"z	c #3AB900",
"A	c #39B800",
"B	c #37B300",
"C	c #35AC00",
"D	c #41CC00",
"  .+@@@@@@@@@@@@@@@@@@@@@@@@@@@@@@@@@@@@@@@@@@@@@#",
"@@@+@@@@@@@@@@@@@@@@@@@@@@@@@@@@@@@@@@@@@@@@@@##@@",
"@@$%&*=-++;>,')&!~{{{{]^//////////////////////^,@@",
"($_::::::::::::::::::::::::::::::::::::::::::::>@@",
"<$@::::::::::::::::::::::::::::::::::::::::::::[@@",
"<$@::::::::::::::::::::::::::::::::::::::::::::}@@",
"<$}::::::::::::::::::::::::::::::::::::::::::::'@#",
"<$>::::::::::::::::::::::::::::::::::::::::::::|}}",
"<$.::::::::::::::::::::::::::::::::::::::::::::/>>",
"<$.::::::::::::::::::::::::::::::::::::::::::::/>>",
"<$*::::::::::::::::::::::::::::::::::::::::::::/>>",
"11#:::::::::::::234567.#@@@8:::::::::::::::::::/>>",
"9@ :::::::::::::0@@@@@@@@@@8:::::::::::::::::::{}}",
"a<b:::::::::::::0@@@@@@@@@@8:::::::::::::::::::{cc",
"@9@:::::::::::::defghij^@@@8:::::::::::::::::::{}}",
"$k@::::::::::::::::::::l@@@8:::::::::::::::::::/>>",
"$m@::::::::::::::::::::l@@@8:::::::::::::::::::/>>",
"$n@::::::::::::::::::::l@@@8:::::::::::::::::::/>>",
" o@::::::::::::::::::::l@@@8:::::::::::::::::::/>>",
"_p@::::::::::::::::::::l@@@8:::::::::::::::::::/>>",
"<p@::::::::::::::::::::l@@@8:::::::::::::::::::/>>",
"_p@::::::::::::::::::::l@@@8:::::::::::::::::::/>>",
"_q@::::::::::::::::::::l@@@8:::::::::::::::::::/>>",
"$r@::::::::::::::::::::l@@@8:::::::::::::::::::/>>",
"$k@::::::::::::::::::::l@@@8:::::::::::::::::::/>>",
"@9@::::::::::::::::::::l@@@8:::::::::::::::::::/>>",
"@b@::::::::::::::::::::l@@@8:::::::::::::::::::/>>",
"@b@::::::::::::::::::::l@@@8:::::::::::::::::::/>>",
"@b@::::::::::::::::::::l@@@8:::::::::::::::::::/>>",
"@b@::::::::::::::::::::l@@@8:::::::::::::::::::/>>",
"$<@::::::::::::::::::::l@@@8:::::::::::::::::::/>>",
"$<@::::::::::::::::::::l@@@8:::::::::::::::::::/>>",
"$<@::::::::::::::::::::l@@@8:::::::::::::::::::/>>",
"a<k::::::::::::::::::::l@@@8:::::::::::::::::::/>>",
"119::::::::::::::::::::l@@@8:::::::::::::::::::/>>",
"11b::::::::::::::::::::l@@@8:::::::::::::::::::/>>",
"__@::::::::::::::::::::l@@@8:::::::::::::::::::/>>",
"__@:::::::::::::s@@@@@@@@@@@@@@@@t:::::::::::::/>>",
"__@:::::::::::::s@@@@@@@@@@@@@@@@t:::::::::::::u>>",
"__@:::::::::::::s@@@@@@@@@@@@@@@@t:::::::::::::v;#",
"__@::::::::::::::::::::::::::::::::::::::::::::w@@",
"__@::::::::::::::::::::::::::::::::::::::::::::x@@",
"__@::::::::::::::::::::::::::::::::::::::::::::!@@",
"<$@::::::::::::::::::::::::::::::::::::::::::::!@@",
"  @::::::::::::::::::::::::::::::::::::::::::::7@@",
"$$@::::::::::::::::::::::::::::::::::::::::::::]#@",
"$ @::::::::::::::::::::::::::::::::::::::::::::{@@",
"@@@;>-'>>>''y)zzzzzzzzzAx!!!!!!!&BC///////{{{//&@@",
"$@@@@@@@@@@@@@@@@@@@@@@@@@@@@@@@@@#########@####@@",
"D$@####@@@###@@@@@@@@@@@@@@@@@@@@@@@@@@@@@@@@@@@@@"};
