/* XPM */
static char * 1c_xpm[] = {
"35 35 19 1",
" 	c #8F8F8F",
".	c #96938C",
"+	c #B1A27F",
"@	c #C8AF6F",
"#	c #DCBB5C",
"$	c #EEC742",
"%	c #FDD113",
"&	c #FFD200",
"*	c #D0B469",
"=	c #E5C150",
"-	c #E1BE56",
";	c #ECC646",
">	c #DABB5F",
",	c #C5AD72",
"'	c #AEA081",
")	c #CDB26B",
"!	c #CAB06D",
"~	c #B8A57B",
"{	c #BCA878",
"                                   ",
"                                   ",
"                                   ",
"                                   ",
"                                   ",
"                                   ",
"          .+@#$%&&*                ",
"          =&&&&&&&*                ",
"          =&&&&&&&*                ",
"          -;>,')&&*                ",
"               !&&*                ",
"               !&&*                ",
"               !&&*                ",
"               !&&*                ",
"               !&&*                ",
"               !&&*                ",
"               !&&*                ",
"               !&&*                ",
"               !&&*                ",
"               !&&*                ",
"               !&&*                ",
"               !&&*                ",
"               !&&*                ",
"               !&&*                ",
"               !&&*                ",
"          ~&&&&&&&&&&&&{           ",
"          ~&&&&&&&&&&&&{           ",
"          ~&&&&&&&&&&&&{           ",
"                                   ",
"                                   ",
"                                   ",
"                                   ",
"                                   ",
"                                   ",
"                                   "};
