/* XPM */
static char * 2_xpm[] = {
"50 50 109 2",
"  	c #40CA00",
". 	c #3BBD00",
"+ 	c #3EC400",
"@ 	c #3FC800",
"# 	c #3FC700",
"$ 	c #3FC900",
"% 	c #32A400",
"& 	c #39B700",
"* 	c #3ABB00",
"= 	c #3BBF00",
"- 	c #3CC100",
"; 	c #3DC300",
"> 	c #3DC200",
", 	c #3DC100",
"' 	c #3CC000",
") 	c #3BBC00",
"! 	c #38B400",
"~ 	c #36AF00",
"{ 	c #34A900",
"] 	c #33A600",
"^ 	c #31A100",
"/ 	c #2F9C00",
"( 	c #41CB00",
"_ 	c #40CB00",
": 	c #000000",
"< 	c #41CE00",
"[ 	c #3EC600",
"} 	c #3EC500",
"| 	c #36B000",
"1 	c #185900",
"2 	c #2A8C00",
"3 	c #33A700",
"4 	c #3ABA00",
"5 	c #39B900",
"6 	c #32A300",
"7 	c #248000",
"8 	c #052700",
"9 	c #40CC00",
"0 	c #145000",
"a 	c #2C9400",
"b 	c #288700",
"c 	c #000D00",
"d 	c #42D000",
"e 	c #34AA00",
"f 	c #022200",
"g 	c #40C900",
"h 	c #41CF00",
"i 	c #37B300",
"j 	c #2A8F00",
"k 	c #1B6400",
"l 	c #0F4300",
"m 	c #104100",
"n 	c #207400",
"o 	c #35AD00",
"p 	c #3EC700",
"q 	c #1A5F00",
"r 	c #288600",
"s 	c #227500",
"t 	c #42D200",
"u 	c #33A500",
"v 	c #1A6200",
"w 	c #2E9700",
"x 	c #37B100",
"y 	c #43D300",
"z 	c #073200",
"A 	c #0A3800",
"B 	c #44D500",
"C 	c #45D900",
"D 	c #1F6E00",
"E 	c #48E200",
"F 	c #38B500",
"G 	c #1A6100",
"H 	c #0D3B00",
"I 	c #298A00",
"J 	c #45DA00",
"K 	c #0D3D00",
"L 	c #268300",
"M 	c #44D600",
"N 	c #34A800",
"O 	c #031600",
"P 	c #298C00",
"Q 	c #217400",
"R 	c #2B9000",
"S 	c #175900",
"T 	c #3CBF00",
"U 	c #061E00",
"V 	c #114900",
"W 	c #082B00",
"X 	c #0C3E00",
"Y 	c #39B600",
"Z 	c #0B3800",
"` 	c #0A3600",
" .	c #3AB900",
"..	c #0C3B00",
"+.	c #0E4300",
"@.	c #052200",
"#.	c #3BBE00",
"$.	c #134C00",
"%.	c #135300",
"&.	c #001600",
"*.	c #32A500",
"=.	c #2F9D00",
"-.	c #2B9100",
";.	c #35AB00",
">.	c #38B600",
",.	c #36AE00",
"'.	c #39B800",
").	c #35AC00",
"!.	c #41CC00",
"    . + @ @ @ @ @ @ @ @ @ @ @ @ @ @ @ @ @ @ @ @ @ @ @ @ @ @ @ @ @ @ @ @ @ @ @ @ @ @ @ @ @ @ @ @ @ # ",
"@ @ @ + @ @ @ @ @ @ @ @ @ @ @ @ @ @ @ @ @ @ @ @ @ @ @ @ @ @ @ @ @ @ @ @ @ @ @ @ @ @ @ @ @ @ # # @ @ ",
"@ @ $ % & * = - + + ; > , ' ) & ! ~ { { { { ] ^ / / / / / / / / / / / / / / / / / / / / / / ^ , @ @ ",
"( $ _ : : : : : : : : : : : : : : : : : : : : : : : : : : : : : : : : : : : : : : : : : : : : > @ @ ",
"< $ @ : : : : : : : : : : : : : : : : : : : : : : : : : : : : : : : : : : : : : : : : : : : : [ @ @ ",
"< $ @ : : : : : : : : : : : : : : : : : : : : : : : : : : : : : : : : : : : : : : : : : : : : } @ @ ",
"< $ } : : : : : : : : : : : : : : : : : : : : : : : : : : : : : : : : : : : : : : : : : : : : ' @ # ",
"< $ > : : : : : : : : : : : : : : : : : : : : : : : : : : : : : : : : : : : : : : : : : : : : | } } ",
"< $ . : : : : : : : : : : : : : : : : : : : : : : : : : : : : : : : : : : : : : : : : : : : : / > > ",
"< $ . : : : : : : : : : : : : : : : : : : : : : : : : : : : : : : : : : : : : : : : : : : : : / > > ",
"< $ * : : : : : : : : : : : : : : : 1 2 3 4 > [ - 5 6 7 8 : : : : : : : : : : : : : : : : : : / > > ",
"9 9 # : : : : : : : : : : : : 0 a ) @ @ @ @ @ @ @ @ @ @ , b c : : : : : : : : : : : : : : : : / > > ",
"d @   : : : : : : : : : : : : . @ @ @ @ @ @ @ @ @ @ @ @ @ @ e f : : : : : : : : : : : : : : : { } } ",
"g < h : : : : : : : : : : : : . @ @ @ i j k l f m n o @ @ @ @ 3 : : : : : : : : : : : : : : : { p p ",
"@ d @ : : : : : : : : : : : : . @ % q : : : : : : : : r @ @ @ @ s : : : : : : : : : : : : : : { } } ",
"$ t @ : : : : : : : : : : : : u v : : : : : : : : : : : w @ @ @ x : : : : : : : : : : : : : : / > > ",
"$ y @ : : : : : : : : : : : : : : : : : : : : : : : : : z p @ @ # A : : : : : : : : : : : : : / > > ",
"$ B @ : : : : : : : : : : : : : : : : : : : : : : : : : : i @ @ @ q : : : : : : : : : : : : : / > > ",
"  C @ : : : : : : : : : : : : : : : : : : : : : : : : : : e @ @ @ D : : : : : : : : : : : : : / > > ",
"_ E @ : : : : : : : : : : : : : : : : : : : : : : : : : : F @ @ @ G : : : : : : : : : : : : : / > > ",
"< E @ : : : : : : : : : : : : : : : : : : : : : : : : : H [ @ @ # A : : : : : : : : : : : : : / > > ",
"_ E @ : : : : : : : : : : : : : : : : : : : : : : : : : I @ @ @ i : : : : : : : : : : : : : : / > > ",
"_ J @ : : : : : : : : : : : : : : : : : : : : : : : : K - @ @ @ L : : : : : : : : : : : : : : / > > ",
"$ M @ : : : : : : : : : : : : : : : : : : : : : : : : N @ @ @ 5 O : : : : : : : : : : : : : : / > > ",
"$ t @ : : : : : : : : : : : : : : : : : : : : : : : P @ @ @ # k : : : : : : : : : : : : : : : / > > ",
"@ d @ : : : : : : : : : : : : : : : : : : : : : : Q # @ @ @ R : : : : : : : : : : : : : : : : / > > ",
"@ h @ : : : : : : : : : : : : : : : : : : : : : k + @ @ @ 6 c : : : : : : : : : : : : : : : : / > > ",
"@ h @ : : : : : : : : : : : : : : : : : : : : S > @ @ @ e O : : : : : : : : : : : : : : : : : / > > ",
"@ h @ : : : : : : : : : : : : : : : : : : : 0 T @ @ @ ~ U : : : : : : : : : : : : : : : : : : / > > ",
"@ h @ : : : : : : : : : : : : : : : : : : V . @ @ @ i W : : : : : : : : : : : : : : : : : : : / > > ",
"$ < @ : : : : : : : : : : : : : : : : : X 4 @ @ @ Y Z : : : : : : : : : : : : : : : : : : : : / > > ",
"$ < @ : : : : : : : : : : : : : : : : ` & @ @ @  ...: : : : : : : : : : : : : : : : : : : : : / > > ",
"$ < @ : : : : : : : : : : : : : : : W i @ @ @ ) +.: : : : : : : : : : : : : : : : : : : : : : / > > ",
"g < t : : : : : : : : : : : : : : @.~ @ @ @ #.$.: : : : : : : : : : : : : : : : : : : : : : : / > > ",
"9 9 d : : : : : : : : : : : : : O e @ @ @ ' %.: : : : : : : : : : : : : : : : : : : : : : : : / > > ",
"9 9 h : : : : : : : : : : : : &.*.@ @ @ > S : : : : : : : : : : : : : : : : : : : : : : : : : / > > ",
"_ _ @ : : : : : : : : : : : : =.@ @ @ ; G : : : : : : : : : : : : : : : : : : : : : : : : : : / > > ",
"_ _ @ : : : : : : : : : : : Z @ @ @ @ @ @ @ @ @ @ @ @ @ @ @ @ @ @ 2 : : : : : : : : : : : : : / > > ",
"_ _ @ : : : : : : : : : : : Z @ @ @ @ @ @ @ @ @ @ @ @ @ @ @ @ @ @ 2 : : : : : : : : : : : : : -.> > ",
"_ _ @ : : : : : : : : : : : Z @ @ @ @ @ @ @ @ @ @ @ @ @ @ @ @ @ @ 2 : : : : : : : : : : : : : 6 ; # ",
"_ _ @ : : : : : : : : : : : : : : : : : : : : : : : : : : : : : : : : : : : : : : : : : : : : ;.@ @ ",
"_ _ @ : : : : : : : : : : : : : : : : : : : : : : : : : : : : : : : : : : : : : : : : : : : : >.@ @ ",
"_ _ @ : : : : : : : : : : : : : : : : : : : : : : : : : : : : : : : : : : : : : : : : : : : : ! @ @ ",
"< $ @ : : : : : : : : : : : : : : : : : : : : : : : : : : : : : : : : : : : : : : : : : : : : ! @ @ ",
"    @ : : : : : : : : : : : : : : : : : : : : : : : : : : : : : : : : : : : : : : : : : : : : ,.@ @ ",
"$ $ @ : : : : : : : : : : : : : : : : : : : : : : : : : : : : : : : : : : : : : : : : : : : : ] # @ ",
"$   @ : : : : : : : : : : : : : : : : : : : : : : : : : : : : : : : : : : : : : : : : : : : : { @ @ ",
"@ @ @ ; > - ' > > > ' ' #.)  . . . . . . . . .'.>.! ! ! ! ! ! ! & i )./ / / / / / / { { { / / & @ @ ",
"$ @ @ @ @ @ @ @ @ @ @ @ @ @ @ @ @ @ @ @ @ @ @ @ @ @ @ @ @ @ @ @ @ @ # # # # # # # # # @ # # # # @ @ ",
"!.$ @ # # # # @ @ @ # # # @ @ @ @ @ @ @ @ @ @ @ @ @ @ @ @ @ @ @ @ @ @ @ @ @ @ @ @ @ @ @ @ @ @ @ @ @ "};
