/* XPM */
static char * 2c_xpm[] = {
"35 35 65 1",
" 	c #8F8F8F",
".	c #97938C",
"+	c #B5A37D",
"@	c #D0B469",
"#	c #E5C150",
"$	c #F3CB38",
"%	c #FBCF1E",
"&	c #FED10B",
"*	c #FACF24",
"=	c #EFC840",
"-	c #DABB5E",
";	c #AEA180",
">	c #E1BE56",
",	c #FFD200",
"'	c #DFBE58",
")	c #96938C",
"!	c #E9C34B",
"~	c #90908E",
"{	c #DCBC5C",
"]	c #D3B666",
"^	c #B9A77A",
"/	c #AB9E83",
"(	c #9E9789",
"_	c #92918E",
":	c #9C9689",
"<	c #BDA877",
"[	c #C6AE71",
"}	c #94928D",
"|	c #EAC548",
"1	c #EBC648",
"2	c #F9CF28",
"3	c #F8CE29",
"4	c #A59B86",
"5	c #EAC44A",
"6	c #D2B567",
"7	c #A99C83",
"8	c #FCD017",
"9	c #F1C93B",
"0	c #92908E",
"a	c #F4CB35",
"b	c #FCD019",
"c	c #9B968A",
"d	c #BEA977",
"e	c #9D9689",
"f	c #F0C83E",
"g	c #C0AA76",
"h	c #A19888",
"i	c #F2CA3A",
"j	c #BFAA76",
"k	c #A59B85",
"l	c #F5CA33",
"m	c #FED10E",
"n	c #AA9E83",
"o	c #F7CD2D",
"p	c #B0A180",
"q	c #FACE25",
"r	c #FDD110",
"s	c #BDA978",
"t	c #FDD113",
"u	c #BBA779",
"v	c #BAA779",
"w	c #FDD115",
"x	c #B9A67A",
"y	c #EEC742",
"z	c #9C958A",
"                                   ",
"                                   ",
"                                   ",
"                                   ",
"                                   ",
"                                   ",
"         .+@#$%&*=-;               ",
"         >,,,,,,,,,,')             ",
"         >,,,,,,,,,,,!~            ",
"         {!]^/(_:<=,,,[            ",
"                  }|,,1            ",
"                   ;,,2            ",
"                   },,3            ",
"                   4,,5            ",
"                   6,,[            ",
"                  78,90            ",
"                 (a,b/             ",
"                c=,&d              ",
"               ef,&g               ",
"              hi,&j                ",
"             kl,mj                 ",
"            no,md                  ",
"           pq,rs                   ",
"          +%,tu                    ",
"         v8,wx                     ",
"         y,,,,,,,,,,,,,z           ",
"         y,,,,,,,,,,,,,z           ",
"         y,,,,,,,,,,,,,z           ",
"                                   ",
"                                   ",
"                                   ",
"                                   ",
"                                   ",
"                                   ",
"                                   "};
