/* XPM */
static char * 3_xpm[] = {
"50 50 122 2",
"  	c #40CA00",
". 	c #3BBD00",
"+ 	c #3EC400",
"@ 	c #3FC800",
"# 	c #3FC700",
"$ 	c #3FC900",
"% 	c #32A400",
"& 	c #39B700",
"* 	c #3ABB00",
"= 	c #3BBF00",
"- 	c #3CC100",
"; 	c #3DC300",
"> 	c #3DC200",
", 	c #3DC100",
"' 	c #3CC000",
") 	c #3BBC00",
"! 	c #38B400",
"~ 	c #36AF00",
"{ 	c #34A900",
"] 	c #33A600",
"^ 	c #31A100",
"/ 	c #2F9C00",
"( 	c #41CB00",
"_ 	c #40CB00",
": 	c #000000",
"< 	c #41CE00",
"[ 	c #3EC600",
"} 	c #3EC500",
"| 	c #36B000",
"1 	c #114900",
"2 	c #227700",
"3 	c #2B9300",
"4 	c #33A500",
"5 	c #37B300",
"6 	c #3AB900",
"7 	c #3CBF00",
"8 	c #36B100",
"9 	c #2D9800",
"0 	c #1C6200",
"a 	c #40CC00",
"b 	c #0D3D00",
"c 	c #195E00",
"d 	c #42D000",
"e 	c #3EC700",
"f 	c #247B00",
"g 	c #40C900",
"h 	c #41CF00",
"i 	c #258200",
"j 	c #195C00",
"k 	c #0A3800",
"l 	c #031600",
"m 	c #0B3500",
"n 	c #1A6200",
"o 	c #2A8F00",
"p 	c #1C6800",
"q 	c #0D3B00",
"r 	c #37B100",
"s 	c #237A00",
"t 	c #022200",
"u 	c #39B800",
"v 	c #42D200",
"w 	c #0A3600",
"x 	c #1A6100",
"y 	c #43D300",
"z 	c #309E00",
"A 	c #288900",
"B 	c #44D500",
"C 	c #278500",
"D 	c #2C9600",
"E 	c #45D900",
"F 	c #268300",
"G 	c #2C9300",
"H 	c #48E200",
"I 	c #2F9900",
"J 	c #237D00",
"K 	c #042B00",
"L 	c #3BBE00",
"M 	c #052200",
"N 	c #33A700",
"O 	c #45DA00",
"P 	c #082B00",
"Q 	c #175A00",
"R 	c #288800",
"S 	c #040F00",
"T 	c #44D600",
"U 	c #288700",
"V 	c #000D00",
"W 	c #207000",
"X 	c #1D6700",
"Y 	c #001600",
"Z 	c #2B8E00",
"` 	c #175B00",
" .	c #33A900",
"..	c #052700",
"+.	c #34AB00",
"@.	c #1B6500",
"#.	c #38B300",
"$.	c #125000",
"%.	c #0C3B00",
"&.	c #34AD00",
"*.	c #1F6E00",
"=.	c #309D00",
"-.	c #2E9900",
";.	c #227900",
">.	c #165400",
",.	c #114500",
"'.	c #2E9700",
").	c #2C9400",
"!.	c #2B9100",
"~.	c #0C3E00",
"{.	c #1E6F00",
"].	c #2A8E00",
"^.	c #32A500",
"/.	c #3ABA00",
"(.	c #39B900",
"_.	c #145000",
":.	c #32A300",
"<.	c #35AB00",
"[.	c #38B600",
"}.	c #36AE00",
"|.	c #35AC00",
"1.	c #41CC00",
"    . + @ @ @ @ @ @ @ @ @ @ @ @ @ @ @ @ @ @ @ @ @ @ @ @ @ @ @ @ @ @ @ @ @ @ @ @ @ @ @ @ @ @ @ @ @ # ",
"@ @ @ + @ @ @ @ @ @ @ @ @ @ @ @ @ @ @ @ @ @ @ @ @ @ @ @ @ @ @ @ @ @ @ @ @ @ @ @ @ @ @ @ @ @ # # @ @ ",
"@ @ $ % & * = - + + ; > , ' ) & ! ~ { { { { ] ^ / / / / / / / / / / / / / / / / / / / / / / ^ , @ @ ",
"( $ _ : : : : : : : : : : : : : : : : : : : : : : : : : : : : : : : : : : : : : : : : : : : : > @ @ ",
"< $ @ : : : : : : : : : : : : : : : : : : : : : : : : : : : : : : : : : : : : : : : : : : : : [ @ @ ",
"< $ @ : : : : : : : : : : : : : : : : : : : : : : : : : : : : : : : : : : : : : : : : : : : : } @ @ ",
"< $ } : : : : : : : : : : : : : : : : : : : : : : : : : : : : : : : : : : : : : : : : : : : : ' @ # ",
"< $ > : : : : : : : : : : : : : : : : : : : : : : : : : : : : : : : : : : : : : : : : : : : : | } } ",
"< $ . : : : : : : : : : : : : : : : : : : : : : : : : : : : : : : : : : : : : : : : : : : : : / > > ",
"< $ . : : : : : : : : : : : : : : : : : : : : : : : : : : : : : : : : : : : : : : : : : : : : / > > ",
"< $ * : : : : : : : : : : : : : 1 2 3 4 5 6 ' [ + 7 8 9 0 : : : : : : : : : : : : : : : : : : / > > ",
"a a # : : : : : : : : : : : : b @ @ @ @ @ @ @ @ @ @ @ @ @ ! c : : : : : : : : : : : : : : : : / > > ",
"d @   : : : : : : : : : : : : b @ @ @ @ @ @ @ @ @ @ @ @ @ @ e f : : : : : : : : : : : : : : : { } } ",
"g < h : : : : : : : : : : : : b @ @ ; % i j k l m n o 7 @ @ @ # p : : : : : : : : : : : : : : { e e ",
"@ d @ : : : : : : : : : : : : q r s t : : : : : : : : m ~ @ @ @ u : : : : : : : : : : : : : : { } } ",
"$ v @ : : : : : : : : : : : : : : : : : : : : : : : : : w > @ @ @ x : : : : : : : : : : : : : / > > ",
"$ y @ : : : : : : : : : : : : : : : : : : : : : : : : : : z @ @ @ A : : : : : : : : : : : : : / > > ",
"$ B @ : : : : : : : : : : : : : : : : : : : : : : : : : : C @ @ @ D : : : : : : : : : : : : : / > > ",
"  E @ : : : : : : : : : : : : : : : : : : : : : : : : : : F @ @ @ G : : : : : : : : : : : : : / > > ",
"_ H @ : : : : : : : : : : : : : : : : : : : : : : : : : : I @ @ @ J : : : : : : : : : : : : : / > > ",
"< H @ : : : : : : : : : : : : : : : : : : : : : : : : : K L @ @ } k : : : : : : : : : : : : : / > > ",
"_ H @ : : : : : : : : : : : : : : : : : : : : : : : : M N @ @ @ G : : : : : : : : : : : : : : / > > ",
"_ O @ : : : : : : : : : : : : : : : : : : : : : P Q R * @ @ @ N S : : : : : : : : : : : : : : / > > ",
"$ T @ : : : : : : : : : : : : : : : : : ' @ @ @ @ @ @ @ @ ' U V : : : : : : : : : : : : : : : / > > ",
"$ v @ : : : : : : : : : : : : : : : : : ' @ @ @ @ @ @ @ & W V : : : : : : : : : : : : : : : : / > > ",
"@ d @ : : : : : : : : : : : : : : : : : ' @ @ @ @ @ @ @ @ @ u X : : : : : : : : : : : : : : : / > > ",
"@ h @ : : : : : : : : : : : : : : : : : : : : Y m c U & @ @ @ # J : : : : : : : : : : : : : : / > > ",
"@ h @ : : : : : : : : : : : : : : : : : : : : : : : : Y Z @ @ @ e ` : : : : : : : : : : : : : / > > ",
"@ h @ : : : : : : : : : : : : : : : : : : : : : : : : : : D @ @ @  .: : : : : : : : : : : : : / > > ",
"@ h @ : : : : : : : : : : : : : : : : : : : : : : : : : : P } @ @ [ ..: : : : : : : : : : : : / > > ",
"$ < @ : : : : : : : : : : : : : : : : : : : : : : : : : : : r @ @ @ j : : : : : : : : : : : : / > > ",
"$ < @ : : : : : : : : : : : : : : : : : : : : : : : : : : : +.@ @ @ @.: : : : : : : : : : : : / > > ",
"$ < @ : : : : : : : : : : : : : : : : : : : : : : : : : : : #.@ @ @ $.: : : : : : : : : : : : / > > ",
"g < v : : : : : : : : : : : : : : : : : : : : : : : : : : %.# @ @ + t : : : : : : : : : : : : / > > ",
"a a d : : : : : : : : : : : : : : : : : : : : : : : : : : ^ @ @ @ N : : : : : : : : : : : : : / > > ",
"a a h : : : : : : : : : : : : &.*.V : : : : : : : : : K =.@ @ @ # x : : : : : : : : : : : : : / > > ",
"_ _ @ : : : : : : : : : : : : + @ ) -.;.>.k l ..,.*.'.7 @ @ @ @ ).: : : : : : : : : : : : : : / > > ",
"_ _ @ : : : : : : : : : : : : + @ @ @ @ @ @ @ @ @ @ @ @ @ @ @ ).: : : : : : : : : : : : : : : / > > ",
"_ _ @ : : : : : : : : : : : : + @ @ @ @ @ @ @ @ @ @ @ @ @ r 0 : : : : : : : : : : : : : : : : !.> > ",
"_ _ @ : : : : : : : : : : : : ~.{.].^.5 /.' [ } ' (.N ]._.: : : : : : : : : : : : : : : : : : :.; # ",
"_ _ @ : : : : : : : : : : : : : : : : : : : : : : : : : : : : : : : : : : : : : : : : : : : : <.@ @ ",
"_ _ @ : : : : : : : : : : : : : : : : : : : : : : : : : : : : : : : : : : : : : : : : : : : : [.@ @ ",
"_ _ @ : : : : : : : : : : : : : : : : : : : : : : : : : : : : : : : : : : : : : : : : : : : : ! @ @ ",
"< $ @ : : : : : : : : : : : : : : : : : : : : : : : : : : : : : : : : : : : : : : : : : : : : ! @ @ ",
"    @ : : : : : : : : : : : : : : : : : : : : : : : : : : : : : : : : : : : : : : : : : : : : }.@ @ ",
"$ $ @ : : : : : : : : : : : : : : : : : : : : : : : : : : : : : : : : : : : : : : : : : : : : ] # @ ",
"$   @ : : : : : : : : : : : : : : : : : : : : : : : : : : : : : : : : : : : : : : : : : : : : { @ @ ",
"@ @ @ ; > - ' > > > ' ' L ) 6 6 6 6 6 6 6 6 6 u [.! ! ! ! ! ! ! & 5 |./ / / / / / / { { { / / & @ @ ",
"$ @ @ @ @ @ @ @ @ @ @ @ @ @ @ @ @ @ @ @ @ @ @ @ @ @ @ @ @ @ @ @ @ @ # # # # # # # # # @ # # # # @ @ ",
"1.$ @ # # # # @ @ @ # # # @ @ @ @ @ @ @ @ @ @ @ @ @ @ @ @ @ @ @ @ @ @ @ @ @ @ @ @ @ @ @ @ @ @ @ @ @ "};
