/* XPM */
static char * 3c_xpm[] = {
"35 35 83 1",
" 	c #8F8F8F",
".	c #A39A86",
"+	c #C2AB74",
"@	c #DCBC5C",
"#	c #EDC645",
"$	c #F5CB34",
"%	c #FCD019",
"&	c #F5CC32",
"*	c #E5C251",
"=	c #C5AE72",
"-	c #96928C",
";	c #99948B",
">	c #FFD200",
",	c #F5CA33",
"'	c #B2A27F",
")	c #FCD01B",
"!	c #AB9E83",
"~	c #F2CA3A",
"{	c #D8B960",
"]	c #C1AB75",
"^	c #AEA081",
"/	c #A09888",
"(	c #92918E",
"_	c #97938C",
":	c #AD9F81",
"<	c #D4B764",
"[	c #FDD115",
"}	c #E8C34D",
"|	c #B7A57B",
"1	c #FED207",
"2	c #97948C",
"3	c #A69A85",
"4	c #F0C83D",
"5	c #9C958A",
"6	c #AFA080",
"7	c #FFD204",
"8	c #EEC742",
"9	c #95918D",
"0	c #A99C83",
"a	c #CEB36A",
"b	c #FACF21",
"c	c #FCD017",
"d	c #B3A27E",
"e	c #FACF22",
"f	c #F2C93B",
"g	c #E9C34B",
"h	c #A79C85",
"i	c #DBBB5D",
"j	c #93918D",
"k	c #90908F",
"l	c #AC9F82",
"m	c #CFB369",
"n	c #F9CE27",
"o	c #A19888",
"p	c #F6CC31",
"q	c #C9B06E",
"r	c #B9A77A",
"s	c #E2BF55",
"t	c #CDB26B",
"u	c #DBBB5E",
"v	c #C4AD73",
"w	c #E0BE58",
"x	c #E1BE56",
"y	c #A29A87",
"z	c #92908E",
"A	c #9C9689",
"B	c #B4A37D",
"C	c #D6B763",
"D	c #FBCF1E",
"E	c #F8CE29",
"F	c #E7C34E",
"G	c #FDD110",
"H	c #BAA779",
"I	c #F3CA37",
"J	c #B5A47D",
"K	c #BBA879",
"L	c #D7B861",
"M	c #EBC648",
"N	c #FBCF1F",
"O	c #F9CE26",
"P	c #EFC840",
"Q	c #DEBC5A",
"R	c #BCA878",
"                                   ",
"                                   ",
"                                   ",
"                                   ",
"                                   ",
"                                   ",
"          .+@#$%%&*=-              ",
"         ;>>>>>>>>>>,'             ",
"         ;>>>>>>>>>>>)!            ",
"         ;~{]^/(_:<[>>}            ",
"                   |>>12           ",
"                    ~>>3           ",
"                    4>>5           ",
"                   67>8            ",
"                90ab>cd            ",
"             e>>>>>>f6             ",
"             e>>>>>gh              ",
"             e>>>>>>>ij            ",
"               k2lmn>>*            ",
"                   op>>|           ",
"                    q>>{           ",
"                    r>>s           ",
"                    t>>u           ",
"                   hn>>v           ",
"         wxv^y-zABCD>>E;           ",
"         F>>>>>>>>>>>GH            ",
"         F>>>>>>>>>>IJ             ",
"         ;KLMINGOPQR(              ",
"                                   ",
"                                   ",
"                                   ",
"                                   ",
"                                   ",
"                                   ",
"                                   "};
