/* XPM */
static char * 4_xpm[] = {
"50 50 87 1",
" 	c #40CA00",
".	c #3BBD00",
"+	c #3EC400",
"@	c #3FC800",
"#	c #3FC700",
"$	c #3FC900",
"%	c #32A400",
"&	c #39B700",
"*	c #3ABB00",
"=	c #3BBF00",
"-	c #3CC100",
";	c #3DC300",
">	c #3DC200",
",	c #3DC100",
"'	c #3CC000",
")	c #3BBC00",
"!	c #38B400",
"~	c #36AF00",
"{	c #34A900",
"]	c #33A600",
"^	c #31A100",
"/	c #2F9C00",
"(	c #41CB00",
"_	c #40CB00",
":	c #000000",
"<	c #41CE00",
"[	c #3EC600",
"}	c #3EC500",
"|	c #36B000",
"1	c #40CC00",
"2	c #1D6C00",
"3	c #082B00",
"4	c #42D000",
"5	c #40C900",
"6	c #41CF00",
"7	c #309E00",
"8	c #3EC700",
"9	c #1E6A00",
"0	c #42D200",
"a	c #092E00",
"b	c #298B00",
"c	c #43D300",
"d	c #309D00",
"e	c #38B300",
"f	c #040F00",
"g	c #44D500",
"h	c #1E6800",
"i	c #175B00",
"j	c #45D900",
"k	c #2D9400",
"l	c #48E200",
"m	c #2E9B00",
"n	c #3ABA00",
"o	c #052200",
"p	c #1C6A00",
"q	c #042B00",
"r	c #3ABC00",
"s	c #309F00",
"t	c #45DA00",
"u	c #3CBF00",
"v	c #0B3500",
"w	c #44D600",
"x	c #1C6800",
"y	c #227700",
"z	c #34A800",
"A	c #2F9B00",
"B	c #0E4500",
"C	c #1D6700",
"D	c #268300",
"E	c #052700",
"F	c #36B100",
"G	c #000D00",
"H	c #2E9A00",
"I	c #145200",
"J	c #2A8F00",
"K	c #1A6100",
"L	c #2B9100",
"M	c #32A300",
"N	c #35AB00",
"O	c #38B600",
"P	c #36AE00",
"Q	c #3BBE00",
"R	c #3AB900",
"S	c #39B800",
"T	c #37B300",
"U	c #35AC00",
"V	c #41CC00",
"  .+@@@@@@@@@@@@@@@@@@@@@@@@@@@@@@@@@@@@@@@@@@@@@#",
"@@@+@@@@@@@@@@@@@@@@@@@@@@@@@@@@@@@@@@@@@@@@@@##@@",
"@@$%&*=-++;>,')&!~{{{{]^//////////////////////^,@@",
"($_::::::::::::::::::::::::::::::::::::::::::::>@@",
"<$@::::::::::::::::::::::::::::::::::::::::::::[@@",
"<$@::::::::::::::::::::::::::::::::::::::::::::}@@",
"<$}::::::::::::::::::::::::::::::::::::::::::::'@#",
"<$>::::::::::::::::::::::::::::::::::::::::::::|}}",
"<$.::::::::::::::::::::::::::::::::::::::::::::/>>",
"<$.::::::::::::::::::::::::::::::::::::::::::::/>>",
"<$*::::::::::::::::::::::::::::::::::::::::::::/>>",
"11#::::::::::::::::::::::2@@@@@3:::::::::::::::/>>",
"4@ :::::::::::::::::::::3)@@@@@3:::::::::::::::{}}",
"5<6:::::::::::::::::::::7@@@@@@3:::::::::::::::{88",
"@4@::::::::::::::::::::9@@+;@@@3:::::::::::::::{}}",
"$0@:::::::::::::::::::a)@@b.@@@3:::::::::::::::/>>",
"$c@:::::::::::::::::::d@@ef.@@@3:::::::::::::::/>>",
"$g@::::::::::::::::::h@@8i:.@@@3:::::::::::::::/>>",
" j@:::::::::::::::::a)@@k::.@@@3:::::::::::::::/>>",
"_l@:::::::::::::::::m@@no::.@@@3:::::::::::::::/>>",
"<l@::::::::::::::::p@@@p:::.@@@3:::::::::::::::/>>",
"_l@:::::::::::::::qr@@s::::.@@@3:::::::::::::::/>>",
"_t@:::::::::::::::/@@uv::::.@@@3:::::::::::::::/>>",
"$w@::::::::::::::x@@@y:::::.@@@3:::::::::::::::/>>",
"$0@:::::::::::::q*@@z::::::.@@@3:::::::::::::::/>>",
"@4@:::::::::::::A@@;B::::::.@@@3:::::::::::::::/>>",
"@6@::::::::::::C#@@D:::::::.@@@3:::::::::::::::/>>",
"@6@:::::::::::E*@@FG:::::::.@@@3:::::::::::::::/>>",
"@6@:::::::::::H@@}I::::::::.@@@3:::::::::::::::/>>",
"@6@::::::::::E#@@J:::::::::.@@@3:::::::::::::::/>>",
"$<@::::::::::3@@@@@@@@@@@@@@@@@@@@@K:::::::::::/>>",
"$<@::::::::::3@@@@@@@@@@@@@@@@@@@@@K:::::::::::/>>",
"$<@::::::::::3@@@@@@@@@@@@@@@@@@@@@K:::::::::::/>>",
"5<0::::::::::::::::::::::::.@@@3:::::::::::::::/>>",
"114::::::::::::::::::::::::.@@@3:::::::::::::::/>>",
"116::::::::::::::::::::::::.@@@3:::::::::::::::/>>",
"__@::::::::::::::::::::::::.@@@3:::::::::::::::/>>",
"__@::::::::::::::::::::::::.@@@3:::::::::::::::/>>",
"__@::::::::::::::::::::::::.@@@3:::::::::::::::L>>",
"__@::::::::::::::::::::::::.@@@3:::::::::::::::M;#",
"__@::::::::::::::::::::::::::::::::::::::::::::N@@",
"__@::::::::::::::::::::::::::::::::::::::::::::O@@",
"__@::::::::::::::::::::::::::::::::::::::::::::!@@",
"<$@::::::::::::::::::::::::::::::::::::::::::::!@@",
"  @::::::::::::::::::::::::::::::::::::::::::::P@@",
"$$@::::::::::::::::::::::::::::::::::::::::::::]#@",
"$ @::::::::::::::::::::::::::::::::::::::::::::{@@",
"@@@;>-'>>>''Q)RRRRRRRRRSO!!!!!!!&TU///////{{{//&@@",
"$@@@@@@@@@@@@@@@@@@@@@@@@@@@@@@@@@#########@####@@",
"V$@####@@@###@@@@@@@@@@@@@@@@@@@@@@@@@@@@@@@@@@@@@"};
