/* XPM */
static char * 4c_xpm[] = {
"35 35 42 1",
" 	c #8F8F8F",
".	c #90908F",
"+	c #EAC449",
"@	c #FFD200",
"#	c #B8A57B",
"$	c #C7AF70",
"%	c #A09888",
"&	c #FACF21",
"*	c #F9CE26",
"=	c #E5C251",
"-	c #E6C24F",
";	c #E1BE56",
">	c #BFAA76",
",	c #FBCF1F",
"'	c #A19987",
")	c #9B968A",
"!	c #F8CD2B",
"~	c #DFBC59",
"{	c #EAC44A",
"]	c #FCD019",
"^	c #A59B85",
"/	c #96938C",
"(	c #F5CA33",
"_	c #CCB26C",
":	c #D8B861",
"<	c #EDC644",
"[	c #918F8E",
"}	c #B0A180",
"|	c #FED207",
"1	c #FDD110",
"2	c #AA9E83",
"3	c #93918D",
"4	c #F1C93C",
"5	c #D1B467",
"6	c #D2B567",
"7	c #F0C83D",
"8	c #A99C83",
"9	c #FDD113",
"0	c #FED10B",
"a	c #AFA080",
"b	c #D4B665",
"c	c #D4B764",
"                                   ",
"                                   ",
"                                   ",
"                                   ",
"                                   ",
"                                   ",
"                .+@@@#             ",
"                $@@@@#             ",
"               %&@*@@#             ",
"               =@-;@@#             ",
"              >@,';@@#             ",
"             )!@$ ;@@#             ",
"             ~@{. ;@@#             ",
"            #@]^  ;@@#             ",
"           /(@_   ;@@#             ",
"           :@<[   ;@@#             ",
"          }|12    ;@@#             ",
"         34@5     ;@@#             ",
"         6@73     ;@@#             ",
"        890a      ;@@#             ",
"        b@@@@@@@@@@@@@@@$          ",
"        c@@@@@@@@@@@@@@@$          ",
"        c@@@@@@@@@@@@@@@$          ",
"                  ;@@#             ",
"                  ;@@#             ",
"                  ;@@#             ",
"                  ;@@#             ",
"                  ;@@#             ",
"                                   ",
"                                   ",
"                                   ",
"                                   ",
"                                   ",
"                                   ",
"                                   "};
