/* XPM */
static char * 5_xpm[] = {
"50 50 103 2",
"  	c #40CA00",
". 	c #3BBD00",
"+ 	c #3EC400",
"@ 	c #3FC800",
"# 	c #3FC700",
"$ 	c #3FC900",
"% 	c #32A400",
"& 	c #39B700",
"* 	c #3ABB00",
"= 	c #3BBF00",
"- 	c #3CC100",
"; 	c #3DC300",
"> 	c #3DC200",
", 	c #3DC100",
"' 	c #3CC000",
") 	c #3BBC00",
"! 	c #38B400",
"~ 	c #36AF00",
"{ 	c #34A900",
"] 	c #33A600",
"^ 	c #31A100",
"/ 	c #2F9C00",
"( 	c #41CB00",
"_ 	c #40CB00",
": 	c #000000",
"< 	c #41CE00",
"[ 	c #3EC600",
"} 	c #3EC500",
"| 	c #36B000",
"1 	c #40CC00",
"2 	c #33A900",
"3 	c #42D000",
"4 	c #40C900",
"5 	c #41CF00",
"6 	c #3EC700",
"7 	c #42D200",
"8 	c #43D300",
"9 	c #44D500",
"0 	c #45D900",
"a 	c #48E200",
"b 	c #319E00",
"c 	c #3ABA00",
"d 	c #32A500",
"e 	c #288600",
"f 	c #0B3800",
"g 	c #45DA00",
"h 	c #2F9900",
"i 	c #052700",
"j 	c #44D600",
"k 	c #39B800",
"l 	c #124E00",
"m 	c #31A200",
"n 	c #32A800",
"o 	c #298C00",
"p 	c #1F6E00",
"q 	c #175900",
"r 	c #0F4300",
"s 	c #021C00",
"t 	c #0B3500",
"u 	c #155700",
"v 	c #278400",
"w 	c #37B300",
"x 	c #0D3D00",
"y 	c #248000",
"z 	c #33A500",
"A 	c #207400",
"B 	c #33A700",
"C 	c #2C9300",
"D 	c #207000",
"E 	c #37B100",
"F 	c #0D3B00",
"G 	c #001600",
"H 	c #2C9400",
"I 	c #217400",
"J 	c #195E00",
"K 	c #34AA00",
"L 	c #237D00",
"M 	c #3CBF00",
"N 	c #2F9B00",
"O 	c #227900",
"P 	c #165400",
"Q 	c #0A3600",
"R 	c #031600",
"S 	c #072F00",
"T 	c #155500",
"U 	c #278200",
"V 	c #104100",
"W 	c #134A00",
"X 	c #022200",
"Y 	c #2B9100",
"Z 	c #2A8D00",
"` 	c #38B300",
" .	c #309E00",
"..	c #247D00",
"+.	c #052200",
"@.	c #32A300",
"#.	c #35AB00",
"$.	c #38B600",
"%.	c #36AE00",
"&.	c #3BBE00",
"*.	c #3AB900",
"=.	c #35AC00",
"-.	c #41CC00",
"    . + @ @ @ @ @ @ @ @ @ @ @ @ @ @ @ @ @ @ @ @ @ @ @ @ @ @ @ @ @ @ @ @ @ @ @ @ @ @ @ @ @ @ @ @ @ # ",
"@ @ @ + @ @ @ @ @ @ @ @ @ @ @ @ @ @ @ @ @ @ @ @ @ @ @ @ @ @ @ @ @ @ @ @ @ @ @ @ @ @ @ @ @ @ # # @ @ ",
"@ @ $ % & * = - + + ; > , ' ) & ! ~ { { { { ] ^ / / / / / / / / / / / / / / / / / / / / / / ^ , @ @ ",
"( $ _ : : : : : : : : : : : : : : : : : : : : : : : : : : : : : : : : : : : : : : : : : : : : > @ @ ",
"< $ @ : : : : : : : : : : : : : : : : : : : : : : : : : : : : : : : : : : : : : : : : : : : : [ @ @ ",
"< $ @ : : : : : : : : : : : : : : : : : : : : : : : : : : : : : : : : : : : : : : : : : : : : } @ @ ",
"< $ } : : : : : : : : : : : : : : : : : : : : : : : : : : : : : : : : : : : : : : : : : : : : ' @ # ",
"< $ > : : : : : : : : : : : : : : : : : : : : : : : : : : : : : : : : : : : : : : : : : : : : | } } ",
"< $ . : : : : : : : : : : : : : : : : : : : : : : : : : : : : : : : : : : : : : : : : : : : : / > > ",
"< $ . : : : : : : : : : : : : : : : : : : : : : : : : : : : : : : : : : : : : : : : : : : : : / > > ",
"< $ * : : : : : : : : : : : : : : : : : : : : : : : : : : : : : : : : : : : : : : : : : : : : / > > ",
"1 1 # : : : : : : : : : : : : : 2 @ @ @ @ @ @ @ @ @ @ @ @ @ @ & : : : : : : : : : : : : : : : / > > ",
"3 @   : : : : : : : : : : : : : 2 @ @ @ @ @ @ @ @ @ @ @ @ @ @ & : : : : : : : : : : : : : : : { } } ",
"4 < 5 : : : : : : : : : : : : : 2 @ @ @ @ @ @ @ @ @ @ @ @ @ @ & : : : : : : : : : : : : : : : { 6 6 ",
"@ 3 @ : : : : : : : : : : : : : 2 @ @ ; : : : : : : : : : : : : : : : : : : : : : : : : : : : { } } ",
"$ 7 @ : : : : : : : : : : : : : 2 @ @ ; : : : : : : : : : : : : : : : : : : : : : : : : : : : / > > ",
"$ 8 @ : : : : : : : : : : : : : 2 @ @ ; : : : : : : : : : : : : : : : : : : : : : : : : : : : / > > ",
"$ 9 @ : : : : : : : : : : : : : 2 @ @ ; : : : : : : : : : : : : : : : : : : : : : : : : : : : / > > ",
"  0 @ : : : : : : : : : : : : : 2 @ @ ; : : : : : : : : : : : : : : : : : : : : : : : : : : : / > > ",
"_ a @ : : : : : : : : : : : : : 2 @ @ ; : : : : : : : : : : : : : : : : : : : : : : : : : : : / > > ",
"< a @ : : : : : : : : : : : : : 2 @ @ ; : : : : : : : : : : : : : : : : : : : : : : : : : : : / > > ",
"_ a @ : : : : : : : : : : : : : 2 @ @ } b & > [ - c d e f : : : : : : : : : : : : : : : : : : / > > ",
"_ g @ : : : : : : : : : : : : : 2 @ @ @ @ @ @ @ @ @ @ @ + h i : : : : : : : : : : : : : : : : / > > ",
"$ j @ : : : : : : : : : : : : : 2 @ @ @ @ @ @ @ @ @ @ @ @ @ k l : : : : : : : : : : : : : : : / > > ",
"$ 7 @ : : : : : : : : : : : : : m n o p q r s t u v w @ @ @ @ c x : : : : : : : : : : : : : : / > > ",
"@ 3 @ : : : : : : : : : : : : : : : : : : : : : : : : y } @ @ @ z : : : : : : : : : : : : : : / > > ",
"@ 5 @ : : : : : : : : : : : : : : : : : : : : : : : : : A @ @ @ @ q : : : : : : : : : : : : : / > > ",
"@ 5 @ : : : : : : : : : : : : : : : : : : : : : : : : : : B @ @ @ C : : : : : : : : : : : : : / > > ",
"@ 5 @ : : : : : : : : : : : : : : : : : : : : : : : : : : D @ @ @ E : : : : : : : : : : : : : / > > ",
"@ 5 @ : : : : : : : : : : : : : : : : : : : : : : : : : : F @ @ @ ) : : : : : : : : : : : : : / > > ",
"$ < @ : : : : : : : : : : : : : : : : : : : : : : : : : : G @ @ @ > : : : : : : : : : : : : : / > > ",
"$ < @ : : : : : : : : : : : : : : : : : : : : : : : : : : F @ @ @ ) : : : : : : : : : : : : : / > > ",
"$ < @ : : : : : : : : : : : : : : : : : : : : : : : : : : D @ @ @ E : : : : : : : : : : : : : / > > ",
"4 < 7 : : : : : : : : : : : : : : : : : : : : : : : : : : z @ @ @ H : : : : : : : : : : : : : / > > ",
"1 1 3 : : : : : : : : : : : : : : : : : : : : : : : : : I @ @ @ @ J : : : : : : : : : : : : : / > > ",
"1 1 5 : : : : : : : : : : : : K A G : : : : : : : : : L + @ @ @ z : : : : : : : : : : : : : : / > > ",
"_ _ @ : : : : : : : : : : : : ' @ M N O P Q R S T U w @ @ @ @ * V : : : : : : : : : : : : : : / > > ",
"_ _ @ : : : : : : : : : : : : ' @ @ @ @ @ @ @ @ @ @ @ @ @ @ & W : : : : : : : : : : : : : : : / > > ",
"_ _ @ : : : : : : : : : : : : ' @ @ @ @ @ @ @ @ @ @ @ @ > C X : : : : : : : : : : : : : : : : Y > > ",
"_ _ @ : : : : : : : : : : : : x p Z d w c - [ + M `  ...+.: : : : : : : : : : : : : : : : : : @.; # ",
"_ _ @ : : : : : : : : : : : : : : : : : : : : : : : : : : : : : : : : : : : : : : : : : : : : #.@ @ ",
"_ _ @ : : : : : : : : : : : : : : : : : : : : : : : : : : : : : : : : : : : : : : : : : : : : $.@ @ ",
"_ _ @ : : : : : : : : : : : : : : : : : : : : : : : : : : : : : : : : : : : : : : : : : : : : ! @ @ ",
"< $ @ : : : : : : : : : : : : : : : : : : : : : : : : : : : : : : : : : : : : : : : : : : : : ! @ @ ",
"    @ : : : : : : : : : : : : : : : : : : : : : : : : : : : : : : : : : : : : : : : : : : : : %.@ @ ",
"$ $ @ : : : : : : : : : : : : : : : : : : : : : : : : : : : : : : : : : : : : : : : : : : : : ] # @ ",
"$   @ : : : : : : : : : : : : : : : : : : : : : : : : : : : : : : : : : : : : : : : : : : : : { @ @ ",
"@ @ @ ; > - ' > > > ' ' &.) *.*.*.*.*.*.*.*.*.k $.! ! ! ! ! ! ! & w =./ / / / / / / { { { / / & @ @ ",
"$ @ @ @ @ @ @ @ @ @ @ @ @ @ @ @ @ @ @ @ @ @ @ @ @ @ @ @ @ @ @ @ @ @ # # # # # # # # # @ # # # # @ @ ",
"-.$ @ # # # # @ @ @ # # # @ @ @ @ @ @ @ @ @ @ @ @ @ @ @ @ @ @ @ @ @ @ @ @ @ @ @ @ @ @ @ @ @ @ @ @ @ "};
