/* XPM */
static char * 5c_xpm[] = {
"35 35 51 1",
" 	c #8F8F8F",
".	c #EBC447",
"+	c #FFD200",
"@	c #F3CA37",
"#	c #FBD01C",
"$	c #FDD113",
"%	c #DFBC59",
"&	c #F5CC32",
"*	c #FACE25",
"=	c #F0C83F",
"-	c #DABA5E",
";	c #B0A17F",
">	c #E4C052",
",	c #9C958A",
"'	c #99948B",
")	c #E1BE56",
"!	c #D7B862",
"~	c #BAA779",
"{	c #A89D84",
"]	c #98958B",
"^	c #94928D",
"/	c #A39986",
"(	c #C1AB75",
"_	c #ECC645",
":	c #DABB5E",
"<	c #90908F",
"[	c #D5B863",
"}	c #FED10E",
"|	c #90908E",
"1	c #F1C93D",
"2	c #BBA879",
"3	c #C9AF6F",
"4	c #BCA878",
"5	c #FED10B",
"6	c #9A958B",
"7	c #DEBC5A",
"8	c #E2BF55",
"9	c #C6AE71",
"0	c #AEA180",
"a	c #96928C",
"b	c #93918D",
"c	c #A29A87",
"d	c #ECC646",
"e	c #DCBB5D",
"f	c #9B958A",
"g	c #E3C053",
"h	c #9C9689",
"i	c #EBC648",
"j	c #FBCF1E",
"k	c #F8CE29",
"l	c #AC9E82",
"                                   ",
"                                   ",
"                                   ",
"                                   ",
"                                   ",
"                                   ",
"          .++++++++++@             ",
"          .++++++++++@             ",
"          .++++++++++@             ",
"          .+#                      ",
"          .+#                      ",
"          .+#                      ",
"          .+#                      ",
"          .+#                      ",
"          .+$%&$*=-;               ",
"          .+++++++++>,             ",
"          .++++++++++='            ",
"          )!~{]^/(_+++:            ",
"                  <[++}'           ",
"                   |1++2           ",
"                    !++3           ",
"                    !++3           ",
"                   |1++4           ",
"                   [++56           ",
"         7890/abc(d+++e            ",
"         >+++++++++++1f            ",
"         >++++++++++gh             ",
"         '~!i@j$k_!l               ",
"                                   ",
"                                   ",
"                                   ",
"                                   ",
"                                   ",
"                                   ",
"                                   "};
