/* XPM */
static char * 6_xpm[] = {
"50 50 122 2",
"  	c #40CA00",
". 	c #3BBD00",
"+ 	c #3EC400",
"@ 	c #3FC800",
"# 	c #3FC700",
"$ 	c #3FC900",
"% 	c #32A400",
"& 	c #39B700",
"* 	c #3ABB00",
"= 	c #3BBF00",
"- 	c #3CC100",
"; 	c #3DC300",
"> 	c #3DC200",
", 	c #3DC100",
"' 	c #3CC000",
") 	c #3BBC00",
"! 	c #38B400",
"~ 	c #36AF00",
"{ 	c #34A900",
"] 	c #33A600",
"^ 	c #31A100",
"/ 	c #2F9C00",
"( 	c #41CB00",
"_ 	c #40CB00",
": 	c #000000",
"< 	c #41CE00",
"[ 	c #3EC600",
"} 	c #3EC500",
"| 	c #36B000",
"1 	c #1A6200",
"2 	c #2E9800",
"3 	c #37B300",
"4 	c #3ABC00",
"5 	c #309F00",
"6 	c #257E00",
"7 	c #134A00",
"8 	c #40CC00",
"9 	c #175B00",
"0 	c #37B100",
"a 	c #052200",
"b 	c #42D000",
"c 	c #258200",
"d 	c #40C900",
"e 	c #41CF00",
"f 	c #288600",
"g 	c #35AD00",
"h 	c #268000",
"i 	c #145000",
"j 	c #082B00",
"k 	c #042B00",
"l 	c #145200",
"m 	c #258100",
"n 	c #35AC00",
"o 	c #3EC700",
"p 	c #217400",
"q 	c #165500",
"r 	c #34AB00",
"s 	c #061E00",
"t 	c #42D200",
"u 	c #021C00",
"v 	c #1C6200",
"w 	c #43D300",
"x 	c #288800",
"y 	c #2B9200",
"z 	c #44D500",
"A 	c #3AB900",
"B 	c #052700",
"C 	c #45D900",
"D 	c #1C6800",
"E 	c #309D00",
"F 	c #48E200",
"G 	c #2D9600",
"H 	c #217300",
"I 	c #35AE00",
"J 	c #0D3D00",
"K 	c #288900",
"L 	c #3CBF00",
"M 	c #39B600",
"N 	c #2F9B00",
"O 	c #1E6800",
"P 	c #257F00",
"Q 	c #154E00",
"R 	c #45DA00",
"S 	c #2B8E00",
"T 	c #1B6500",
"U 	c #44D600",
"V 	c #114700",
"W 	c #33A700",
"X 	c #1E6B00",
"Y 	c #0A3600",
"Z 	c #298D00",
"` 	c #0E4500",
" .	c #175A00",
"..	c #104B00",
"+.	c #185D00",
"@.	c #125000",
"#.	c #0C3B00",
"$.	c #2A8C00",
"%.	c #0C3E00",
"&.	c #227900",
"*.	c #2D9800",
"=.	c #0B3800",
"-.	c #2C9300",
";.	c #185E00",
">.	c #34A800",
",.	c #298800",
"'.	c #298A00",
").	c #022200",
"!.	c #2E9B00",
"~.	c #39B900",
"{.	c #247D00",
"].	c #3ABA00",
"^.	c #32A300",
"/.	c #2B9100",
"(.	c #36B200",
"_.	c #165400",
":.	c #35AB00",
"<.	c #38B600",
"[.	c #36AE00",
"}.	c #3BBE00",
"|.	c #39B800",
"1.	c #41CC00",
"    . + @ @ @ @ @ @ @ @ @ @ @ @ @ @ @ @ @ @ @ @ @ @ @ @ @ @ @ @ @ @ @ @ @ @ @ @ @ @ @ @ @ @ @ @ @ # ",
"@ @ @ + @ @ @ @ @ @ @ @ @ @ @ @ @ @ @ @ @ @ @ @ @ @ @ @ @ @ @ @ @ @ @ @ @ @ @ @ @ @ @ @ @ @ # # @ @ ",
"@ @ $ % & * = - + + ; > , ' ) & ! ~ { { { { ] ^ / / / / / / / / / / / / / / / / / / / / / / ^ , @ @ ",
"( $ _ : : : : : : : : : : : : : : : : : : : : : : : : : : : : : : : : : : : : : : : : : : : : > @ @ ",
"< $ @ : : : : : : : : : : : : : : : : : : : : : : : : : : : : : : : : : : : : : : : : : : : : [ @ @ ",
"< $ @ : : : : : : : : : : : : : : : : : : : : : : : : : : : : : : : : : : : : : : : : : : : : } @ @ ",
"< $ } : : : : : : : : : : : : : : : : : : : : : : : : : : : : : : : : : : : : : : : : : : : : ' @ # ",
"< $ > : : : : : : : : : : : : : : : : : : : : : : : : : : : : : : : : : : : : : : : : : : : : | } } ",
"< $ . : : : : : : : : : : : : : : : : : : : : : : : : : : : : : : : : : : : : : : : : : : : : / > > ",
"< $ . : : : : : : : : : : : : : : : : : : : : : : : : : : : : : : : : : : : : : : : : : : : : / > > ",
"< $ * : : : : : : : : : : : : : : : : : : : 1 2 3 - [ ; 4 3 5 6 7 : : : : : : : : : : : : : : / > > ",
"8 8 # : : : : : : : : : : : : : : : : : 9 0 @ @ @ @ @ @ @ @ @ @ @ a : : : : : : : : : : : : : / > > ",
"b @   : : : : : : : : : : : : : : : : c [ @ @ @ @ @ @ @ @ @ @ @ @ a : : : : : : : : : : : : : { } } ",
"d < e : : : : : : : : : : : : : : : f @ @ @ @ g h i j k l m n @ @ a : : : : : : : : : : : : : { o o ",
"@ b @ : : : : : : : : : : : : : : 1 # @ @ ; p : : : : : : : : q r s : : : : : : : : : : : : : { } } ",
"$ t @ : : : : : : : : : : : : : u & @ @ o v : : : : : : : : : : : : : : : : : : : : : : : : : / > > ",
"$ w @ : : : : : : : : : : : : : x @ @ @ y : : : : : : : : : : : : : : : : : : : : : : : : : : / > > ",
"$ z @ : : : : : : : : : : : : : A @ @ > B : : : : : : : : : : : : : : : : : : : : : : : : : : / > > ",
"  C @ : : : : : : : : : : : : D @ @ @ E : : : : : : : : : : : : : : : : : : : : : : : : : : : / > > ",
"_ F @ : : : : : : : : : : : : G @ @ @ H : : : : : : : : : : : : : : : : : : : : : : : : : : : / > > ",
"< F @ : : : : : : : : : : : : I @ @ @ J : J K 0 L [ ' M N O : : : : : : : : : : : : : : : : : / > > ",
"_ F @ : : : : : : : : : : : : ; @ @ - : P > @ @ @ @ @ @ @ @ ~ Q : : : : : : : : : : : : : : : / > > ",
"_ R @ : : : : : : : : : : : j @ @ @ M S @ @ @ @ @ @ @ @ @ @ @ , T : : : : : : : : : : : : : : / > > ",
"$ U @ : : : : : : : : : : : V @ @ @ ; @ @ @ W X Y a q Z > @ @ @ ' ` : : : : : : : : : : : : : / > > ",
"$ t @ : : : : : : : : : : :  .@ @ @ @ @ @ c : : : : : : ..) @ @ @ W : : : : : : : : : : : : : / > > ",
"@ b @ : : : : : : : : : : : 9 @ @ @ @ @ N : : : : : : : : +.o @ @ # i : : : : : : : : : : : : / > > ",
"@ e @ : : : : : : : : : : : @.@ @ @ @ [ #.: : : : : : : : : W @ @ @ $.: : : : : : : : : : : : / > > ",
"@ e @ : : : : : : : : : : : %.@ @ @ @ I : : : : : : : : : : &.@ @ @ r : : : : : : : : : : : : / > > ",
"@ e @ : : : : : : : : : : : s # @ @ @ *.: : : : : : : : : : i @ @ @ & : : : : : : : : : : : : / > > ",
"@ e @ : : : : : : : : : : : : ) @ @ @ Z : : : : : : : : : : =.@ @ @ L : : : : : : : : : : : : / > > ",
"$ < @ : : : : : : : : : : : : r @ @ @ Z : : : : : : : : : : Y @ @ @ L : : : : : : : : : : : : / > > ",
"$ < @ : : : : : : : : : : : : -.@ @ @ *.: : : : : : : : : : i @ @ @ & : : : : : : : : : : : : / > > ",
"$ < @ : : : : : : : : : : : : ;.@ @ @ ~ : : : : : : : : : : &.@ @ @ >.: : : : : : : : : : : : / > > ",
"d < t : : : : : : : : : : : : : ) @ @ [ %.: : : : : : : : : W @ @ @ ,.: : : : : : : : : : : : / > > ",
"8 8 b : : : : : : : : : : : : : '.@ @ @ / : : : : : : : : ;.o @ @ o ` : : : : : : : : : : : : / > > ",
"8 8 e : : : : : : : : : : : : : ).) @ @ @ m : : : : : : ..4 @ @ @ !.: : : : : : : : : : : : : / > > ",
"_ _ @ : : : : : : : : : : : : : : O [ @ @ @ W X =.s q Z > @ @ @ ~.j : : : : : : : : : : : : : / > > ",
"_ _ @ : : : : : : : : : : : : : : : {.# @ @ @ @ @ @ @ @ @ @ @ ].@.: : : : : : : : : : : : : : / > > ",
"_ _ @ : : : : : : : : : : : : : : : : v A @ @ @ @ @ @ @ @ # ^.=.: : : : : : : : : : : : : : : /.> > ",
"_ _ @ : : : : : : : : : : : : : : : : : u H % ~.> [ L (.-._.: : : : : : : : : : : : : : : : : ^.; # ",
"_ _ @ : : : : : : : : : : : : : : : : : : : : : : : : : : : : : : : : : : : : : : : : : : : : :.@ @ ",
"_ _ @ : : : : : : : : : : : : : : : : : : : : : : : : : : : : : : : : : : : : : : : : : : : : <.@ @ ",
"_ _ @ : : : : : : : : : : : : : : : : : : : : : : : : : : : : : : : : : : : : : : : : : : : : ! @ @ ",
"< $ @ : : : : : : : : : : : : : : : : : : : : : : : : : : : : : : : : : : : : : : : : : : : : ! @ @ ",
"    @ : : : : : : : : : : : : : : : : : : : : : : : : : : : : : : : : : : : : : : : : : : : : [.@ @ ",
"$ $ @ : : : : : : : : : : : : : : : : : : : : : : : : : : : : : : : : : : : : : : : : : : : : ] # @ ",
"$   @ : : : : : : : : : : : : : : : : : : : : : : : : : : : : : : : : : : : : : : : : : : : : { @ @ ",
"@ @ @ ; > - ' > > > ' ' }.) A A A A A A A A A |.<.! ! ! ! ! ! ! & 3 n / / / / / / / { { { / / & @ @ ",
"$ @ @ @ @ @ @ @ @ @ @ @ @ @ @ @ @ @ @ @ @ @ @ @ @ @ @ @ @ @ @ @ @ @ # # # # # # # # # @ # # # # @ @ ",
"1.$ @ # # # # @ @ @ # # # @ @ @ @ @ @ @ @ @ @ @ @ @ @ @ @ @ @ @ @ @ @ @ @ @ @ @ @ @ @ @ @ @ @ @ @ @ "};
