/* XPM */
static char * 6c_xpm[] = {
"35 35 80 1",
" 	c #8F8F8F",
".	c #B3A27E",
"+	c #DABB5E",
"@	c #F1C93C",
"#	c #FACF24",
"$	c #FCD01B",
"%	c #F2CA39",
"&	c #E5C051",
"*	c #C6AE71",
"=	c #9E9789",
"-	c #9D9689",
";	c #E3C053",
">	c #FFD200",
",	c #EDC645",
"'	c #9F9888",
")	c #F2C93B",
"!	c #90908E",
"~	c #ECC646",
"{	c #E0BE57",
"]	c #B5A37D",
"^	c #9B968A",
"/	c #92908E",
"(	c #B8A57B",
"_	c #DABB5F",
":	c #C9B06E",
"<	c #FED207",
"[	c #C1AB75",
"}	c #F5CA33",
"|	c #D5B863",
"1	c #B7A57C",
"2	c #98958B",
"3	c #D2B566",
"4	c #E7C24F",
"5	c #C7AF70",
"6	c #E7C34E",
"7	c #F9CF28",
"8	c #FCD017",
"9	c #E1BE56",
"0	c #B9A77A",
"a	c #EFC840",
"b	c #B1A27F",
"c	c #D7B862",
"d	c #E6C24F",
"e	c #99948B",
"f	c #EAC449",
"g	c #92918E",
"h	c #F6CC31",
"i	c #FED10E",
"j	c #D8B861",
"k	c #AA9E83",
"l	c #94928D",
"m	c #97938C",
"n	c #E5C251",
"o	c #C8AE70",
"p	c #C5AE72",
"q	c #DCBB5D",
"r	c #F0C83D",
"s	c #ECC547",
"t	c #9A958B",
"u	c #FDD110",
"v	c #DDBC5B",
"w	c #A89D84",
"x	c #CAB06D",
"y	c #A79C84",
"z	c #A69B85",
"A	c #F1C93B",
"B	c #FFD204",
"C	c #EFC741",
"D	c #EEC742",
"E	c #B9A67A",
"F	c #D8B961",
"G	c #96938C",
"H	c #B2A17E",
"I	c #E4C152",
"J	c #C2AB74",
"K	c #DBBB5D",
"L	c #DFBD59",
"M	c #95918D",
"N	c #B2A27F",
"O	c #F3CA37",
"                                   ",
"                                   ",
"                                   ",
"                                   ",
"                                   ",
"                                   ",
"              .+@#$%&*=            ",
"            -;>>>>>>>>,            ",
"           ')>>>>>>>>>,            ",
"          !~>>>{]^/=(_;            ",
"          :>><[                    ",
"         !}>>|                     ",
"         1>>$2                     ",
"         3>>{                      ",
"         4>>5 (678}90              ",
"         a>>bc>>>>>>>de            ",
"         }>>c>>>>>>>>>fg           ",
"         h>>i<jklm.n>>>o           ",
"         @>>>p      q>>r           ",
"         s>>@       tu>>t          ",
"         v>>v        r>>w          ",
"         x>>v        r>>y          ",
"         z>>A       tu>Be          ",
"          C>>p      q>>D           ",
"          E>><FklGHI>>>J           ",
"           v>>>>>>>>>>I!           ",
"           /K>>>>>>>>LM            ",
"             NvO$$OvN              ",
"                                   ",
"                                   ",
"                                   ",
"                                   ",
"                                   ",
"                                   ",
"                                   "};
