/* XPM */
static char * 7_xpm[] = {
"50 50 95 2",
"  	c #40CA00",
". 	c #3BBD00",
"+ 	c #3EC400",
"@ 	c #3FC800",
"# 	c #3FC700",
"$ 	c #3FC900",
"% 	c #32A400",
"& 	c #39B700",
"* 	c #3ABB00",
"= 	c #3BBF00",
"- 	c #3CC100",
"; 	c #3DC300",
"> 	c #3DC200",
", 	c #3DC100",
"' 	c #3CC000",
") 	c #3BBC00",
"! 	c #38B400",
"~ 	c #36AF00",
"{ 	c #34A900",
"] 	c #33A600",
"^ 	c #31A100",
"/ 	c #2F9C00",
"( 	c #41CB00",
"_ 	c #40CB00",
": 	c #000000",
"< 	c #41CE00",
"[ 	c #3EC600",
"} 	c #3EC500",
"| 	c #36B000",
"1 	c #40CC00",
"2 	c #34AD00",
"3 	c #052200",
"4 	c #42D000",
"5 	c #021C00",
"6 	c #40C900",
"7 	c #41CF00",
"8 	c #35AC00",
"9 	c #3EC700",
"0 	c #040F00",
"a 	c #3CBF00",
"b 	c #217700",
"c 	c #42D200",
"d 	c #217400",
"e 	c #43D300",
"f 	c #34A800",
"g 	c #2F9900",
"h 	c #44D500",
"i 	c #0C3B00",
"j 	c #155500",
"k 	c #45D900",
"l 	c #298A00",
"m 	c #37B300",
"n 	c #48E200",
"o 	c #258200",
"p 	c #196100",
"q 	c #3DC400",
"r 	c #082B00",
"s 	c #319E00",
"t 	c #32A000",
"u 	c #45DA00",
"v 	c #052700",
"w 	c #1B6500",
"x 	c #44D600",
"y 	c #257E00",
"z 	c #3AB900",
"A 	c #298C00",
"B 	c #134C00",
"C 	c #0C3E00",
"D 	c #2C9400",
"E 	c #001600",
"F 	c #1F7200",
"G 	c #1E6F00",
"H 	c #3BBE00",
"I 	c #34A600",
"J 	c #2D9500",
"K 	c #0A3600",
"L 	c #125000",
"M 	c #298800",
"N 	c #38B700",
"O 	c #237D00",
"P 	c #195C00",
"Q 	c #309D00",
"R 	c #022200",
"S 	c #185D00",
"T 	c #227900",
"U 	c #278700",
"V 	c #114700",
"W 	c #2B9100",
"X 	c #2A8F00",
"Y 	c #32A300",
"Z 	c #35AB00",
"` 	c #38B600",
" .	c #36AE00",
"..	c #39B800",
"+.	c #41CC00",
"    . + @ @ @ @ @ @ @ @ @ @ @ @ @ @ @ @ @ @ @ @ @ @ @ @ @ @ @ @ @ @ @ @ @ @ @ @ @ @ @ @ @ @ @ @ @ # ",
"@ @ @ + @ @ @ @ @ @ @ @ @ @ @ @ @ @ @ @ @ @ @ @ @ @ @ @ @ @ @ @ @ @ @ @ @ @ @ @ @ @ @ @ @ @ # # @ @ ",
"@ @ $ % & * = - + + ; > , ' ) & ! ~ { { { { ] ^ / / / / / / / / / / / / / / / / / / / / / / ^ , @ @ ",
"( $ _ : : : : : : : : : : : : : : : : : : : : : : : : : : : : : : : : : : : : : : : : : : : : > @ @ ",
"< $ @ : : : : : : : : : : : : : : : : : : : : : : : : : : : : : : : : : : : : : : : : : : : : [ @ @ ",
"< $ @ : : : : : : : : : : : : : : : : : : : : : : : : : : : : : : : : : : : : : : : : : : : : } @ @ ",
"< $ } : : : : : : : : : : : : : : : : : : : : : : : : : : : : : : : : : : : : : : : : : : : : ' @ # ",
"< $ > : : : : : : : : : : : : : : : : : : : : : : : : : : : : : : : : : : : : : : : : : : : : | } } ",
"< $ . : : : : : : : : : : : : : : : : : : : : : : : : : : : : : : : : : : : : : : : : : : : : / > > ",
"< $ . : : : : : : : : : : : : : : : : : : : : : : : : : : : : : : : : : : : : : : : : : : : : / > > ",
"< $ * : : : : : : : : : : : : : : : : : : : : : : : : : : : : : : : : : : : : : : : : : : : : / > > ",
"1 1 # : : : : : : : : : : : : 2 @ @ @ @ @ @ @ @ @ @ @ @ @ @ @ @ @ @ 3 : : : : : : : : : : : : / > > ",
"4 @   : : : : : : : : : : : : 2 @ @ @ @ @ @ @ @ @ @ @ @ @ @ @ @ @ # 5 : : : : : : : : : : : : { } } ",
"6 < 7 : : : : : : : : : : : : 2 @ @ @ @ @ @ @ @ @ @ @ @ @ @ @ @ @ 8 : : : : : : : : : : : : : { 9 9 ",
"@ 4 @ : : : : : : : : : : : : : : : : : : : : : : : : : 0 a @ @ @ b : : : : : : : : : : : : : { } } ",
"$ c @ : : : : : : : : : : : : : : : : : : : : : : : : : d @ @ @ - 5 : : : : : : : : : : : : : / > > ",
"$ e @ : : : : : : : : : : : : : : : : : : : : : : : : : f @ @ @ g : : : : : : : : : : : : : : / > > ",
"$ h @ : : : : : : : : : : : : : : : : : : : : : : : : i [ @ @ @ j : : : : : : : : : : : : : : / > > ",
"  k @ : : : : : : : : : : : : : : : : : : : : : : : : l @ @ @ m : : : : : : : : : : : : : : : / > > ",
"_ n @ : : : : : : : : : : : : : : : : : : : : : : : : & @ @ @ o : : : : : : : : : : : : : : : / > > ",
"< n @ : : : : : : : : : : : : : : : : : : : : : : : p @ @ @ q r : : : : : : : : : : : : : : : / > > ",
"_ n @ : : : : : : : : : : : : : : : : : : : : : : : s @ @ @ t : : : : : : : : : : : : : : : : / > > ",
"_ u @ : : : : : : : : : : : : : : : : : : : : : : v ; @ @ @ w : : : : : : : : : : : : : : : : / > > ",
"$ x @ : : : : : : : : : : : : : : : : : : : : : : y @ @ @ z : : : : : : : : : : : : : : : : : / > > ",
"$ c @ : : : : : : : : : : : : : : : : : : : : : : ~ @ @ @ A : : : : : : : : : : : : : : : : : / > > ",
"@ 4 @ : : : : : : : : : : : : : : : : : : : : : B @ @ @ [ C : : : : : : : : : : : : : : : : : / > > ",
"@ 7 @ : : : : : : : : : : : : : : : : : : : : : D @ @ @ f : : : : : : : : : : : : : : : : : : / > > ",
"@ 7 @ : : : : : : : : : : : : : : : : : : : : E ) @ @ @ F : : : : : : : : : : : : : : : : : : / > > ",
"@ 7 @ : : : : : : : : : : : : : : : : : : : : G @ @ @ H 0 : : : : : : : : : : : : : : : : : : / > > ",
"@ 7 @ : : : : : : : : : : : : : : : : : : : : I @ @ @ J : : : : : : : : : : : : : : : : : : : / > > ",
"$ < @ : : : : : : : : : : : : : : : : : : : K 9 @ @ @ L : : : : : : : : : : : : : : : : : : : / > > ",
"$ < @ : : : : : : : : : : : : : : : : : : : M @ @ @ ~ : : : : : : : : : : : : : : : : : : : : / > > ",
"$ < @ : : : : : : : : : : : : : : : : : : : N @ @ @ O : : : : : : : : : : : : : : : : : : : : / > > ",
"6 < c : : : : : : : : : : : : : : : : : : P @ @ @ > 3 : : : : : : : : : : : : : : : : : : : : / > > ",
"1 1 4 : : : : : : : : : : : : : : : : : : / @ @ @ Q : : : : : : : : : : : : : : : : : : : : : / > > ",
"1 1 7 : : : : : : : : : : : : : : : : : R , @ @ @ S : : : : : : : : : : : : : : : : : : : : : / > > ",
"_ _ @ : : : : : : : : : : : : : : : : : T @ @ @ N : : : : : : : : : : : : : : : : : : : : : : / > > ",
"_ _ @ : : : : : : : : : : : : : : : : : 2 @ @ @ U : : : : : : : : : : : : : : : : : : : : : : / > > ",
"_ _ @ : : : : : : : : : : : : : : : : V # @ @ } K : : : : : : : : : : : : : : : : : : : : : : W > > ",
"_ _ @ : : : : : : : : : : : : : : : : X @ @ @ % : : : : : : : : : : : : : : : : : : : : : : : Y ; # ",
"_ _ @ : : : : : : : : : : : : : : : : : : : : : : : : : : : : : : : : : : : : : : : : : : : : Z @ @ ",
"_ _ @ : : : : : : : : : : : : : : : : : : : : : : : : : : : : : : : : : : : : : : : : : : : : ` @ @ ",
"_ _ @ : : : : : : : : : : : : : : : : : : : : : : : : : : : : : : : : : : : : : : : : : : : : ! @ @ ",
"< $ @ : : : : : : : : : : : : : : : : : : : : : : : : : : : : : : : : : : : : : : : : : : : : ! @ @ ",
"    @ : : : : : : : : : : : : : : : : : : : : : : : : : : : : : : : : : : : : : : : : : : : :  .@ @ ",
"$ $ @ : : : : : : : : : : : : : : : : : : : : : : : : : : : : : : : : : : : : : : : : : : : : ] # @ ",
"$   @ : : : : : : : : : : : : : : : : : : : : : : : : : : : : : : : : : : : : : : : : : : : : { @ @ ",
"@ @ @ ; > - ' > > > ' ' H ) z z z z z z z z z ..` ! ! ! ! ! ! ! & m 8 / / / / / / / { { { / / & @ @ ",
"$ @ @ @ @ @ @ @ @ @ @ @ @ @ @ @ @ @ @ @ @ @ @ @ @ @ @ @ @ @ @ @ @ @ # # # # # # # # # @ # # # # @ @ ",
"+.$ @ # # # # @ @ @ # # # @ @ @ @ @ @ @ @ @ @ @ @ @ @ @ @ @ @ @ @ @ @ @ @ @ @ @ @ @ @ @ @ @ @ @ @ @ "};
