/* XPM */
static char * 7c_xpm[] = {
"35 35 50 1",
" 	c #8F8F8F",
".	c #D4B764",
"+	c #FFD200",
"@	c #C9B06E",
"#	c #FDD113",
"$	c #9C958A",
"%	c #B2A27F",
"&	c #E2C054",
"*	c #DEBC5A",
"=	c #B9A67A",
"-	c #98958B",
";	c #FCD01B",
">	c #F6CC30",
",	c #918F8E",
"'	c #C7AF70",
")	c #D3B765",
"!	c #EEC742",
"~	c #A59B85",
"{	c #AC9E82",
"]	c #EAC449",
"^	c #DABB5E",
"/	c #C3AB73",
"(	c #96928C",
"_	c #FACF22",
":	c #FBCF1F",
"<	c #C3AC73",
"[	c #DCBB5D",
"}	c #EBC447",
"|	c #B0A180",
"1	c #A89D84",
"2	c #F1C93B",
"3	c #D6B862",
"4	c #CCB26C",
"5	c #93918D",
"6	c #F9CF28",
"7	c #FED10E",
"8	c #9E9789",
"9	c #BFAA76",
"0	c #E4C053",
"a	c #E8C34D",
"b	c #BAA779",
"c	c #A39A86",
"d	c #FFD204",
"e	c #F7CD2D",
"f	c #92908E",
"g	c #D5B764",
"h	c #F7CC2F",
"i	c #A79C85",
"j	c #BBA779",
"k	c #ECC547",
"                                   ",
"                                   ",
"                                   ",
"                                   ",
"                                   ",
"                                   ",
"         .+++++++++++++.           ",
"         .+++++++++++++@           ",
"         .++++++++++++#$           ",
"                   %++&            ",
"                   *++=            ",
"                  -;+>,            ",
"                  '++)             ",
"                  !++~             ",
"                 {++]              ",
"                 ^++/              ",
"                (_+:(              ",
"                <++[               ",
"                }++|               ",
"               1++2                ",
"               3++4                ",
"              56+78                ",
"              9++0                 ",
"              a++b                 ",
"             cd+ef                 ",
"             )++g                  ",
"            ,h++i                  ",
"            j++k                   ",
"                                   ",
"                                   ",
"                                   ",
"                                   ",
"                                   ",
"                                   ",
"                                   "};
