/* XPM */
static char * 8_xpm[] = {
"50 50 130 2",
"  	c #40CA00",
". 	c #3BBD00",
"+ 	c #3EC400",
"@ 	c #3FC800",
"# 	c #3FC700",
"$ 	c #3FC900",
"% 	c #32A400",
"& 	c #39B700",
"* 	c #3ABB00",
"= 	c #3BBF00",
"- 	c #3CC100",
"; 	c #3DC300",
"> 	c #3DC200",
", 	c #3DC100",
"' 	c #3CC000",
") 	c #3BBC00",
"! 	c #38B400",
"~ 	c #36AF00",
"{ 	c #34A900",
"] 	c #33A600",
"^ 	c #31A100",
"/ 	c #2F9C00",
"( 	c #41CB00",
"_ 	c #40CB00",
": 	c #000000",
"< 	c #41CE00",
"[ 	c #3EC600",
"} 	c #3EC500",
"| 	c #36B000",
"1 	c #022200",
"2 	c #237A00",
"3 	c #31A200",
"4 	c #3DC400",
"5 	c #3BBE00",
"6 	c #35AD00",
"7 	c #2B9100",
"8 	c #134C00",
"9 	c #40CC00",
"0 	c #227900",
"a 	c #3CBF00",
"b 	c #32A300",
"c 	c #0A3600",
"d 	c #42D000",
"e 	c #2C9600",
"f 	c #3ABC00",
"g 	c #0E4300",
"h 	c #40C900",
"i 	c #41CF00",
"j 	c #268000",
"k 	c #37B300",
"l 	c #114500",
"m 	c #021C00",
"n 	c #073200",
"o 	c #1B6500",
"p 	c #38B500",
"q 	c #001600",
"r 	c #3EC700",
"s 	c #061E00",
"t 	c #309F00",
"u 	c #1D6600",
"v 	c #42D200",
"w 	c #207000",
"x 	c #298A00",
"y 	c #34AD00",
"z 	c #43D300",
"A 	c #2D9500",
"B 	c #0D3D00",
"C 	c #44D500",
"D 	c #257F00",
"E 	c #45D900",
"F 	c #2D9600",
"G 	c #48E200",
"H 	c #248000",
"I 	c #0D3B00",
"J 	c #031600",
"K 	c #298B00",
"L 	c #2B8E00",
"M 	c #2C9400",
"N 	c #2F9D00",
"O 	c #1B6400",
"P 	c #072F00",
"Q 	c #45DA00",
"R 	c #33A700",
"S 	c #1C6200",
"T 	c #2E9A00",
"U 	c #195C00",
"V 	c #44D600",
"W 	c #000D00",
"X 	c #298800",
"Y 	c #32A800",
"Z 	c #114700",
"` 	c #1D6C00",
" .	c #2B9300",
"..	c #0B3500",
"+.	c #185D00",
"@.	c #38B300",
"#.	c #040F00",
"$.	c #217400",
"%.	c #33A900",
"&.	c #217300",
"*.	c #0E4500",
"=.	c #185E00",
"-.	c #145200",
";.	c #0C3E00",
">.	c #2A8F00",
",.	c #104100",
"'.	c #114900",
").	c #052700",
"!.	c #092E00",
"~.	c #2F9B00",
"{.	c #1A6100",
"].	c #237800",
"^.	c #1F6E00",
"/.	c #35AC00",
"(.	c #1E6B00",
"_.	c #34AB00",
":.	c #1A5F00",
"<.	c #0C3B00",
"[.	c #2B9000",
"}.	c #0F4300",
"|.	c #1C6A00",
"1.	c #3AB900",
"2.	c #278400",
"3.	c #3ABA00",
"4.	c #37B100",
"5.	c #35AB00",
"6.	c #38B600",
"7.	c #36AE00",
"8.	c #39B800",
"9.	c #41CC00",
"    . + @ @ @ @ @ @ @ @ @ @ @ @ @ @ @ @ @ @ @ @ @ @ @ @ @ @ @ @ @ @ @ @ @ @ @ @ @ @ @ @ @ @ @ @ @ # ",
"@ @ @ + @ @ @ @ @ @ @ @ @ @ @ @ @ @ @ @ @ @ @ @ @ @ @ @ @ @ @ @ @ @ @ @ @ @ @ @ @ @ @ @ @ @ # # @ @ ",
"@ @ $ % & * = - + + ; > , ' ) & ! ~ { { { { ] ^ / / / / / / / / / / / / / / / / / / / / / / ^ , @ @ ",
"( $ _ : : : : : : : : : : : : : : : : : : : : : : : : : : : : : : : : : : : : : : : : : : : : > @ @ ",
"< $ @ : : : : : : : : : : : : : : : : : : : : : : : : : : : : : : : : : : : : : : : : : : : : [ @ @ ",
"< $ @ : : : : : : : : : : : : : : : : : : : : : : : : : : : : : : : : : : : : : : : : : : : : } @ @ ",
"< $ } : : : : : : : : : : : : : : : : : : : : : : : : : : : : : : : : : : : : : : : : : : : : ' @ # ",
"< $ > : : : : : : : : : : : : : : : : : : : : : : : : : : : : : : : : : : : : : : : : : : : : | } } ",
"< $ . : : : : : : : : : : : : : : : : : : : : : : : : : : : : : : : : : : : : : : : : : : : : / > > ",
"< $ . : : : : : : : : : : : : : : : : : : : : : : : : : : : : : : : : : : : : : : : : : : : : / > > ",
"< $ * : : : : : : : : : : : : : : : : 1 2 3 & , [ 4 5 6 7 8 : : : : : : : : : : : : : : : : : / > > ",
"9 9 # : : : : : : : : : : : : : : : 0 a @ @ @ @ @ @ @ @ @ # b c : : : : : : : : : : : : : : : / > > ",
"d @   : : : : : : : : : : : : : : e @ @ @ @ @ @ @ @ @ @ @ @ @ f g : : : : : : : : : : : : : : { } } ",
"h < i : : : : : : : : : : : : : j @ @ @ @ k 2 l m n o / [ @ @ @ p q : : : : : : : : : : : : : { r r ",
"@ d @ : : : : : : : : : : : : s ' @ @ @ t q : : : : : : u + @ @ @ j : : : : : : : : : : : : : { } } ",
"$ v @ : : : : : : : : : : : : w @ @ @ ) m : : : : : : : : x @ @ @ y : : : : : : : : : : : : : / > > ",
"$ z @ : : : : : : : : : : : : 7 @ @ @ A : : : : : : : : : B @ @ @ - : : : : : : : : : : : : : / > > ",
"$ C @ : : : : : : : : : : : : / @ @ @ D : : : : : : : : : : - @ @ @ q : : : : : : : : : : : : / > > ",
"  E @ : : : : : : : : : : : : F @ @ @ D : : : : : : : : : : - @ @ r : : : : : : : : : : : : : / > > ",
"_ G @ : : : : : : : : : : : : H @ @ @ A : : : : : : : : : I @ @ @ p : : : : : : : : : : : : : / > > ",
"< G @ : : : : : : : : : : : : I } @ @ ) J : : : : : : : : K @ @ @ L : : : : : : : : : : : : : / > > ",
"_ G @ : : : : : : : : : : : : : M @ @ @ N q : : : : : : O + @ @ ) P : : : : : : : : : : : : : / > > ",
"_ Q @ : : : : : : : : : : : : : J R @ @ @ k 2 g J P S T [ @ @ , U : : : : : : : : : : : : : : / > > ",
"$ V @ : : : : : : : : : : : : : : W X ' @ @ @ @ @ @ @ @ @ @ Y Z : : : : : : : : : : : : : : : / > > ",
"$ v @ : : : : : : : : : : : : : : : : ` & @ @ @ @ @ @ @ r  ...: : : : : : : : : : : : : : : : / > > ",
"@ d @ : : : : : : : : : : : : : : +.@.@ @ @ @ @ @ @ @ @ @ @ ; L #.: : : : : : : : : : : : : : / > > ",
"@ i @ : : : : : : : : : : : : : $.[ @ @ @ %.&.*.m ..=.7 - @ @ @ %.m : : : : : : : : : : : : : / > > ",
"@ i @ : : : : : : : : : : : : -.+ @ @ r 0 : : : : : : : ;.! @ @ @ F : : : : : : : : : : : : : / > > ",
"@ i @ : : : : : : : : : : : : R @ @ @ >.: : : : : : : : : ,.; @ @ [ '.: : : : : : : : : : : : / > > ",
"@ i @ : : : : : : : : : : : ).[ @ @ } !.: : : : : : : : : : ~.@ @ @ x : : : : : : : : : : : : / > > ",
"$ < @ : : : : : : : : : : : {.@ @ @ k : : : : : : : : : : : ].@ @ @ % : : : : : : : : : : : : / > > ",
"$ < @ : : : : : : : : : : : ^.@ @ @ /.: : : : : : : : : : : (.@ @ @ _.: : : : : : : : : : : : / > > ",
"$ < @ : : : : : : : : : : : :.@ @ @ k : : : : : : : : : : : ].@ @ @ b : : : : : : : : : : : : / > > ",
"h < v : : : : : : : : : : : <.@ @ @ } !.: : : : : : : : : : ~.@ @ @ M : : : : : : : : : : : : / > > ",
"9 9 d : : : : : : : : : : : : & @ @ @ [.: : : : : : : : : }.; @ @ @ |.: : : : : : : : : : : : / > > ",
"9 9 i : : : : : : : : : : : : X @ @ @ r 0 : : : : : : : ,.p @ @ @ 1.#.: : : : : : : : : : : : / > > ",
"_ _ @ : : : : : : : : : : : : m & @ @ @ @ { &.}.J P =.7 - @ @ @ # w : : : : : : : : : : : : : / > > ",
"_ _ @ : : : : : : : : : : : : : g f @ @ @ @ @ @ @ @ @ @ @ @ @ # 2.: : : : : : : : : : : : : : / > > ",
"_ _ @ : : : : : : : : : : : : : : n t [ @ @ @ @ @ @ @ @ @ @ & O : : : : : : : : : : : : : : : 7 > > ",
"_ _ @ : : : : : : : : : : : : : : : : ,.K R 3.> r + 5 4.T |.: : : : : : : : : : : : : : : : : b ; # ",
"_ _ @ : : : : : : : : : : : : : : : : : : : : : : : : : : : : : : : : : : : : : : : : : : : : 5.@ @ ",
"_ _ @ : : : : : : : : : : : : : : : : : : : : : : : : : : : : : : : : : : : : : : : : : : : : 6.@ @ ",
"_ _ @ : : : : : : : : : : : : : : : : : : : : : : : : : : : : : : : : : : : : : : : : : : : : ! @ @ ",
"< $ @ : : : : : : : : : : : : : : : : : : : : : : : : : : : : : : : : : : : : : : : : : : : : ! @ @ ",
"    @ : : : : : : : : : : : : : : : : : : : : : : : : : : : : : : : : : : : : : : : : : : : : 7.@ @ ",
"$ $ @ : : : : : : : : : : : : : : : : : : : : : : : : : : : : : : : : : : : : : : : : : : : : ] # @ ",
"$   @ : : : : : : : : : : : : : : : : : : : : : : : : : : : : : : : : : : : : : : : : : : : : { @ @ ",
"@ @ @ ; > - ' > > > ' ' 5 ) 1.1.1.1.1.1.1.1.1.8.6.! ! ! ! ! ! ! & k /./ / / / / / / { { { / / & @ @ ",
"$ @ @ @ @ @ @ @ @ @ @ @ @ @ @ @ @ @ @ @ @ @ @ @ @ @ @ @ @ @ @ @ @ @ # # # # # # # # # @ # # # # @ @ ",
"9.$ @ # # # # @ @ @ # # # @ @ @ @ @ @ @ @ @ @ @ @ @ @ @ @ @ @ @ @ @ @ @ @ @ @ @ @ @ @ @ @ @ @ @ @ @ "};
