/* XPM */
static char * 8c_xpm[] = {
"35 35 90 1",
" 	c #8F8F8F",
".	c #AA9E83",
"+	c #D8B961",
"@	c #EEC742",
"#	c #FACF24",
"$	c #FED10E",
"%	c #FACF22",
"&	c #F0C83E",
"*	c #DABA5E",
"=	c #AFA080",
"-	c #90908F",
";	c #D6B763",
">	c #FED207",
",	c #FFD200",
"'	c #DCBB5D",
")	c #92908E",
"!	c #D3B666",
"~	c #9D9689",
"{	c #FDD110",
"]	c #F2CA3A",
"^	c #C2AC74",
"/	c #A39986",
"(	c #94928D",
"_	c #A19987",
":	c #BEA977",
"<	c #EFC740",
"[	c #FFD204",
"}	c #A69A85",
"|	c #C0AA76",
"1	c #F6CC31",
"2	c #98958B",
"3	c #F0C83D",
"4	c #C8AF6F",
"5	c #CAB16E",
"6	c #D7B861",
"7	c #CEB36A",
"8	c #D2B567",
"9	c #C1AB75",
"0	c #C9B06E",
"a	c #9E9789",
"b	c #FDD113",
"c	c #F5CC32",
"d	c #97948C",
"e	c #F1C93C",
"f	c #A29987",
"g	c #A19888",
"h	c #BDA877",
"i	c #C6AE71",
"j	c #F9CE26",
"k	c #FBCF1F",
"l	c #CDB16C",
"m	c #B4A47D",
"n	c #F5CB34",
"o	c #F8CD2C",
"p	c #BAA779",
"q	c #9C9689",
"r	c #E9C44A",
"s	c #99948B",
"t	c #F4CB36",
"u	c #A49A86",
"v	c #A29A87",
"w	c #EBC648",
"x	c #F7CD2D",
"y	c #9F9888",
"z	c #D4B665",
"A	c #E4C053",
"B	c #90908E",
"C	c #DCBB5C",
"D	c #F1C93B",
"E	c #AA9D83",
"F	c #F7CD2E",
"G	c #96928C",
"H	c #FCD01B",
"I	c #E8C34C",
"J	c #E3BF54",
"K	c #DDBC5B",
"L	c #EEC743",
"M	c #EDC644",
"N	c #95918D",
"O	c #9B968A",
"P	c #E7C34E",
"Q	c #EAC548",
"R	c #9F9788",
"S	c #B6A47C",
"T	c #F1C93D",
"U	c #FED10B",
"V	c #FACF21",
"W	c #F2C93B",
"X	c #DFBC59",
"Y	c #B9A77A",
"                                   ",
"                                   ",
"                                   ",
"                                   ",
"                                   ",
"                                   ",
"            .+@#$%&*=              ",
"          -;>,,,,,,,,')            ",
"          !,,,,,,,,,,,*            ",
"         ~{,,]^/(_:<,,[}           ",
"         |,,12     (3,,4           ",
"         5,,6       7,,8           ",
"         9,,6       7,,0           ",
"         ab,cd     (&,[}           ",
"          7,,e9f(gh@,,;            ",
"           ij,,,,,,,kl             ",
"            mn,,,,,op-             ",
"          qr,,,,,,,,,@_            ",
"         st,,@:u(vpw,,xy           ",
"         z,,AB      C,,*           ",
"         D,,E       ~,,F           ",
"         k,,G        k,,B          ",
"         F,,E       ~,,H           ",
"         I,,JB      K,,L           ",
"         i,,,Mh/(fpw,,,l           ",
"         )M,,,,,,,,,,,eN           ",
"          OP,,,,,,,,,QR            ",
"            SKT%UVWXY-             ",
"                                   ",
"                                   ",
"                                   ",
"                                   ",
"                                   ",
"                                   ",
"                                   "};
