/* XPM */
static char * 9_xpm[] = {
"50 50 130 2",
"  	c #40CA00",
". 	c #3BBD00",
"+ 	c #3EC400",
"@ 	c #3FC800",
"# 	c #3FC700",
"$ 	c #3FC900",
"% 	c #32A400",
"& 	c #39B700",
"* 	c #3ABB00",
"= 	c #3BBF00",
"- 	c #3CC100",
"; 	c #3DC300",
"> 	c #3DC200",
", 	c #3DC100",
"' 	c #3CC000",
") 	c #3BBC00",
"! 	c #38B400",
"~ 	c #36AF00",
"{ 	c #34A900",
"] 	c #33A600",
"^ 	c #31A100",
"/ 	c #2F9C00",
"( 	c #41CB00",
"_ 	c #40CB00",
": 	c #000000",
"< 	c #41CE00",
"[ 	c #3EC600",
"} 	c #3EC500",
"| 	c #36B000",
"1 	c #061E00",
"2 	c #257F00",
"3 	c #32A500",
"4 	c #3ABA00",
"5 	c #36B100",
"6 	c #2A8C00",
"7 	c #114900",
"8 	c #40CC00",
"9 	c #227900",
"0 	c #3BBE00",
"a 	c #3EC700",
"b 	c #2D9200",
"c 	c #021C00",
"d 	c #42D000",
"e 	c #2D9500",
"f 	c #40C900",
"g 	c #41CF00",
"h 	c #278700",
"i 	c #34AB00",
"j 	c #1E6F00",
"k 	c #0D3B00",
"l 	c #052200",
"m 	c #145200",
"n 	c #34A600",
"o 	c #154E00",
"p 	c #298A00",
"q 	c #0E4300",
"r 	c #237800",
"s 	c #42D200",
"t 	c #32A000",
"u 	c #32A100",
"v 	c #185900",
"w 	c #031600",
"x 	c #43D300",
"y 	c #3DC400",
"z 	c #134A00",
"A 	c #217300",
"B 	c #44D500",
"C 	c #1B6500",
"D 	c #1F7200",
"E 	c #45D900",
"F 	c #248000",
"G 	c #2F9D00",
"H 	c #0F4300",
"I 	c #000D00",
"J 	c #48E200",
"K 	c #2C9400",
"L 	c #134C00",
"M 	c #298C00",
"N 	c #258100",
"O 	c #309E00",
"P 	c #45DA00",
"Q 	c #1E6B00",
"R 	c #37B300",
"S 	c #207000",
"T 	c #44D600",
"U 	c #052700",
"V 	c #2F9B00",
"W 	c #33A900",
"X 	c #165500",
"Y 	c #1B6400",
"Z 	c #278500",
"` 	c #104100",
" .	c #39B800",
"..	c #2E9B00",
"+.	c #34A800",
"@.	c #1F6D00",
"#.	c #0B3800",
"$.	c #298B00",
"%.	c #2D9800",
"&.	c #022200",
"*.	c #3AB900",
"=.	c #2A8F00",
"-.	c #001600",
";.	c #2B9200",
">.	c #0C3B00",
",.	c #2C9000",
"'.	c #268000",
").	c #34AD00",
"!.	c #1C6A00",
"~.	c #33A500",
"{.	c #135300",
"].	c #2E9800",
"^.	c #114700",
"/.	c #3ABC00",
"(.	c #36AE00",
"_.	c #206F00",
":.	c #35AD00",
"<.	c #32A300",
"[.	c #2B9300",
"}.	c #1D6600",
"|.	c #1E6800",
"1.	c #38B500",
"2.	c #092E00",
"3.	c #0B3500",
"4.	c #2B9100",
"5.	c #33A700",
"6.	c #35AB00",
"7.	c #38B600",
"8.	c #35AC00",
"9.	c #41CC00",
"    . + @ @ @ @ @ @ @ @ @ @ @ @ @ @ @ @ @ @ @ @ @ @ @ @ @ @ @ @ @ @ @ @ @ @ @ @ @ @ @ @ @ @ @ @ @ # ",
"@ @ @ + @ @ @ @ @ @ @ @ @ @ @ @ @ @ @ @ @ @ @ @ @ @ @ @ @ @ @ @ @ @ @ @ @ @ @ @ @ @ @ @ @ @ # # @ @ ",
"@ @ $ % & * = - + + ; > , ' ) & ! ~ { { { { ] ^ / / / / / / / / / / / / / / / / / / / / / / ^ , @ @ ",
"( $ _ : : : : : : : : : : : : : : : : : : : : : : : : : : : : : : : : : : : : : : : : : : : : > @ @ ",
"< $ @ : : : : : : : : : : : : : : : : : : : : : : : : : : : : : : : : : : : : : : : : : : : : [ @ @ ",
"< $ @ : : : : : : : : : : : : : : : : : : : : : : : : : : : : : : : : : : : : : : : : : : : : } @ @ ",
"< $ } : : : : : : : : : : : : : : : : : : : : : : : : : : : : : : : : : : : : : : : : : : : : ' @ # ",
"< $ > : : : : : : : : : : : : : : : : : : : : : : : : : : : : : : : : : : : : : : : : : : : : | } } ",
"< $ . : : : : : : : : : : : : : : : : : : : : : : : : : : : : : : : : : : : : : : : : : : : : / > > ",
"< $ . : : : : : : : : : : : : : : : : : : : : : : : : : : : : : : : : : : : : : : : : : : : : / > > ",
"< $ * : : : : : : : : : : : : : : : : 1 2 3 4 > } ) 5 6 7 : : : : : : : : : : : : : : : : : : / > > ",
"8 8 # : : : : : : : : : : : : : : : 9 0 @ @ @ @ @ @ @ @ a b c : : : : : : : : : : : : : : : : / > > ",
"d @   : : : : : : : : : : : : : : e @ @ @ @ @ @ @ @ @ @ @ @ | 1 : : : : : : : : : : : : : : : { } } ",
"f < g : : : : : : : : : : : : : h @ @ @ @ i j k l m 6 , @ @ @ n : : : : : : : : : : : : : : : { a a ",
"@ d @ : : : : : : : : : : : : o [ @ @ @ p : : : : : : q 4 @ @ @ r : : : : : : : : : : : : : : { } } ",
"$ s @ : : : : : : : : : : : : t @ @ @ u : : : : : : : : v [ @ @ 4 w : : : : : : : : : : : : : / > > ",
"$ x @ : : : : : : : : : : : w y @ @ # z : : : : : : : : : u @ @ @ A : : : : : : : : : : : : : / > > ",
"$ B @ : : : : : : : : : : : C @ @ @ ! : : : : : : : : : : D @ @ @ u : : : : : : : : : : : : : / > > ",
"  E @ : : : : : : : : : : : F @ @ @ G : : : : : : : : : : H @ @ @ > I : : : : : : : : : : : : / > > ",
"_ J @ : : : : : : : : : : : p @ @ @ K : : : : : : : : : : w @ @ @ @ L : : : : : : : : : : : : / > > ",
"< J @ : : : : : : : : : : : M @ @ @ K : : : : : : : : : : w @ @ @ @ A : : : : : : : : : : : : / > > ",
"_ J @ : : : : : : : : : : : N @ @ @ O : : : : : : : : : : H @ @ @ @ p : : : : : : : : : : : : / > > ",
"_ P @ : : : : : : : : : : : Q @ @ @ R : : : : : : : : : : S @ @ @ @ e : : : : : : : : : : : : / > > ",
"$ T @ : : : : : : : : : : : U [ @ @ # 7 : : : : : : : : : ^ @ @ @ @ V : : : : : : : : : : : : / > > ",
"$ s @ : : : : : : : : : : : : W @ @ @ ^ : : : : : : : : X } @ @ @ @ ^ : : : : : : : : : : : : / > > ",
"@ d @ : : : : : : : : : : : : Y @ @ @ @ Z : : : : : : `  .@ @ @ @ @ ^ : : : : : : : : : : : : / > > ",
"@ g @ : : : : : : : : : : : : : ..@ @ @ @ +.@.#.1 o $.- @ @ > @ @ @ %.: : : : : : : : : : : : / > > ",
"@ g @ : : : : : : : : : : : : : &.W @ @ @ @ @ @ @ @ @ @ @ *.M @ @ @ =.: : : : : : : : : : : : / > > ",
"@ g @ : : : : : : : : : : : : : : -.;.+ @ @ @ @ @ @ @ @ +.>.,.@ @ @ '.: : : : : : : : : : : : / > > ",
"@ g @ : : : : : : : : : : : : : : : : >.p ).0 } ; *.^ !.: : ~.@ @ @ v : : : : : : : : : : : : / > > ",
"$ < @ : : : : : : : : : : : : : : : : : : : : : : : : : : : ) @ @ ; -.: : : : : : : : : : : : / > > ",
"$ < @ : : : : : : : : : : : : : : : : : : : : : : : : : : {.@ @ @ +.: : : : : : : : : : : : : / > > ",
"$ < @ : : : : : : : : : : : : : : : : : : : : : : : : : : ].@ @ @ S : : : : : : : : : : : : : / > > ",
"f < s : : : : : : : : : : : : : : : : : : : : : : : : : ^.; @ @ /.I : : : : : : : : : : : : : / > > ",
"8 8 d : : : : : : : : : : : : : : : : : : : : : : : : &.(.@ @ @ _.: : : : : : : : : : : : : : / > > ",
"8 8 g : : : : : : : : : : : : : b 2 -.: : : : : : : ` :.@ @ @ <.: : : : : : : : : : : : : : : / > > ",
"_ _ @ : : : : : : : : : : : : : t @ ) [.}.k c H |.%.; @ @ @ 1.2.: : : : : : : : : : : : : : : / > > ",
"_ _ @ : : : : : : : : : : : : : t @ @ @ @ @ @ @ @ @ @ @ @ ~ 3.: : : : : : : : : : : : : : : : / > > ",
"_ _ @ : : : : : : : : : : : : : t @ @ @ @ @ @ @ @ @ @ > p -.: : : : : : : : : : : : : : : : : 4.> > ",
"_ _ @ : : : : : : : : : : : : : 2.@.b :. .- a + 4 5.'.2.: : : : : : : : : : : : : : : : : : : <.; # ",
"_ _ @ : : : : : : : : : : : : : : : : : : : : : : : : : : : : : : : : : : : : : : : : : : : : 6.@ @ ",
"_ _ @ : : : : : : : : : : : : : : : : : : : : : : : : : : : : : : : : : : : : : : : : : : : : 7.@ @ ",
"_ _ @ : : : : : : : : : : : : : : : : : : : : : : : : : : : : : : : : : : : : : : : : : : : : ! @ @ ",
"< $ @ : : : : : : : : : : : : : : : : : : : : : : : : : : : : : : : : : : : : : : : : : : : : ! @ @ ",
"    @ : : : : : : : : : : : : : : : : : : : : : : : : : : : : : : : : : : : : : : : : : : : : (.@ @ ",
"$ $ @ : : : : : : : : : : : : : : : : : : : : : : : : : : : : : : : : : : : : : : : : : : : : ] # @ ",
"$   @ : : : : : : : : : : : : : : : : : : : : : : : : : : : : : : : : : : : : : : : : : : : : { @ @ ",
"@ @ @ ; > - ' > > > ' ' 0 ) *.*.*.*.*.*.*.*.*. .7.! ! ! ! ! ! ! & R 8./ / / / / / / { { { / / & @ @ ",
"$ @ @ @ @ @ @ @ @ @ @ @ @ @ @ @ @ @ @ @ @ @ @ @ @ @ @ @ @ @ @ @ @ @ # # # # # # # # # @ # # # # @ @ ",
"9.$ @ # # # # @ @ @ # # # @ @ @ @ @ @ @ @ @ @ @ @ @ @ @ @ @ @ @ @ @ @ @ @ @ @ @ @ @ @ @ @ @ @ @ @ @ "};
