/* XPM */
static char * 9c_xpm[] = {
"35 35 92 2",
"  	c #8F8F8F",
". 	c #AB9E83",
"+ 	c #DABB5E",
"@ 	c #F1C93C",
"# 	c #FBCF1F",
"$ 	c #FCD017",
"% 	c #F4CB35",
"& 	c #DFBE58",
"* 	c #B6A47C",
"= 	c #92908E",
"- 	c #D7B861",
"; 	c #FFD200",
"> 	c #E0BE57",
", 	c #94928D",
"' 	c #DCBB5C",
") 	c #E3BF54",
"! 	c #90908F",
"~ 	c #B8A57B",
"{ 	c #E8C34D",
"] 	c #B5A37D",
"^ 	c #98958B",
"/ 	c #93918D",
"( 	c #A89D84",
"_ 	c #D4B764",
": 	c #FED10E",
"< 	c #C1AB75",
"[ 	c #E5C150",
"} 	c #E2BF55",
"| 	c #BDA877",
"1 	c #FCD01B",
"2 	c #A29A87",
"3 	c #EBC447",
"4 	c #B0A17F",
"5 	c #9B958A",
"6 	c #F7CD2E",
"7 	c #D6B763",
"8 	c #D2B566",
"9 	c #E4C152",
"0 	c #90908E",
"a 	c #FDD115",
"b 	c #A29987",
"c 	c #EBC648",
"d 	c #F2CA3A",
"e 	c #E9C34B",
"f 	c #E1BF57",
"g 	c #BBA879",
"h 	c #F8CD2C",
"i 	c #C0AA75",
"j 	c #E7C34E",
"k 	c #B5A47D",
"l 	c #97948C",
"m 	c #A79C84",
"n 	c #D3B765",
"o 	c #FDD110",
"p 	c #FED10B",
"q 	c #E7C24F",
"r 	c #D8B961",
"s 	c #FBCF1E",
"t 	c #E4C053",
"u 	c #DFBC59",
"v 	c #A99C83",
"w 	c #F6CC31",
"x 	c #B7A57C",
"y 	c #E0BE58",
"z 	c #F5CB34",
"A 	c #FACE25",
"B 	c #EAC449",
"C 	c #BFAA76",
"D 	c #BEA977",
"E 	c #EDC644",
"F 	c #D8B960",
"G 	c #92918E",
"H 	c #F8CD2B",
"I 	c #CCB26C",
"J 	c #F9CE26",
"K 	c #D2B567",
"L 	c #DDBC5B",
"M 	c #DBBB5E",
"N 	c #B9A67A",
"O 	c #A59B85",
"P 	c #95918D",
"Q 	c #99948B",
"R 	c #B2A27F",
"S 	c #DCBB5D",
"T 	c #FED207",
"U 	c #F1C93B",
"V 	c #A69A85",
"W 	c #A39986",
"X 	c #9C958A",
"Y 	c #C4AD73",
"Z 	c #F3CB38",
"` 	c #DEBD5A",
"                                                                      ",
"                                                                      ",
"                                                                      ",
"                                                                      ",
"                                                                      ",
"                                                                      ",
"                        . + @ # $ % & *                               ",
"                    = - ; ; ; ; ; ; ; ; > ,                           ",
"                    ' ; ; ; ; ; ; ; ; ; ; ) !                         ",
"                  ~ ; ; ; { ] ^ / ( _ : ; ; <                         ",
"                  [ ; ; } !           | ; ; % !                       ",
"                ! 1 ; ; 2               3 ; ; 4                       ",
"                5 ; ; 6                 7 ; ; 8                       ",
"                5 ; ; 6                 7 ; ; 9                       ",
"                0 a ; ; b               c ; ; d                       ",
"                  e ; ; f             g ; ; ; h                       ",
"                  i ; ; ; j k l / m n o p ; ; 1                       ",
"                  0 q ; ; ; ; ; ; ; ; ; r ; ; s                       ",
"                    l t ; ; ; ; ; ; ; u v ; ; w                       ",
"                        x y z $ A B C   D ; ; E                       ",
"                                        F ; ; +                       ",
"                                      G H ; ; i                       ",
"                                      I ; ; J ,                       ",
"                                    ~ a ; ; K                         ",
"                    L M N O P Q R S T ; ; U ,                         ",
"                    [ ; ; ; ; ; ; ; ; ; w V                           ",
"                    [ ; ; ; ; ; ; ; ; e W                             ",
"                    X Y t d s s Z ` N                                 ",
"                                                                      ",
"                                                                      ",
"                                                                      ",
"                                                                      ",
"                                                                      ",
"                                                                      ",
"                                                                      "};
