/* XPM */
static char * enemy_shoot_l_xpm[] = {
"50 50 212 2",
"  	c #000000",
". 	c #121212",
"+ 	c #171717",
"@ 	c #181818",
"# 	c #141414",
"$ 	c #101010",
"% 	c #0F0F0F",
"& 	c #0E0E0E",
"* 	c #111111",
"= 	c #131313",
"- 	c #0D0D0D",
"; 	c #040404",
"> 	c #161616",
", 	c #0C0C0C",
"' 	c #0B0B0B",
") 	c #050505",
"! 	c #212121",
"~ 	c #070707",
"{ 	c #090909",
"] 	c #202020",
"^ 	c #363636",
"/ 	c #373737",
"( 	c #393939",
"_ 	c #323232",
": 	c #2F2F2F",
"< 	c #2B2B2B",
"[ 	c #262626",
"} 	c #282828",
"| 	c #272727",
"1 	c #232323",
"2 	c #242424",
"3 	c #222222",
"4 	c #292929",
"5 	c #2D2D2D",
"6 	c #303030",
"7 	c #353535",
"8 	c #3B3B3B",
"9 	c #3A3A3A",
"0 	c #383838",
"a 	c #343434",
"b 	c #2C2C2C",
"c 	c #464646",
"d 	c #151515",
"e 	c #2E2E2E",
"f 	c #313131",
"g 	c #252525",
"h 	c #3F3F3F",
"i 	c #404040",
"j 	c #3C3C3C",
"k 	c #333333",
"l 	c #2A2A2A",
"m 	c #3D3D3D",
"n 	c #424242",
"o 	c #444444",
"p 	c #434343",
"q 	c #414141",
"r 	c #3E3E3E",
"s 	c #1D1D1D",
"t 	c #1C1C1C",
"u 	c #010101",
"v 	c #1A1A1A",
"w 	c #5F5F5F",
"x 	c #BDBDBD",
"y 	c #9D9D9D",
"z 	c #020202",
"A 	c #454545",
"B 	c #484848",
"C 	c #ABABAB",
"D 	c #FFFFFF",
"E 	c #DFDFDF",
"F 	c #6C6C6C",
"G 	c #848484",
"H 	c #657AC0",
"I 	c #B4C3FF",
"J 	c #BDC9FF",
"K 	c #F4F4F4",
"L 	c #9B9B9B",
"M 	c #E9E9E9",
"N 	c #4D68B6",
"O 	c #397AFD",
"P 	c #2776FF",
"Q 	c #1D74FF",
"R 	c #CBCBCB",
"S 	c #AFAFAF",
"T 	c #5266A3",
"U 	c #497FFB",
"V 	c #3A7CFF",
"W 	c #8FA9FF",
"X 	c #AEAEAE",
"Y 	c #B0B8DC",
"Z 	c #C2CEFF",
"` 	c #ADADAD",
" .	c #7E7E7E",
"..	c #FEFEFE",
"+.	c #E8E8E8",
"@.	c #494949",
"#.	c #F0F0F0",
"$.	c #949494",
"%.	c #493B25",
"&.	c #816225",
"*.	c #1F1F1F",
"=.	c #C3C3C3",
"-.	c #DADADA",
";.	c #CCCCCC",
">.	c #ECECEC",
",.	c #A5A5A5",
"'.	c #402F0B",
").	c #A27A21",
"!.	c #D4A01B",
"~.	c #806121",
"{.	c #080808",
"].	c #060606",
"^.	c #8C8C8C",
"/.	c #E0E0E0",
"(.	c #F9F9F9",
"_.	c #C9C9C9",
":.	c #D0D0D0",
"<.	c #F1F1F1",
"[.	c #B3B3B3",
"}.	c #41300C",
"|.	c #D4A01A",
"1.	c #030303",
"2.	c #8E8E8E",
"3.	c #DDDDDD",
"4.	c #F5F5F5",
"5.	c #C4C4C4",
"6.	c #816224",
"7.	c #999999",
"8.	c #BBBBBB",
"9.	c #979797",
"0.	c #6F6F6F",
"a.	c #4A4A4A",
"b.	c #6E6E6E",
"c.	c #B0B0B0",
"d.	c #FCFCFC",
"e.	c #F6F6F6",
"f.	c #EBF0F3",
"g.	c #EEEEEE",
"h.	c #EFEFEF",
"i.	c #F7F7F7",
"j.	c #F8F8F8",
"k.	c #D3D3D3",
"l.	c #B7B7B7",
"m.	c #606060",
"n.	c #EAEAEA",
"o.	c #FBFBFB",
"p.	c #BCBCBC",
"q.	c #F2F2F2",
"r.	c #E2EAEE",
"s.	c #AED9ED",
"t.	c #B9D2DE",
"u.	c #E3E3E3",
"v.	c #D8D8D8",
"w.	c #191919",
"x.	c #ACACAC",
"y.	c #C5C5C5",
"z.	c #EBEBEB",
"A.	c #BABABA",
"B.	c #8ABACE",
"C.	c #59D6FE",
"D.	c #C7EAFA",
"E.	c #8A8A8A",
"F.	c #E2E2E2",
"G.	c #E1E1E1",
"H.	c #8D8D8D",
"I.	c #3E5D6A",
"J.	c #59D1F8",
"K.	c #AAD3E6",
"L.	c #E6E6E6",
"M.	c #626262",
"N.	c #1B1B1B",
"O.	c #4B9BB7",
"P.	c #C7D0D5",
"Q.	c #686868",
"R.	c #545454",
"S.	c #7D7D7D",
"T.	c #D7D7D7",
"U.	c #6D6D6D",
"V.	c #595959",
"W.	c #0A0A0A",
"X.	c #DBDBDB",
"Y.	c #565656",
"Z.	c #1E1E1E",
"`.	c #DEDEDE",
" +	c #D5D5D5",
".+	c #5E5E5E",
"++	c #CECECE",
"@+	c #AAAAAA",
"#+	c #818181",
"$+	c #898989",
"%+	c #B5B5B5",
"&+	c #E5E5E5",
"*+	c #FAFAFA",
"=+	c #DCDCDC",
"-+	c #E4E4E4",
";+	c #FDFDFD",
">+	c #838383",
",+	c #C6C6C6",
"'+	c #D6D6D6",
")+	c #7F7F7F",
"!+	c #4D4D4D",
"~+	c #D2D2D2",
"{+	c #5A5A5A",
"]+	c #CACACA",
"^+	c #CFCFCF",
"/+	c #D1D1D1",
"(+	c #616161",
"_+	c #7B7B7B",
":+	c #BEBEBE",
"<+	c #BFBFBF",
"[+	c #B8B8B8",
"}+	c #666666",
"  . + @   @ # $ % & % * . = * % - - - - & & &     ; # >   + , '   &     ) ! & ~ ~ { * . ]           ",
", ] ^ / ( _ : : < [ [ } | } } [ 1 1 1 ! 1 2 3 } 4 5 6 7 8 ( [ 2 8 9 0 7 6 a 4 ! 3 [ 5 _ b : c c c d ",
"  _ 6 6 e 5 e 6 f : 5 f : < | | [ [ | [ g [ [ [ | 4 } 5 / h h i i j / k 6 _ k 5 l < e k 0 m n o c * ",
"  e 5 l | | | l b b e 7 7 5 l } | [ g g g g g [ [ [ [ 4 : 0 i o p q j a 5 < b b < < < < 6 k 0 h p   ",
"  4 4 } | [ [ [ | [ l 5 : e e 5 l | [ g [ g g } 4 } | } 4 6 0 h n p q 9 6 4 | l < 5 5 b 5 5 6 / 0   ",
"  | l | } } [ g g [ [ [ } [ 4 b l } | } } g g | < < 4 } | < f / r n p h 0 5 | l < 5 e e e : f ^ r   ",
"  1 | | [ l 4 | g 2 2 g g g g 2 g [ [ } l [ g s . l l | g } 4 : / r n n h ( : b < 5 e 6 : ^ j h i   ",
"* 1 g 2 [ | } | [ g 2 g g g g [ g g g g 2 2 g t u v l } [ } 4 5 _ 9 i i h h 9 a e 5 6 k a ( n o p * ",
"- [ [ g g [ g g [ g g g g 2 g | g g g 2 1 w x y z t : e < b 6 a a / j r 8 8 m h ( a k / 9 8 i o A t ",
"& } g g g g 2 2 g [ [ [ [ g g [ [ g g B C D D E ) F G ( a 6 k ( j ( ( 9 9 9 m i i r j j i q q A c t ",
", [ g [ g g g 2 2 g [ } | g 2 | [ g g H I J D K } L M m 8 7 f a 0 ( ( ( 8 j r h i n p o A A c c c s ",
", g g [ g g g [ g 2 g } } g 2 [ g 1 N O P Q J D R K K S m j a e _ / 8 0 ^ 0 r i i i q A c c c c c s ",
", g [ [ [ [ g | [ 2 2 2 1 2 1 g 2 1 T U V W D D D D K X 0 j 9 _ 6 a ( 0 a k 9 r r r h q o A c c c . ",
", g g [ [ g g g [ g g 1 3 1 1 2 g g w Y Z D D D D D K ` f 0 j 8 ^ 7 / 0 7 f f 0 8 m m m q p o c c ! ",
", 2 g g g | [ g g g 2 3 3 1 1 1 2 g g  .D D D D D ..+.5 < _ ( j j j 9 ( / a 6 f k / 8 h q p o A c . ",
"' [ | [ g } | g g [ g 2 1 3 1 1 g g g @.C D D D ..#.$.7 l l _ 0 j m 9 0 / / 7 f 5 6 ^ 8 h n p o A   ",
"' %.&.} ] *.] v *.! ] *.! ! ! 3 3 g g g h =.M -.;.>.,.a 5 | < f / ( 7 a a a k k k f k ^ 9 h q n p   ",
"'.).!.~.* {.].z ~ { { ' $ . * . = 2 g ^./.(._.:.<.<.[.b 4 } } < : k f : f _ 6 _ a / 8 8 0 j i i i   ",
"}.).|.~.. { ~ 1.A m { ~ 1.z z z ; 2.3.<.D D ..4.5.<.3.4 } } } } l : 5 < 5 6 6 f 7 m n q h i q h r   ",
", %.6.[ 1 3 3 7.E -.8.9.0.t a.b.c.d.D e.f.g.h.d.D i.j.k.l.| } } < f b | 4 l e ^ 8 i A A A o o q ( @ ",
"~ } } | } } | m.n.o.D o.g.p.-.q.D K n.r.s.t.K (.D k.u.(.o.v.| } l e 5 } } < e 7 8 i o o A o p n 9 w.",
"  } } } 4 l 4 } w x.y.-.z.q.(.g.:.C A.B.C.D.....i.E.7.F.#.4.` 4 } 4 4 4 4 < 5 f ^ j i n o p p p 8 w.",
"  [ [ [ } 4 4 < } | [ w [.G.y.H.] , z I.J.K.D D d.e.L.D o.u.M.< } } } } 4 l < 5 _ 0 r q n n n o m N.",
"  g [ [ [ [ | 4 | | } | } H.< b g N.% ! O.P.D D h.y.x y.x.m.< < } | [ } } 4 l l e 7 j i q q q p r t ",
"  g [ | | } | [ [ g [ [ [ } l b } 2 1 } 4 -.D D n.Q.R.1 2 | } | [ [ | } | } } } < _ 9 h q i i q n   ",
", g [ } } 4 4 | [ g g g g | } 4 4 [ } } S.g.D D T.U.V.1 2 [ | | g [ | 4 } [ [ [ [ < 7 m r m m i n   ",
"W.! | 4 l l } | [ } } | g g g g } } < l m.X.D D +.U.Y.3 1 g g g g g g g g g [ [ | } : ^ ^ a 7 9 r Z.",
"- 2 } } l < } | | } 4 4 | g g 1 g | < } [ 5.3.`. +F .+1 2 2 g [ g 2 1 1 1 2 g g [ } 4 5 5 b e a 9 > ",
"  e l } } 4 | [ | | } < } | [ } [ [ [ [ [ ++@+#+$+0.@.2 2 g [ | [ g 1 3 2 2 g g | } < b < 4 < : ^   ",
"  b 4 } [ [ [ g [ [ 4 : < 4 } < 4 } } 4 L./.;.T.y %+l.[ [ g [ | [ g 2 1 g g 2 g g } b e 6 e 5 : ^   ",
"  } | } 4 | | [ [ 2 [ l l g | } } } 0.X.D L.&+*+g.T.=+H.| g g [ g g 2 g g 2 2 g g [ 4 5 _ ^ / ( 9   ",
"  [ | [ } | | } } g g [ g g g [ | [.-+..D ;+>+,+M '+G.x 2 g g g g g g g g 1 2 [ [ g [ 4 e 7 0 0 8   ",
"  | l < 4 [ | } | g g [ [ | [ [ H.p.o.D D 3.5 2.q...#.G..+g g [ [ [ [ g g 2 g g g [ g g } 5 e 6 a   ",
", 3 5 e < } [ | | g 2 g | | | m.M i.d.D #.| 5 5 -...i./.y.g g [ | | | g g g g g g [ g g [ | [ l b   ",
", ! } l 4 [ g [ | } | [ [ | w k.L.>.=+)+o [ } l H.K z.3.y [ | [ [ [ [ g g g g g g [ g [ [ [ | 4 4   ",
", ! g | } [ [ g g | } | [ | m.l.#.<.!+l ] [ | } } H.:.D <.m.| [ g g g g g g g g g [ [ | [ [ } < b   ",
"- ! g l < l | [ g [ | g g } _.G.j.v.^ s g [ } 4 4 [ [ X.o.-.| | | [ [ g [ [ g g [ 4 4 4 } | [ < :   ",
", 1 l 6 : l [ [ [ } | | | } X.`.;+~+{+2 [ g } l l [ [ y...i.y | } } | | } | [ g [ 4 < b 4 4 } < 6   ",
", 3 l _ k l | | [ [ [ | [ H.]+d.o.p.2 | } | 4 l 4 [ [ H.K K y } | | | | 4 } [ g [ | l < 4 4 l l 6   ",
", 1 4 l } } [ | [ g g [ [ [ :.D 3.g g } } } } 4 } [ } m.X.*+q.G 4 } } | } | g 2 g | 4 l < l < 4 6   ",
"  } 4 < 4 } 4 } | | [ g [ y g.<.^.2 2 | | } } l < l < l p.;+D <.F b } | [ g g g [ | } b b 5 e f 7 - ",
", 2 4 l l b < 4 4 < 4 [ y -.o.y.[ g g [ [ [ 4 : _ 5 < l l h.D ;+^+6 < | [ g [ [ | } 5 f k 7 a a / > ",
"- 2 } 4 l : e } | < < :.K j.;+[.5 } [ | [ [ b _ 7 _ 5 l b [...../+k 6 5 < } } g 4 < k ( m m ( a a d ",
"W.1 } } } 4 l [ g [ x D D D D /+k : l < b b 5 k k _ e b (+_+F.E :+a k 7 7 6 e : k 0 r i n q 8 / k # ",
"].3 } } } } 4 [ [ | | x :.:+/+0 ( a : : k ^ ^ ^ 7 6 l l ` ;.<+[+}+( ^ ^ ( a _ a 8 q q p n i m 9 / [ ",
"  [ [ | } 4 4 } } } 4 | 4 5 k / / k f k ^ 0 / / 7 5 } < e f a / 8 j 0 7 _ k / j i h r h h i h 8 0 # ",
"W.5 [ l b e < } l b e b 4 b < e 6 : f k 7 / / 0 0 f 5 e _ ^ 9 m m 9 ^ a k 7 m p p r ( 0 9 j j 9 / * ",
"# a 6 e _ 7 _ e : e f _ _ 6 e b b _ a 7 7 ( j m h m ( k : a 8 r m ( ^ k k ^ j p o h ( / 7 ^ / 0 / N.",
"N./ _ 6 : _ a _ 4 @ 1 5 e 5 b < 6 a 7 _ : k h n p o n 0 a _ ^ ( ^ e 5 l b 6 ^ 9 m n r 9 k 6 a ^ / # ",
"          $ $ $ 1.u 1.% * * . = > @ @ d d >               > @ w.+ = * $ . d @ v v     ].% # W.W.& ]."};
