/* XPM */
static char * enemy_down_xpm[] = {
"50 50 203 2",
"  	c #000000",
". 	c #121212",
"+ 	c #171717",
"@ 	c #181818",
"# 	c #141414",
"$ 	c #101010",
"% 	c #0F0F0F",
"& 	c #0E0E0E",
"* 	c #111111",
"= 	c #131313",
"- 	c #0D0D0D",
"; 	c #040404",
"> 	c #161616",
", 	c #0C0C0C",
"' 	c #0B0B0B",
") 	c #050505",
"! 	c #212121",
"~ 	c #070707",
"{ 	c #090909",
"] 	c #202020",
"^ 	c #363636",
"/ 	c #373737",
"( 	c #393939",
"_ 	c #323232",
": 	c #2F2F2F",
"< 	c #2B2B2B",
"[ 	c #262626",
"} 	c #282828",
"| 	c #272727",
"1 	c #232323",
"2 	c #242424",
"3 	c #222222",
"4 	c #292929",
"5 	c #2D2D2D",
"6 	c #303030",
"7 	c #353535",
"8 	c #3B3B3B",
"9 	c #3A3A3A",
"0 	c #383838",
"a 	c #343434",
"b 	c #2C2C2C",
"c 	c #464646",
"d 	c #151515",
"e 	c #2E2E2E",
"f 	c #313131",
"g 	c #252525",
"h 	c #3F3F3F",
"i 	c #404040",
"j 	c #3C3C3C",
"k 	c #333333",
"l 	c #2A2A2A",
"m 	c #3D3D3D",
"n 	c #424242",
"o 	c #444444",
"p 	c #434343",
"q 	c #414141",
"r 	c #3E3E3E",
"s 	c #494949",
"t 	c #8C8C8C",
"u 	c #8D8D8D",
"v 	c #818181",
"w 	c #7F7F7F",
"x 	c #C5C5C5",
"y 	c #E1E1E1",
"z 	c #DBDBDB",
"A 	c #B2B2B2",
"B 	c #636363",
"C 	c #010101",
"D 	c #454545",
"E 	c #1C1C1C",
"F 	c #686868",
"G 	c #DADADA",
"H 	c #FFFFFF",
"I 	c #F7F7F7",
"J 	c #BFBFBF",
"K 	c #939DC8",
"L 	c #C2CEFF",
"M 	c #F4F6FF",
"N 	c #899EEA",
"O 	c #050608",
"P 	c #1D1D1D",
"Q 	c #5F5F5F",
"R 	c #879DED",
"S 	c #8EA8FF",
"T 	c #BDCAFF",
"U 	c #8FA8FF",
"V 	c #94ACFF",
"W 	c #6890FF",
"X 	c #1F74FF",
"Y 	c #5F89F8",
"Z 	c #9EACE4",
"` 	c #A5B8FF",
" .	c #437FFF",
"..	c #1272FF",
"+.	c #1C74FF",
"@.	c #1D74FF",
"#.	c #1572FF",
"$.	c #89A3FC",
"%.	c #5F616A",
"&.	c #ABABAB",
"*.	c #9DB2FF",
"=.	c #7195FF",
"-.	c #5285FF",
";.	c #A1B5FF",
">.	c #8EA7FF",
",.	c #EEEEEE",
"'.	c #838383",
").	c #E1E6FF",
"!.	c #BEBEBE",
"~.	c #7A7A7A",
"{.	c #C9C9C9",
"].	c #DCDCDC",
"^.	c #D1D1D1",
"/.	c #B3B3B3",
"(.	c #666666",
"_.	c #A3A3A3",
":.	c #A5A5A5",
"<.	c #BABABA",
"[.	c #B1B1B1",
"}.	c #797979",
"|.	c #B6B6B6",
"1.	c #DFDFDF",
"2.	c #F0F0F0",
"3.	c #CFEEFA",
"4.	c #D5F2FE",
"5.	c #E5E5E5",
"6.	c #CFCFCF",
"7.	c #B7B7B7",
"8.	c #FDFDFD",
"9.	c #FEFEFE",
"0.	c #D2DADC",
"a.	c #95E1FF",
"b.	c #49D5FF",
"c.	c #B4E9FF",
"d.	c #CBE7F3",
"e.	c #D0D0D0",
"f.	c #CCCCCC",
"g.	c #D7F0FA",
"h.	c #65D9FF",
"i.	c #0CD2FF",
"j.	c #52D6FF",
"k.	c #C6E4ED",
"l.	c #C6C6C6",
"m.	c #A2E2FD",
"n.	c #49D6FF",
"o.	c #AFE7FF",
"p.	c #F2F2F2",
"q.	c #9E9E9E",
"r.	c #191919",
"s.	c #9D9D9D",
"t.	c #CDCDCD",
"u.	c #F1F9FB",
"v.	c #EBEBEB",
"w.	c #DEDEDE",
"x.	c #FBFBFB",
"y.	c #BDBDBD",
"z.	c #EFEFEF",
"A.	c #D4D4D4",
"B.	c #ACACAC",
"C.	c #1B1B1B",
"D.	c #535353",
"E.	c #8B8B8B",
"F.	c #C3C3C3",
"G.	c #080808",
"H.	c #8A8A8A",
"I.	c #030303",
"J.	c #E0E0E0",
"K.	c #4A4A4A",
"L.	c #EDEDED",
"M.	c #FCFCFC",
"N.	c #0A0A0A",
"O.	c #020202",
"P.	c #656565",
"Q.	c #767676",
"R.	c #E7E7E7",
"S.	c #1E1E1E",
"T.	c #858585",
"U.	c #C0C0C0",
"V.	c #989898",
"W.	c #F4F4F4",
"X.	c #626262",
"Y.	c #DDDDDD",
"Z.	c #606060",
"`.	c #E4E4E4",
" +	c #FAFAFA",
".+	c #5B5B5B",
"++	c #929292",
"@+	c #C4C4C4",
"#+	c #F1F1F1",
"$+	c #D7D7D7",
"%+	c #1F1F1F",
"&+	c #B9B9B9",
"*+	c #4B4B4B",
"=+	c #C2C2C2",
"-+	c #F3F3F3",
";+	c #ECECEC",
">+	c #ADADAD",
",+	c #646464",
"'+	c #D8D8D8",
")+	c #060606",
"!+	c #D3D3D3",
"~+	c #F9F9F9",
"{+	c #1A1A1A",
"  . + @   @ # $ % & % * . = * % - - - - & & &     ; # >   + , '   &     ) ! & ~ ~ { * . ]           ",
", ] ^ / ( _ : : < [ [ } | } } [ 1 1 1 ! 1 2 3 } 4 5 6 7 8 ( [ 2 8 9 0 7 6 a 4 ! 3 [ 5 _ b : c c c d ",
"  _ 6 6 e 5 e 6 f : 5 f : < | | [ [ | [ g [ [ [ | 4 } 5 / h h i i j / k 6 _ k 5 l < e k 0 m n o c * ",
"  e 5 l | | | l b b e 7 7 5 l } | [ g g g g g [ [ [ [ 4 : 0 i o p q j a 5 < b b < < < < 6 k 0 h p   ",
"  4 4 } | [ [ [ | [ l 5 : e e 5 l | [ g [ g g } 4 } | } 4 6 0 h n p q 9 6 4 | l < 5 5 b 5 5 6 / 0   ",
"  | l | } } [ g g [ [ [ } [ 4 b l } | } } g g | < < 4 } | < f / r n p h 0 5 | l < 5 e e e : f ^ r   ",
"  1 | | [ l 4 | g 2 2 g g g g 2 g [ [ } l [ g g 4 b l | g } 4 : / r n n h ( : b < 5 e 6 : ^ j h i   ",
"* 1 g 2 [ | } | [ g 2 g g g g [ g g g g 2 2 s t u v l } ' 2 4 5 _ 9 i i h h 9 a e 5 6 k a ( n o p * ",
"- [ [ g g [ g g [ g g g g 2 g | g g g 2 ( w x y y z A B C 1 6 a a / j r 8 8 m h ( a k / 9 8 i o D E ",
"& } g g g g 2 2 g [ [ [ [ g g [ [ g g 2 F G H H H H I J C [ k ( j ( ( 9 9 9 m i i r j j i q q D c E ",
", [ g [ g g g 2 2 g [ } | g 2 | [ g g s K L H H H H M N O l f a 0 ( ( ( 8 j r h i n p o D D c c c P ",
", g g [ g g g [ g 2 g } } g 2 [ g 1 2 Q R S T U V W X Y g k a e _ / 8 0 ^ 0 r i i i q D c c c c c P ",
", g [ [ [ [ g | [ 2 2 2 1 2 1 g 2 1 2 Q Z `  ...+.@.#.$.%.( 9 _ 6 a ( 0 a k 9 r r r h q o D c c c . ",
", g g [ [ g g g [ g g 1 3 1 1 2 g g 2 s &.H *.=.-.;.>.,.'.0 j 8 ^ 7 / 0 7 f f 0 8 m m m q p o c c ! ",
", 2 g g g | [ g g g 2 3 3 1 1 1 2 g g g F G H ).M M I !.< _ ( j j j 9 ( / a 6 f k / 8 h q p o D c . ",
"' [ | [ g } | g g [ g 2 1 3 1 1 g g g g 9 ~.{.].z ^./.(.l l _ 0 j m 9 0 / / 7 f 5 6 ^ 8 h n p o D   ",
"' [ 4 } g [ [ g g | [ g 1 1 1 2 2 g g g 1 _.:.<.[.}.a a 5 | < f / ( 7 a a a k k k f k ^ 9 h q n p   ",
"' | 4 4 } | [ [ [ [ | | g g 2 g g [ g |.1.2.3.4.5.6.< b 4 } } < : k f : f _ 6 _ a / 8 8 0 j i i i   ",
", | } 4 l 4 } 4 | [ [ [ [ g g g g [ 7.8.9.0.a.b.c.d.e.4 } } } } l : 5 < 5 6 6 f 7 m n q h i q h r   ",
", [ } [ } 4 } 4 } | g 2 [ [ g 2 1 2 f.9.H g.h.i.j.k.G l.< | } } < f b | 4 l e ^ 8 i D D D o o q ( @ ",
"~ } } | } } | 4 } [ [ g g g g g 2 t 2.8.8.,.m.n.o.2.p.q.l [ | } l e 5 } } < e 7 8 i o o D o p n 9 r.",
"  } } } 4 l 4 } [ g g g [ [ [ [ g s.I 2.{.z t.u.v.w.x./.4 4 l 4 } 4 4 4 4 < 5 f ^ j i n o p p p 8 r.",
"  [ [ [ } 4 4 < } | [ [ | [ | | g 7.x.x 3 y.e.z.A.^.x.B.} b 5 < } } } } 4 l < 5 _ 0 r q n n n o m C.",
"  g [ [ [ [ | 4 | | } | } } g g D.G 8.x [ 3 E.z.A.F.x.G /.4 < < } | [ } } 4 l l e 7 j i q q q p r E ",
"  g [ | | } | [ [ g [ [ [ 3 * G.- H.2.x 3 & r 2.z.f.8.9.x./.} | [ [ | } | } } } < _ 9 h q i i q n   ",
", g [ } } 4 4 | [ g g g g | >   I.o t.J.K.    f L.{.M.9.8.B.| | g [ | 4 } [ [ [ [ < 7 m r m m i n   ",
"N.! | 4 l l } | [ } } | g g P O.  I.P.z v       g Q.R.8.H y.g g g g g g g g [ [ | } : ^ ^ a 7 9 r S.",
"- 2 } } l < } | | } 4 4 | g 3 , C , P T.H.$ C     # U.8.H y.g [ g 2 1 1 1 2 g g [ } 4 5 5 b e a 9 > ",
"  e l } } 4 | [ | | } < } | [ g r.1 1 [ [ | V.d     P W.H y.[ | [ g 1 3 2 2 g g | } < b < 4 < : ^   ",
"  b 4 } [ [ [ g [ [ 4 : < 4 } < 4 } } 4 } } f.H +     X.H Y.[ | [ g 2 1 g g 2 g g } b e 6 e 5 : ^   ",
"  } | } 4 | | [ [ 2 [ l l g | } } } } l < Z.`.J.y.O.  O.y.e.g [ g g 2 g g 2 2 g g [ 4 5 _ ^ / ( 9   ",
"  [ | [ } | | } } g g [ g g g [ | [ [ [ | /. +1.1..+    I.++g g g g g g g 1 2 [ [ g [ 4 e 7 0 0 8   ",
"  | l < 4 [ | } | g g [ [ | [ [ | [ [ g [ u I @+#+$+~     C %+[ [ [ [ g g 2 g g g [ g g } 5 e 6 a   ",
", 3 5 e < } [ | | g 2 g | | | | | | [ [ [ y.H &+2.$+*+      r.[ | | | g g g g g g [ g g [ | [ l b   ",
", ! } l 4 [ g [ | } | [ [ | g | | | | g g B.M.=+p.$+Z.=   C . 2 [ [ [ g g g g g g [ g [ [ [ | 4 4   ",
", ! g | } [ [ g g | } | [ | | | 4 l < [ g B.M.Y.x.$+Z.[ E @ g [ g g g g g g g g g [ [ | [ [ } < b   ",
"- ! g l < l | [ g [ | g g } | [ } l b | g y.H 1.x.R.Q | 4 } | | | [ [ g [ [ g g [ 4 4 4 } | [ < :   ",
", 1 l 6 : l [ [ [ } | | | } | g [ [ [ g [ g y./.M. +/.} < 4 | | } } | | } | [ g [ 4 < b 4 4 } < 6   ",
", 3 l _ k l | | [ [ [ | [ < l [ g 2 2 | } | 4 u -+-+u 4 b 5 < } | | | | 4 } [ g [ | l < 4 4 l l 6   ",
", 1 4 l } } [ | [ g g [ [ [ | [ 2 g g } } } } u z.z.u } < e 6 5 4 } } | } | g 2 g | 4 l < l < 4 6   ",
"  } 4 < 4 } 4 } | | [ g [ [ [ g 2 2 2 | | } } u ;+p.u l l 5 f _ e b } | [ g g g [ | } b b 5 e f 7 - ",
", 2 4 l l b < 4 4 < 4 [ g [ g | [ g g [ [ [ 4 X.1. +>+l l b f 7 k 6 < | [ g [ [ | } 5 f k 7 a a / > ",
"- 2 } 4 l : e } | < < | | | } b 5 } [ | [ [ b ,+'+x.>+l b 5 k ^ 7 k 6 5 < } } g 4 < k ( m m ( a a d ",
"N.1 } } } 4 l [ g [ [ [ 4 4 b f k : l < b b 5 ,+'+x.>+b b : _ a 7 a k 7 7 6 e : k 0 r i n q 8 / k # ",
")+3 } } } } 4 [ [ | | | < 5 _ 0 ( a : : k ^ ^ P.!+~+>+l < < e _ / ( ^ ^ ( a _ a 8 q q p n i m 9 / [ ",
"  [ [ | } 4 4 } } } 4 | 4 5 k / / k f k ^ 0 / / P.>+} < e f a / 8 j 0 7 _ k / j i h r h h i h 8 0 # ",
"N.5 [ l b e < } l b e b 4 b < e 6 : f k 7 / / 0 0 f 5 e _ ^ 9 m m 9 ^ a k 7 m p p r ( 0 9 j j 9 / * ",
"# a 6 e _ 7 _ e : e f _ _ 6 e b b _ a 7 7 ( j m h m ( k : a 8 r m ( ^ k k ^ j p o h ( / 7 ^ / 0 / C.",
"C./ _ 6 : _ a _ 4 @ 1 5 e 5 b < 6 a 7 _ : k h n p o n 0 a _ ^ ( ^ e 5 l b 6 ^ 9 m n r 9 k 6 a ^ / # ",
"          $ $ $ I.C I.% * * . = > @ @ d d >               > @ r.+ = * $ . d @ {+{+    )+% # N.N.& )+"};
