/* XPM */
static char * enemy_shoot_r_xpm[] = {
"50 50 201 2",
"  	c #000000",
". 	c #121212",
"+ 	c #171717",
"@ 	c #181818",
"# 	c #141414",
"$ 	c #101010",
"% 	c #0F0F0F",
"& 	c #0E0E0E",
"* 	c #111111",
"= 	c #131313",
"- 	c #0D0D0D",
"; 	c #040404",
"> 	c #161616",
", 	c #0C0C0C",
"' 	c #0B0B0B",
") 	c #050505",
"! 	c #212121",
"~ 	c #070707",
"{ 	c #090909",
"] 	c #202020",
"^ 	c #363636",
"/ 	c #373737",
"( 	c #393939",
"_ 	c #323232",
": 	c #2F2F2F",
"< 	c #2B2B2B",
"[ 	c #262626",
"} 	c #282828",
"| 	c #272727",
"1 	c #232323",
"2 	c #242424",
"3 	c #222222",
"4 	c #292929",
"5 	c #2D2D2D",
"6 	c #303030",
"7 	c #353535",
"8 	c #3B3B3B",
"9 	c #3A3A3A",
"0 	c #383838",
"a 	c #343434",
"b 	c #2C2C2C",
"c 	c #464646",
"d 	c #151515",
"e 	c #2E2E2E",
"f 	c #313131",
"g 	c #252525",
"h 	c #3F3F3F",
"i 	c #404040",
"j 	c #3C3C3C",
"k 	c #333333",
"l 	c #2A2A2A",
"m 	c #3D3D3D",
"n 	c #424242",
"o 	c #444444",
"p 	c #060606",
"q 	c #434343",
"r 	c #414141",
"s 	c #080808",
"t 	c #1C1C1C",
"u 	c #8D8D8D",
"v 	c #808080",
"w 	c #3E3E3E",
"x 	c #7F7F7F",
"y 	c #C5C5C5",
"z 	c #E1E1E1",
"A 	c #DBDBDB",
"B 	c #B1B1B1",
"C 	c #606060",
"D 	c #686868",
"E 	c #DADADA",
"F 	c #FFFFFF",
"G 	c #E0E4F9",
"H 	c #B9BAC1",
"I 	c #4A4A4A",
"J 	c #ABABAB",
"K 	c #E7EBFF",
"L 	c #A1B5FF",
"M 	c #819EFB",
"N 	c #687DC0",
"O 	c #454545",
"P 	c #5F5F5F",
"Q 	c #CCCCCC",
"R 	c #6A91FF",
"S 	c #2575FF",
"T 	c #3879FA",
"U 	c #2A51A6",
"V 	c #D4DBFF",
"W 	c #6F94FD",
"X 	c #728EE4",
"Y 	c #2D3A62",
"Z 	c #1D1D1D",
"` 	c #494949",
" .	c #DADEF2",
"..	c #7A7E93",
"+.	c #F7F7F7",
"@.	c #BEBEBE",
"#.	c #B5B5B5",
"$.	c #CBCBCB",
"%.	c #E9E9E9",
"&.	c #EFEFEF",
"*.	c #9B9B9B",
"=.	c #EBEBEB",
"-.	c #F8F8F8",
";.	c #FEFEFE",
">.	c #E4E4E4",
",.	c #797979",
"'.	c #FDFDFD",
").	c #E5E5E5",
"!.	c #D2D2D2",
"~.	c #E8F7FF",
"{.	c #79DBFE",
"].	c #9D9D9D",
"^.	c #75D9FD",
"/.	c #838383",
"(.	c #A37529",
"_.	c #CF9321",
":.	c #916B33",
"<.	c #F3F3F3",
"[.	c #EDEDED",
"}.	c #A3A3A3",
"|.	c #D1D1D1",
"1.	c #616161",
"2.	c #010101",
"3.	c #030303",
"4.	c #0A0A0A",
"5.	c #A27321",
"6.	c #F9B007",
"7.	c #FFCD6B",
"8.	c #F4AD10",
"9.	c #936D38",
"0.	c #B2B2B2",
"a.	c #BDBDBD",
"b.	c #575757",
"c.	c #020202",
"d.	c #A27424",
"e.	c #F6AE0C",
"f.	c #FFD881",
"g.	c #EFA917",
"h.	c #946F3C",
"i.	c #D5D5D5",
"j.	c #E2E2E2",
"k.	c #E7E7E7",
"l.	c #7A7A7A",
"m.	c #1F1F1F",
"n.	c #191919",
"o.	c #1E1E1E",
"p.	c #A4772F",
"q.	c #B18031",
"r.	c #936F3B",
"s.	c #D0D0D0",
"t.	c #FCFCFC",
"u.	c #C0C0C0",
"v.	c #B6B6B6",
"w.	c #D7D7D7",
"x.	c #C1C1C1",
"y.	c #6C6C6C",
"z.	c #DDDDDD",
"A.	c #1B1B1B",
"B.	c #D8D8D8",
"C.	c #C4C4C4",
"D.	c #F4F4F4",
"E.	c #F1F1F1",
"F.	c #757575",
"G.	c #8C8C8C",
"H.	c #8A8A8A",
"I.	c #FAFAFA",
"J.	c #F6F6F6",
"K.	c #B3B3B3",
"L.	c #858585",
"M.	c #C6C6C6",
"N.	c #E8E8E8",
"O.	c #ADADAD",
"P.	c #CACACA",
"Q.	c #ACACAC",
"R.	c #C9C9C9",
"S.	c #FBFBFB",
"T.	c #959595",
"U.	c #F9F9F9",
"V.	c #F2F2F2",
"W.	c #D6D6D6",
"X.	c #BCBCBC",
"Y.	c #D3D3D3",
"Z.	c #6A6A6A",
"`.	c #8E8E8E",
" +	c #CDCDCD",
".+	c #B9B9B9",
"++	c #AEAEAE",
"@+	c #CECECE",
"#+	c #969696",
"$+	c #6B6B6B",
"%+	c #F5F5F5",
"&+	c #848484",
"*+	c #E0E0E0",
"=+	c #525252",
"-+	c #B0B0B0",
";+	c #7E7E7E",
">+	c #535353",
",+	c #747474",
"'+	c #979797",
")+	c #717171",
"!+	c #1A1A1A",
"  . + @   @ # $ % & % * . = * % - - - - & & &     ; # >   + , '   &     ) ! & ~ ~ { * . ]           ",
", ] ^ / ( _ : : < [ [ } | } } [ 1 1 1 ! 1 2 3 } 4 5 6 7 8 ( [ 2 8 9 0 7 6 a 4 ! 3 [ 5 _ b : c c c d ",
"  _ 6 6 e 5 e 6 f : 5 f : < | | [ ! | [ g [ [ [ | 4 } 5 / h h i i j / k 6 _ k 5 l < e k 0 m n o c * ",
"  e 5 l | | | l b b e 7 7 5 l } | p @ g g g g [ [ [ [ 4 : 0 i o q r j a 5 < b b < < < < 6 k 0 h q   ",
"  4 4 } | [ [ [ | [ l 5 : e e 5 g s t g [ g g } 4 } | } 4 6 0 h n q r 9 6 4 | l < 5 5 b 5 5 6 / 0   ",
"  | l | } } [ g g [ [ [ } [ 4 b l   c u u v g | < < 4 } | < f / w n q h 0 5 | l < 5 e e e : f ^ w   ",
"  1 | | [ l 4 | g 2 2 g g g g 2 9 x y z z A B C 4 b l | g } 4 : / w n n h ( : b < 5 e 6 : ^ j h i   ",
"* 1 g 2 [ | } | [ g 2 g g g g [ D E F F F F G H } 4 l } [ } 4 5 _ 9 i i h h 9 a e 5 6 k a ( n o q * ",
"- [ [ g g [ g g [ g g g g 2 g I J F F F F K L M N b : e < b 6 a a / j w 8 8 m h ( a k / 9 8 i o O t ",
"& } g g g g 2 2 g [ [ [ [ g g P Q F F F F K R S T U ^ ( a 6 k ( j ( ( 9 9 9 m i i w j j i r r O c t ",
", [ g [ g g g 2 2 g [ } | g 2 C Q F F F F F V W X Y ^ m 8 7 f a 0 ( ( ( 8 j w h i n q o O O c c c Z ",
", g g [ g g g [ g 2 g } } g 2 ` J F F F F F F  ...< k 9 m j a e _ / 8 0 ^ 0 w i i i r O c c c c c Z ",
", g [ [ [ [ g | [ 2 2 2 1 2 1 g D E F F F F +.@.[ 4 e k 0 j 9 _ 6 a ( 0 a k 9 w w w h r o O c c c . ",
", g g [ [ g g g [ g g 1 3 1 1 2 9 #.$.%.&.A B C | 4 4 b f 0 j 8 ^ 7 / 0 7 f f 0 8 m m m r q o c c ! ",
", 2 g g g | [ g g g 2 3 3 1 1 v *.=.%.-.;.>.g g l e : 5 < _ ( j j j 9 ( / a 6 f k / 8 h r q o O c . ",
"' [ | [ g } | g g [ g 2 1 3 1 v ,.-.'.F F F ).| < f / 7 l l _ 0 j m 9 0 / / 7 f 5 6 ^ 8 h n q o O   ",
"' [ 4 } g [ [ g g | [ g 1 1 1 v !.F F F ~.{.;.E } e a a 5 | < f / ( 7 a a a k k k f k ^ 9 h r n q   ",
"' | 4 4 } | [ [ [ [ | | g g 2 ].;.F F F ~.^.;.A /.] g ] 1 [ [ 4 b 6 e b e : 4 _ (._.:.8 0 j i i i   ",
", | } 4 l 4 } 4 | [ [ [ [ g g <.F [.}.F F |.x 1.g = ; 2.3.~ 4.4.& $ = > + > = 5.6.7.8.9.h i r h w   ",
", [ } [ } 4 } 4 } | g 2 [ [ 0.;.F a.v F z b.  t ) 3.            2.    c.3.3.- d.e.f.g.h.O o o r ( @ ",
"~ } } | } } | 4 } [ [ g g g i.F F j.k.F F A l.6 & = s 4.5 _ 6 l m.# ~ n.o.] | 7 p.q.r.o O o q n 9 n.",
"  } } } 4 l 4 } [ g g g [ [ s.F ;.F F F F t.<.@.J u.v.u.z z w.w.x.y.1 4 4 < 5 f ^ j i n o q q q 8 n.",
"  [ [ [ } 4 4 < } | [ [ | [ | s.0.z F F F k.].u s.'.F F F ;.&.z.u } } } 4 l < 5 _ 0 w r n n n o m A.",
"  g [ [ [ [ | 4 | | } | } } < b o B.F F F %.g | 4 C.=.D.E.].< < } | [ } } 4 l l e 7 j i r r r q w t ",
"  g [ | | } | [ [ g [ [ [ } l l F.0.;.F F s.[ | 4 4 P G.2 | } | [ [ | } | } } } < _ 9 h r i i r n   ",
", g [ } } 4 4 | [ g g g g | } 4 v H.I.F J.e l 4 } | 1 1 2 [ | | g [ | 4 } [ [ [ [ < 7 m w m m i n   ",
"4.! | 4 l l } | [ } } | g g g } l.H.'.;.I.K.4 l } g 1 3 1 g g g g g g g g g [ [ | } : ^ ^ a 7 9 w o.",
"- 2 } } l < } | | } 4 4 | g g 2 C L.v /.M.u 4 4 | [ 2 1 2 2 g [ g 2 1 1 1 2 g g [ } 4 5 5 b e a 9 > ",
"  e l } } 4 | [ | | } < } | [ } [ |.N.O.P.Q.4 4 | [ g 2 2 g [ | [ g 1 3 2 2 g g | } < b < 4 < : ^   ",
"  b 4 } [ [ [ g [ [ 4 : < 4 } < R.;.S.E F s.} } } | [ [ [ g [ | [ g 2 1 g g 2 g g } b e 6 e 5 : ^   ",
"  } | } 4 | | [ [ 2 [ l l g | I &.F t.K.D.%.u } | [ g [ | g g [ g g 2 g g 2 2 g g [ 4 5 _ ^ / ( 9   ",
"  [ | [ } | | } } g g [ g g g T.U.F '.R.=.V.u < | [ 2 2 2 g g g g g g g g 1 2 [ [ g [ 4 e 7 0 0 8   ",
"  | l < 4 [ | } | g g [ [ | [ u J.;.<.].E I.W.e < 4 | g 1 g g [ [ [ [ g g 2 g g g [ g g } 5 e 6 a   ",
", 3 5 e < } [ | | g 2 g | | | Q.'.F i.[ X.S.S.K.b l 4 | 2 g g [ | | | g g g g g g [ g g [ | [ l b   ",
", ! } l 4 [ g [ | } | [ [ | g Y.F ;.Q.g P k.S.O.} | } [ g [ | [ [ [ [ g g g g g g [ g [ [ [ | 4 4   ",
", ! g | } [ [ g g | } | [ | /.V.F '.K.[ P !.S.W.} | | [ | | | [ g g g g g g g g g [ [ | [ [ } < b   ",
"- ! g l < l | [ g [ | g g } Z.W.'.E.`.| g X.t.I.K.[ [ | 4 } | | | [ [ g [ [ g g [ 4 4 4 } | [ < :   ",
", 1 l 6 : l [ [ [ } | | | } |  +F s.[ g [ G.&.+.u [ [ } < 4 | | } } | | } | [ g [ 4 < b 4 4 } < 6   ",
", 3 l _ k l | | [ [ [ | [ < 1.!.t.Q.2 | } | s.F s.[ [ 4 b 5 < } | | | | 4 } [ g [ | l < 4 4 l l 6   ",
", 1 4 l } } [ | [ g g [ [ [ C k.S.Q.g } } } u +.&.u } } < e 6 5 4 } } | } | g 2 g | 4 l < l < 4 6   ",
"  } 4 < 4 } 4 } | | [ g [ [ K.S.S.0.2 | | } K.I.t.K.< l l 5 f _ e b } | [ g g g [ | } b b 5 e f 7 - ",
", 2 4 l l b < 4 4 < 4 [ g [ Q.S.k.P g [ [ [ C k.S.O.< l l b f 7 k 6 < | [ g [ [ | } 5 f k 7 a a / > ",
"- 2 } 4 l : e } | < < | | | .+I.!.C [ | [ [ 1.Y.U.++5 l b 5 k ^ 7 k 6 5 < } } g 4 < k ( m m ( a a d ",
"4.1 } } } 4 l [ g [ [ [ 4 Z.@.A @+@.l < b b 5 #+z.@.e b b : _ a 7 a k 7 7 6 e : k 0 w i n r 8 / k # ",
"p 3 } } } } 4 [ [ | | | < $+@.%+F F A : k ^ &+k.'.F a.l < < e _ / ( ^ ^ ( a _ a 8 r r q n i m 9 / [ ",
"  [ [ | } 4 4 } } } 4 | 4 @.*+u.W.N.M.k ^ 0 =+-+*+z x.< e f a / 8 j 0 7 _ k / j i h w h h i h 8 0 # ",
"4.5 [ l b e < } l b e b 4 b 1.`.`.;+++k 7 / / >+,+'+)+e _ ^ 9 m m 9 ^ a k 7 m q q w ( 0 9 j j 9 / * ",
"# a 6 e _ 7 _ e : e f _ _ 6 e b b _ a 7 7 ( j m h m ( k : a 8 w m ( ^ k k ^ j q o h ( / 7 ^ / 0 / A.",
"A./ _ 6 : _ a _ 4 @ 1 5 e 5 b < 6 a 7 _ : k h n q o n 0 a _ ^ ( ^ e 5 l b 6 ^ 9 m n w 9 k 6 a ^ / # ",
"          $ $ $ 3.2.3.% * * . = > @ @ d d >               > @ n.+ = * $ . d @ !+!+    p % # 4.4.& p "};
