/* XPM */
static char * enemy_shoot_d_xpm[] = {
"50 50 202 2",
"  	c #000000",
". 	c #121212",
"+ 	c #171717",
"@ 	c #181818",
"# 	c #141414",
"$ 	c #101010",
"% 	c #0F0F0F",
"& 	c #0E0E0E",
"* 	c #111111",
"= 	c #131313",
"- 	c #0D0D0D",
"; 	c #040404",
"> 	c #161616",
", 	c #0C0C0C",
"' 	c #0B0B0B",
") 	c #050505",
"! 	c #212121",
"~ 	c #070707",
"{ 	c #090909",
"] 	c #202020",
"^ 	c #363636",
"/ 	c #373737",
"( 	c #393939",
"_ 	c #323232",
": 	c #2F2F2F",
"< 	c #2B2B2B",
"[ 	c #262626",
"} 	c #282828",
"| 	c #272727",
"1 	c #232323",
"2 	c #242424",
"3 	c #222222",
"4 	c #292929",
"5 	c #2D2D2D",
"6 	c #303030",
"7 	c #353535",
"8 	c #3B3B3B",
"9 	c #3A3A3A",
"0 	c #383838",
"a 	c #343434",
"b 	c #2C2C2C",
"c 	c #464646",
"d 	c #151515",
"e 	c #2E2E2E",
"f 	c #313131",
"g 	c #252525",
"h 	c #3F3F3F",
"i 	c #404040",
"j 	c #3C3C3C",
"k 	c #333333",
"l 	c #2A2A2A",
"m 	c #3D3D3D",
"n 	c #424242",
"o 	c #444444",
"p 	c #434343",
"q 	c #414141",
"r 	c #1A1A1A",
"s 	c #3E3E3E",
"t 	c #808080",
"u 	c #8C8C8C",
"v 	c #8D8D8D",
"w 	c #4C4C4C",
"x 	c #606060",
"y 	c #B0B0B0",
"z 	c #DBDBDB",
"A 	c #E1E1E1",
"B 	c #C5C5C5",
"C 	c #B6B8C4",
"D 	c #F6F6F7",
"E 	c #FFFFFF",
"F 	c #676767",
"G 	c #454545",
"H 	c #1C1C1C",
"I 	c #7B7F91",
"J 	c #B0BEF7",
"K 	c #ABBDFF",
"L 	c #E0E5FF",
"M 	c #F4F6FF",
"N 	c #C6D1FF",
"O 	c #BDC9FF",
"P 	c #ADADAD",
"Q 	c #929DCB",
"R 	c #5988FE",
"S 	c #1D74FF",
"T 	c #5486FF",
"U 	c #91AAFF",
"V 	c #7F9EFF",
"W 	c #387BFF",
"X 	c #98A9E8",
"Y 	c #686868",
"Z 	c #1D1D1D",
"` 	c #ACACAC",
" .	c #B6C4F9",
"..	c #5888FF",
"+.	c #3F7DFF",
"@.	c #3C7CFF",
"#.	c #93ABFF",
"$.	c #CECECE",
"%.	c #EEEEEE",
"&.	c #E1E6FF",
"*.	c #CCD5FF",
"=.	c #535353",
"-.	c #BEBEBE",
";.	c #F7F7F7",
">.	c #6A6A6A",
",.	c #EDEDED",
"'.	c #F6F6F6",
").	c #818181",
"!.	c #5A5A5A",
"~.	c #B2B2B2",
"{.	c #D5D5D5",
"].	c #D6D6D6",
"^.	c #CCCCCC",
"/.	c #909090",
"(.	c #FCFCFC",
"_.	c #F9FDFF",
":.	c #BDBDBD",
"<.	c #8F8F8F",
"[.	c #FEFEFE",
"}.	c #E7F7FF",
"|.	c #80DCFF",
"1.	c #7EDCFF",
"2.	c #FEFFFF",
"3.	c #EFEFEF",
"4.	c #DDDDDD",
"5.	c #F0F0F0",
"6.	c #545454",
"7.	c #A4BAC5",
"8.	c #A4E4FF",
"9.	c #D2E2EA",
"0.	c #FDFDFD",
"a.	c #FBFBFB",
"b.	c #B3B3B3",
"c.	c #F3F3F3",
"d.	c #020202",
"e.	c #B4B4B4",
"f.	c #979797",
"g.	c #D1D1D1",
"h.	c #767676",
"i.	c #E4E4E4",
"j.	c #E6E6E6",
"k.	c #FAFAFA",
"l.	c #191919",
"m.	c #494949",
"n.	c #F5F5F5",
"o.	c #9D9D9D",
"p.	c #F4F4F4",
"q.	c #D4D4D4",
"r.	c #F8F8F8",
"s.	c #1F1F1F",
"t.	c #1B1B1B",
"u.	c #939393",
"v.	c #EAEAEA",
"w.	c #D3D3D3",
"x.	c #F1F1F1",
"y.	c #BCBCBC",
"z.	c #D7D7D7",
"A.	c #0A0A0A",
"B.	c #D0D0D0",
"C.	c #D9D9D9",
"D.	c #DFDFDF",
"E.	c #CDCDCD",
"F.	c #B8B8B8",
"G.	c #1E1E1E",
"H.	c #929292",
"I.	c #9E6E00",
"J.	c #7E6C58",
"K.	c #CBCBCB",
"L.	c #5F5F5F",
"M.	c #F1A900",
"N.	c #CF9200",
"O.	c #C5C0BC",
"P.	c #B9B9B9",
"Q.	c #898989",
"R.	c #CF9202",
"S.	c #CEC7C1",
"T.	c #B7B7B7",
"U.	c #C6C6C6",
"V.	c #919191",
"W.	c #C19F79",
"X.	c #8F7E6C",
"Y.	c #E7E7E7",
"Z.	c #F9F9F9",
"`.	c #616161",
" +	c #626262",
".+	c #C9C9C9",
"++	c #9E9E9E",
"@+	c #D8D8D8",
"#+	c #DCDCDC",
"$+	c #D2D2D2",
"%+	c #F2F2F2",
"&+	c #A8A8A8",
"*+	c #5D5D5D",
"=+	c #DEDEDE",
"-+	c #E2E2E2",
";+	c #E9E9E9",
">+	c #060606",
",+	c #B6B6B6",
"'+	c #AEAEAE",
")+	c #8E8E8E",
"!+	c #030303",
"~+	c #010101",
"  . + @   @ # $ % & % * . = * % - - - - & & &     ; # >   + , '   &     ) ! & ~ ~ { * . ]           ",
", ] ^ / ( _ : : < [ [ } | } } [ 1 1 1 ! 1 2 3 } 4 5 6 7 8 ( [ 2 8 9 0 7 6 a 4 ! 3 [ 5 _ b : c c c d ",
"  _ 6 6 e 5 e 6 f : 5 f : < | | [ [ | [ g [ [ [ | 4 } 5 / h h i i j / k 6 _ k 5 l < e k 0 m n o c * ",
"  e 5 l | | | l b b e 7 7 5 l } | [ g g g g g [ [ [ [ 4 : 0 i o p q j a 5 < b b < < < < 6 k 0 h p   ",
"  4 4 } | [ [ [ | [ l 5 : e e 5 l | [ g [ g g } 4 } | } 4 6 0 h n p q 9 6 4 | l < 5 5 b 5 5 6 / 0   ",
"  | l | } } [ g g [ [ [ } [ 4 b l } | } } g g | < < 4 } r < f / s n p h 0 5 | l < 5 e e e : f ^ s   ",
"  1 | | [ l 4 | g 2 2 g g g g 2 g [ [ } l [ t u v w l g = [ 4 : / s n n h ( : b < 5 e 6 : ^ j h i   ",
"* 1 g 2 [ | } | [ g 2 g g g g [ g g g g x y z A A B t ( # [ 4 5 _ 9 i i h h 9 a e 5 6 k a ( n o p * ",
"- [ [ g g [ g g [ g g g g 2 g | g g g 2 C D E E E E z F . | 6 a a / j s 8 8 m h ( a k / 9 8 i o G H ",
"& } g g g g 2 2 g [ [ [ [ g g [ [ g g I J K L M M N O P / 6 k ( j ( ( 9 9 9 m i i s j j i q q G c H ",
", [ g [ g g g 2 2 g [ } | g 2 | [ g g Q R S T U V W S X Y 7 f a 0 ( ( ( 8 j s h i n p o G G c c c Z ",
", g g [ g g g [ g 2 g } } g 2 [ g 1 2 `  ...+.@.@.+.#.$.Y j a e _ / 8 0 ^ 0 s i i i q G c c c c c Z ",
", g [ [ [ [ g | [ 2 2 2 1 2 1 g 2 1 2 t %.&.N *.*.N E P =.j 9 _ 6 a ( 0 a k 9 s s s h q o G c c c . ",
", g g [ [ g g g [ g g 1 3 1 1 2 g g 2 g -.;.E E E E z >.f 0 j 8 ^ 7 / 0 7 f f 0 8 m m m q p o c c ! ",
", 2 g g g | [ g g g 2 3 3 1 1 1 2 g g g x ` ,.'.%.$.).h < _ ( j j j 9 ( / a 6 f k / 8 h q p o G c . ",
"' [ | [ g } | g g [ g 2 1 3 1 1 g g g g !.~.{.].{.^./.7 l l _ 0 j m 9 0 / / 7 f 5 6 ^ 8 h n p o G   ",
"' [ 4 } g [ [ g g | [ g 1 1 1 2 2 g g !.z (._._.E (.:.<.5 | < f / ( 7 a a a k k k f k ^ 9 h q n p   ",
"' | 4 4 } | [ [ [ [ | | g g 2 g g [ g z [.[.}.|.1.2.'.3.v } } < : k f : f _ 6 _ a / 8 8 0 j i i i   ",
", | } 4 l 4 } 4 | [ [ [ [ g g g g [ 4.E E 5.6.7.8.9.0.a.b.} } } l : 5 < 5 6 6 f 7 m n q h i q h s   ",
", [ } [ } 4 } 4 } | g 2 [ [ g 2 1 ~.[.E c.9   d.e.f.A '.v | } } < f b | 4 l e ^ 8 i G G G o o q ( @ ",
"~ } } | } } | 4 } [ [ g g g g g 2 A E E g.h.    >.i.j.k.b.[ | } l e 5 } } < e 7 8 i o o G o p n 9 l.",
"  } } } 4 l 4 } [ g g g [ [ [ [ g m.n.E g.o.    c p.(.].4 4 l 4 } 4 4 4 4 < 5 f ^ j i n o p p p 8 l.",
"  [ [ [ } 4 4 < } | [ [ | [ | | g t q.r.E v     s.z {.v } b 5 < } } } } 4 l < 5 _ 0 s q n n n o m t.",
"  g [ [ [ [ | 4 | | } | } } < b [ g u.v.E :.d.  ~ w.x.A v 4 < < } | [ } } 4 l l e 7 j i q q q p s H ",
"  g [ | | } | [ [ g [ [ [ } l b } g [ y.[.z.A.    w.E B.2 | } | [ [ | } | } } } < _ 9 h q i i q n   ",
", g [ } } 4 4 | [ g g g g | } 4 4 [ } } C.D.H     E.E :.2 [ | | g [ | 4 } [ [ [ [ < 7 m s m m i n   ",
"A.! | 4 l l } | [ } } | g g g g } } < l x F.&     B E :.1 g g g g g g g g g [ [ | } : ^ ^ a 7 9 s G.",
"- 2 } } l < } | | } 4 4 | g g 1 g | < } [ H.  I.J.K.0.` 2 2 g [ g 2 1 1 1 2 g g [ } 4 5 5 b e a 9 > ",
"  e l } } 4 | [ | | } < } | [ } [ [ [ [ L.F I.M.N.O.P.y 2 g [ | [ g 1 3 2 2 g g | } < b < 4 < : ^   ",
"  b 4 } [ [ [ g [ [ 4 : < 4 } < 4 } } 4 x Q.I.M.R.S.T.U.v g [ | [ g 2 1 g g 2 g g } b e 6 e 5 : ^   ",
"  } | } 4 | | [ [ 2 [ l l g | } } } } l v r.V.W.X.r.[.(.b.g g [ g g 2 g g 2 2 g g [ 4 5 _ ^ / ( 9   ",
"  [ | [ } | | } } g g [ g g g [ | [ [ [ ^.E [.T.x Y.[.Z.u g g g g g g g g 1 2 [ [ g [ 4 e 7 0 0 8   ",
"  | l < 4 [ | } | g g [ [ | [ [ | [ [ L.5.E 0.b.`.z.[.0.` g g [ [ [ [ g g 2 g g g [ g g } 5 e 6 a   ",
", 3 5 e < } [ | | g 2 g | | | | | | [ b.0.E x. +b B E E :.g g [ | | | g g g g g g [ g g [ | [ l b   ",
", ! } l 4 [ g [ | } | [ [ | g | | | | ~.[.0.y.l } v a.E 4.[ | [ [ [ [ g g g g g g [ g [ [ [ | 4 4   ",
", ! g | } [ [ g g | } | [ | | | 4 l < y..+3.| } } v %.K.P.| | [ g g g g g g g g g [ [ | [ [ } < b   ",
"- ! g l < l | [ g [ | g g } | [ } l ++@+#+B } 4 4 v j.$.b.} | | | [ [ g [ [ g g [ 4 4 4 } | [ < :   ",
", 1 l 6 : l [ [ [ } | | | } | g [ [ .+[.E .+} l l [ {.E -.4 | | } } | | } | [ g [ 4 < b 4 4 } < 6   ",
", 3 l _ k l | | [ [ [ | [ < l [ g 2 ~.0.0.b.4 l 4 L.$+(.P 5 < } | | | | 4 } [ g [ | l < 4 4 l l 6   ",
", 1 4 l } } [ | [ g g [ [ [ | [ 2 g ~.[.a.b.} 4 } L.$+(.P e 6 5 4 } } | } | g 2 g | 4 l < l < 4 6   ",
"  } 4 < 4 } 4 } | | [ g [ [ [ g 2 2 Y.E %+x } l < l B E B 5 f _ e b } | [ g g g [ | } b b 5 e f 7 - ",
", 2 4 l l b < 4 4 < 4 [ g [ g | [ &+r.[.$+[ 4 : _ 5 P a.$+`.f 7 k 6 < | [ g [ [ | } 5 f k 7 a a / > ",
"- 2 } 4 l : e } | < < | | | } b *+].Z.a.=+L.b _ 7 <.b.5.D. +k ^ 7 k 6 5 < } } g 4 < k ( m m ( a a d ",
"A.1 } } } 4 l [ g [ [ [ 4 4 b f o.%+0.(.Z.P 5 k <.-+;+%+;.P _ a 7 a k 7 7 6 e : k 0 s i n q 8 / k # ",
">+3 } } } } 4 [ [ | | | < 5 _ 0 ( ++,+P '+^ ^ ^ 7 )+v v P < e _ / ( ^ ^ ( a _ a 8 q q p n i m 9 / [ ",
"  [ [ | } 4 4 } } } 4 | 4 5 k / / k f k ^ 0 / / 7 5 } < e f a / 8 j 0 7 _ k / j i h s h h i h 8 0 # ",
"A.5 [ l b e < } l b e b 4 b < e 6 : f k 7 / / 0 0 f 5 e _ ^ 9 m m 9 ^ a k 7 m p p s ( 0 9 j j 9 / * ",
"# a 6 e _ 7 _ e : e f _ _ 6 e b b _ a 7 7 ( j m h m ( k : a 8 s m ( ^ k k ^ j p o h ( / 7 ^ / 0 / t.",
"t./ _ 6 : _ a _ 4 @ 1 5 e 5 b < 6 a 7 _ : k h n p o n 0 a _ ^ ( ^ e 5 l b 6 ^ 9 m n s 9 k 6 a ^ / # ",
"          $ $ $ !+~+!+% * * . = > @ @ d d >               > @ l.+ = * $ . d @ r r     >+% # A.A.& >+"};
