/* XPM */
static char * enemy_up_xpm[] = {
"50 50 166 2",
"  	c #000000",
". 	c #121212",
"+ 	c #171717",
"@ 	c #181818",
"# 	c #141414",
"$ 	c #101010",
"% 	c #0F0F0F",
"& 	c #0E0E0E",
"* 	c #111111",
"= 	c #131313",
"- 	c #0D0D0D",
"; 	c #040404",
"> 	c #161616",
", 	c #0C0C0C",
"' 	c #0B0B0B",
") 	c #050505",
"! 	c #212121",
"~ 	c #070707",
"{ 	c #090909",
"] 	c #202020",
"^ 	c #363636",
"/ 	c #373737",
"( 	c #393939",
"_ 	c #323232",
": 	c #2F2F2F",
"< 	c #2B2B2B",
"[ 	c #262626",
"} 	c #282828",
"| 	c #272727",
"1 	c #232323",
"2 	c #242424",
"3 	c #222222",
"4 	c #292929",
"5 	c #2D2D2D",
"6 	c #303030",
"7 	c #353535",
"8 	c #3B3B3B",
"9 	c #3A3A3A",
"0 	c #383838",
"a 	c #343434",
"b 	c #2C2C2C",
"c 	c #464646",
"d 	c #151515",
"e 	c #2E2E2E",
"f 	c #313131",
"g 	c #252525",
"h 	c #3F3F3F",
"i 	c #404040",
"j 	c #3C3C3C",
"k 	c #333333",
"l 	c #2A2A2A",
"m 	c #3D3D3D",
"n 	c #424242",
"o 	c #444444",
"p 	c #434343",
"q 	c #414141",
"r 	c #3E3E3E",
"s 	c #1F1F1F",
"t 	c #8D8D8D",
"u 	c #BDBDBD",
"v 	c #8E8E8E",
"w 	c #454545",
"x 	c #1C1C1C",
"y 	c #191919",
"z 	c #AFAFAF",
"A 	c #FFFFFF",
"B 	c #D1D1D1",
"C 	c #707070",
"D 	c #1A1A1A",
"E 	c #4E4E4E",
"F 	c #CDCDCD",
"G 	c #BFBFBF",
"H 	c #1D1D1D",
"I 	c #6B6B6B",
"J 	c #696969",
"K 	c #C6C6C6",
"L 	c #E2E2E2",
"M 	c #919191",
"N 	c #929292",
"O 	c #E1E1E1",
"P 	c #909090",
"Q 	c #7B7B7B",
"R 	c #8F8F8F",
"S 	c #BEBEBE",
"T 	c #D7D7D7",
"U 	c #CBCBCB",
"V 	c #606060",
"W 	c #A3A3A3",
"X 	c #949494",
"Y 	c #BCBCBC",
"Z 	c #CACACA",
"` 	c #C8C8C8",
" .	c #B4B4B4",
"..	c #D3D3D3",
"+.	c #7D7D7D",
"@.	c #ADADAD",
"#.	c #C4C4C4",
"$.	c #F2F2F2",
"%.	c #5E5E5E",
"&.	c #B2B2B2",
"*.	c #C5C5C5",
"=.	c #8C8C8C",
"-.	c #DADADA",
";.	c #5F5F5F",
">.	c #494949",
",.	c #5C5C5C",
"'.	c #616161",
").	c #9C9C9C",
"!.	c #DDDDDD",
"~.	c #727272",
"{.	c #7E7E7E",
"].	c #4A4A4A",
"^.	c #E8E8E8",
"/.	c #E0E0E0",
"(.	c #666666",
"_.	c #6D6D6D",
":.	c #686868",
"<.	c #D6D6D6",
"[.	c #EEEEEE",
"}.	c #1B1B1B",
"|.	c #0A0A0A",
"1.	c #DFDFDF",
"2.	c #757575",
"3.	c #626262",
"4.	c #636363",
"5.	c #F6F6F6",
"6.	c #7C7C7C",
"7.	c #B6B6B6",
"8.	c #5B5B5B",
"9.	c #FDFDFD",
"0.	c #060606",
"a.	c #585858",
"b.	c #6C6C6C",
"c.	c #DBDBDB",
"d.	c #EFEFEF",
"e.	c #020202",
"f.	c #010101",
"g.	c #505050",
"h.	c #D2D2D2",
"i.	c #FCFCFC",
"j.	c #DCDCDC",
"k.	c #D5D5D5",
"l.	c #1E1E1E",
"m.	c #6E6E6E",
"n.	c #878787",
"o.	c #898989",
"p.	c #9A9A9A",
"q.	c #A7A7A7",
"r.	c #FEFEFE",
"s.	c #FBFBFB",
"t.	c #B3B3B3",
"u.	c #BABABA",
"v.	c #C9C9C9",
"w.	c #9D9D9D",
"x.	c #E4E4E4",
"y.	c #F9F9F9",
"z.	c #ECECEC",
"A.	c #F4F4F4",
"B.	c #F8F8F8",
"C.	c #F5F5F5",
"D.	c #F7F7F7",
"E.	c #787878",
"F.	c #D0D0D0",
"G.	c #ACACAC",
"H.	c #646464",
"I.	c #030303",
"  . + @   @ # $ % & % * . = * % - - - - & & &     ; # >   + , '   &     ) ! & ~ ~ { * . ]           ",
", ] ^ / ( _ : : < [ [ } | } } [ 1 1 1 ! 1 2 3 } 4 5 6 7 8 ( [ 2 8 9 0 7 6 a 4 ! 3 [ 5 _ b : c c c d ",
"  _ 6 6 e 5 e 6 f : 5 f : < | | [ [ | [ g [ [ [ | 4 } 5 / h h i i j / k 6 _ k 5 l < e k 0 m n o c * ",
"  e 5 l | | | l b b e 7 7 5 l } | [ g g g g g [ [ [ [ 4 : 0 i o p q j a 5 < b b < < < < 6 k 0 h p   ",
"  4 4 } | [ [ [ | [ l 5 : e e 5 l | [ g [ g g } 4 } | } 4 6 0 h n p q 9 6 4 | l < 5 5 b 5 5 6 / 0   ",
"  | l | } } [ g g [ [ [ } [ 4 b l } | } } g g | < < 4 } | < f / r n p h 0 5 | l < 5 e e e : f ^ r   ",
"  1 | | [ l 4 | g 2 2 g g g g 2 g [ [ [ # [ g g 4 b l | g } 4 : / r n n h ( : b < 5 e 6 : ^ j h i   ",
"* 1 g 2 [ | } | [ g 2 g g g g [ g g g s ~ 3 g 2 } 4 l } [ } 4 5 _ 9 i i h h 9 a e 5 6 k a ( n o p * ",
"- [ [ g g [ g g [ g g g g 2 g | g g g @ ' 3 t u u v : e < b 6 a a / j r 8 8 m h ( a k / 9 8 i o w x ",
"& } g g g g 2 2 g [ [ [ [ g g [ [ g g y 2 z A A A A B C a 6 k ( j ( ( 9 9 9 m i i r j j i q q w c x ",
", [ g [ g g g 2 2 g [ } | g 2 | [ g g D E F A A A A A G 8 7 f a 0 ( ( ( 8 j r h i n p o w w c c c H ",
", g g [ g g g [ g 2 g } } g 2 [ g 1 2 I J K A A A A A L M j a e _ / 8 0 ^ 0 r i i i q w c c c c c H ",
", g [ [ [ [ g | [ 2 2 2 1 2 1 g 2 1 2 I N O A A A A A L P j 9 _ 6 a ( 0 a k 9 r r r h q o w c c c . ",
", g g [ [ g g g [ g g 1 3 1 1 2 g g 2 Q K A A A A A A O R 0 j 8 ^ 7 / 0 7 f f 0 8 m m m q p o c c ! ",
", 2 g g g | [ g g g 2 3 3 1 1 1 2 g g g u A A A A A A S < _ ( j j j 9 ( / a 6 f k / 8 h q p o w c . ",
"' [ | [ g } | g g [ g 2 1 3 1 1 g g g g J T A A A A U V l l _ 0 j m 9 0 / / 7 f 5 6 ^ 8 h n p o w   ",
"' [ 4 } g [ [ g g | [ g 1 1 1 2 2 g g g g W X Y Y Z `  .5 | < f / ( 7 a a a k k k f k ^ 9 h q n p   ",
"' | 4 4 } | [ [ [ [ | | g g 2 g g [ g 2 g ..+.t @.#.$.@.4 } } < : k f : f _ 6 _ a / 8 8 0 j i i i   ",
", | } 4 l 4 } 4 | [ [ [ [ g g g g [ g 2 %.&.f l k c F *.} } } } l : 5 < 5 6 6 f 7 m n q h i q h r   ",
", [ } [ } 4 } 4 } | g 2 [ [ g 2 1 2 2 g =.-.;.>.,.i #.T '.| } } < f b | 4 l e ^ 8 i w w w o o q ( @ ",
"~ } } | } } | 4 } [ [ g g g g g 2 2 2 1 ).!.~.J {.].F ^.'.[ | } l e 5 } } < e 7 8 i o o w o p n 9 y ",
"  } } } 4 l 4 } [ g g g [ [ [ [ g g 2 3 &./.(.,._.:.L ^.V 4 l 4 } 4 4 4 4 < 5 f ^ j i n o p p p 8 y ",
"  [ [ [ } 4 4 < } | [ [ | [ | | g g 2 1 <.` o c ,.C L [.V b 5 < } } } } 4 l < 5 _ 0 r q n n n o m }.",
"  g [ [ [ [ | 4 | | } | } } < b [ D |.- 1.F q 2.3.4.L 5.6.4 < < } | [ } } 4 l l e 7 j i q q q p r x ",
"  g [ | | } | [ [ g [ [ [ } l b &       2.7.8 8.c w ` 9.&.| } | [ [ | } | } } } < _ 9 h q i i q n   ",
", g [ } } 4 4 | [ g g g g | } +       0.K L a.f a.b.c.d.=.[ | | g [ | 4 } [ [ [ [ < 7 m r m m i n   ",
"|.! | 4 l l } | [ } } | g g g D e.f.& g.h.i.j.S L L k.=.1 g g g g g g g g g [ [ | } : ^ ^ a 7 9 r l.",
"- 2 } } l < } | | } 4 4 | g g 1 D x < } ;.m.n.'.J 4.o.1 2 2 g [ g 2 1 1 1 2 g g [ } 4 5 5 b e a 9 > ",
"  e l } } 4 | [ | | } < } | [ } [ [ [ [ [ V -.p.q.r.&.2 2 g [ | [ g 1 3 2 2 g g | } < b < 4 < : ^   ",
"  b 4 } [ [ [ g [ [ 4 : < 4 } < 4 } } 4 } 6.s.K K r.t.[ [ g [ | [ g 2 1 g g 2 g g } b e 6 e 5 : ^   ",
"  } | } 4 | | [ [ 2 [ l l g | } } } } l < 6.9.u.u.r.&.[ | g g [ g g 2 g g 2 2 g g [ 4 5 _ ^ / ( 9   ",
"  [ | [ } | | } } g g [ g g g [ | [ [ [ | v.A u.u.i.w.2 2 g g g g g g g g 1 2 [ [ g [ 4 e 7 0 0 8   ",
"  | l < 4 [ | } | g g [ [ | [ [ | [ [ g [ t.r.w.u i.w.g 1 g g [ [ [ [ g g 2 g g g [ g g } 5 e 6 a   ",
", 3 5 e < } [ | | g 2 g | | | | | | [ [ [ ..A &.T s.t | 2 g g [ | | | g g g g g g [ g g [ | [ l b   ",
", ! } l 4 [ g [ | } | [ [ | g | | | | g g x.A u.A y.t [ g [ | [ [ [ [ g g g g g g [ g [ [ [ | 4 4   ",
", ! g | } [ [ g g | } | [ | | | 4 l < [ ;.z.A.v.A i.t [ | | | [ g g g g g g g g g [ [ | [ [ } < b   ",
"- ! g l < l | [ g [ | g g } | [ } l b | 6.B.A.` A A *.| 4 } | | | [ [ g [ [ g g [ 4 4 4 } | [ < :   ",
", 1 l 6 : l [ [ [ } | | | } | g [ [ [ g v.A A.G A A *.} < 4 | | } } | | } | [ g [ 4 < b 4 4 } < 6   ",
", 3 l _ k l | | [ [ [ | [ < l [ g 2 2 | <.A A.z C.$.t 4 b 5 < } | | | | 4 } [ g [ | l < 4 4 l l 6   ",
", 1 4 l } } [ | [ g g [ [ [ | [ 2 g g } ..A D.E.t t } } < e 6 5 4 } } | } | g 2 g | 4 l < l < 4 6   ",
"  } 4 < 4 } 4 } | | [ g [ [ [ g 2 2 2 | F.A C.t < l < l l 5 f _ e b } | [ g g g [ | } b b 5 e f 7 - ",
", 2 4 l l b < 4 4 < 4 [ g [ g | [ g g [ c.A d.3._ 5 < l l b f 7 k 6 < | [ g [ [ | } 5 f k 7 a a / > ",
"- 2 } 4 l : e } | < < | | | } b 5 } [ | G.i.h.H.7 _ 5 l b 5 k ^ 7 k 6 5 < } } g 4 < k ( m m ( a a d ",
"|.1 } } } 4 l [ g [ [ [ 4 4 b f k : l < b @.3.k k _ e b b : _ a 7 a k 7 7 6 e : k 0 r i n q 8 / k # ",
"0.3 } } } } 4 [ [ | | | < 5 _ 0 ( a : : k ^ ^ ^ 7 6 l l < < e _ / ( ^ ^ ( a _ a 8 q q p n i m 9 / [ ",
"  [ [ | } 4 4 } } } 4 | 4 5 k / / k f k ^ 0 / / 7 5 } < e f a / 8 j 0 7 _ k / j i h r h h i h 8 0 # ",
"|.5 [ l b e < } l b e b 4 b < e 6 : f k 7 / / 0 0 f 5 e _ ^ 9 m m 9 ^ a k 7 m p p r ( 0 9 j j 9 / * ",
"# a 6 e _ 7 _ e : e f _ _ 6 e b b _ a 7 7 ( j m h m ( k : a 8 r m ( ^ k k ^ j p o h ( / 7 ^ / 0 / }.",
"}./ _ 6 : _ a _ 4 @ 1 5 e 5 b < 6 a 7 _ : k h n p o n 0 a _ ^ ( ^ e 5 l b 6 ^ 9 m n r 9 k 6 a ^ / # ",
"          $ $ $ I.f.I.% * * . = > @ @ d d >               > @ y + = * $ . d @ D D     0.% # |.|.& 0."};
