/* XPM */
static char * enemy_right_xpm[] = {
"50 50 171 2",
"  	c #000000",
". 	c #121212",
"+ 	c #171717",
"@ 	c #181818",
"# 	c #141414",
"$ 	c #101010",
"% 	c #0F0F0F",
"& 	c #0E0E0E",
"* 	c #111111",
"= 	c #131313",
"- 	c #0D0D0D",
"; 	c #040404",
"> 	c #161616",
", 	c #0C0C0C",
"' 	c #0B0B0B",
") 	c #050505",
"! 	c #212121",
"~ 	c #070707",
"{ 	c #090909",
"] 	c #202020",
"^ 	c #363636",
"/ 	c #373737",
"( 	c #393939",
"_ 	c #323232",
": 	c #2F2F2F",
"< 	c #2B2B2B",
"[ 	c #262626",
"} 	c #282828",
"| 	c #272727",
"1 	c #232323",
"2 	c #242424",
"3 	c #222222",
"4 	c #292929",
"5 	c #2D2D2D",
"6 	c #303030",
"7 	c #353535",
"8 	c #3B3B3B",
"9 	c #3A3A3A",
"0 	c #383838",
"a 	c #343434",
"b 	c #2C2C2C",
"c 	c #464646",
"d 	c #151515",
"e 	c #2E2E2E",
"f 	c #313131",
"g 	c #252525",
"h 	c #3F3F3F",
"i 	c #404040",
"j 	c #3C3C3C",
"k 	c #333333",
"l 	c #2A2A2A",
"m 	c #3D3D3D",
"n 	c #424242",
"o 	c #444444",
"p 	c #434343",
"q 	c #414141",
"r 	c #3E3E3E",
"s 	c #191919",
"t 	c #080808",
"u 	c #868686",
"v 	c #BDBDBD",
"w 	c #8D8D8D",
"x 	c #4B4B4B",
"y 	c #8B8B8B",
"z 	c #FFFFFF",
"A 	c #D1D1D1",
"B 	c #6C6C6C",
"C 	c #454545",
"D 	c #1C1C1C",
"E 	c #BFBFBF",
"F 	c #8C8C8C",
"G 	c #E1E1E1",
"H 	c #CBD6FF",
"I 	c #327FFE",
"J 	c #6785D4",
"K 	c #1D1D1D",
"L 	c #E9EDFF",
"M 	c #4B87FC",
"N 	c #5881E1",
"O 	c #A6B7F1",
"P 	c #6383D6",
"Q 	c #696969",
"R 	c #D5D5D5",
"S 	c #636363",
"T 	c #EBEBEB",
"U 	c #F9F9F9",
"V 	c #D8D8D8",
"W 	c #C4C4C4",
"X 	c #F0F0F0",
"Y 	c #FEFEFE",
"Z 	c #EAEAEA",
"` 	c #C7C7C7",
" .	c #D0D0D0",
"..	c #FDFDFD",
"+.	c #A9A9A9",
"@.	c #F4F4F4",
"#.	c #A7C0C7",
"$.	c #1E1E1E",
"%.	c #ACACAC",
"&.	c #838383",
"*.	c #E1F8FF",
"=.	c #76DEF5",
"-.	c #1F1F1F",
";.	c #1A1A1A",
">.	c #808080",
",.	c #EDEDED",
"'.	c #D7D7D7",
").	c #B2EFFE",
"!.	c #56D7EF",
"~.	c #060606",
"{.	c #B6B6B6",
"].	c #FCFCFC",
"^.	c #919191",
"/.	c #E6E6E6",
"(.	c #D1F4FE",
"_.	c #22DFFC",
":.	c #196C7A",
"<.	c #5F5F5F",
"[.	c #CCCCCC",
"}.	c #9B9B9B",
"|.	c #72D9F0",
"1.	c #1A525C",
"2.	c #707070",
"3.	c #787878",
"4.	c #9A9A9A",
"5.	c #939393",
"6.	c #1B1B1B",
"7.	c #A7A7A7",
"8.	c #8E8E8E",
"9.	c #F5F5F5",
"0.	c #F2F2F2",
"a.	c #BEBEBE",
"b.	c #C5C5C5",
"c.	c #ABABAB",
"d.	c #848484",
"e.	c #CACACA",
"f.	c #FBFBFB",
"g.	c #BBBBBB",
"h.	c #D4D4D4",
"i.	c #E4E4E4",
"j.	c #0A0A0A",
"k.	c #B4B4B4",
"l.	c #CBCBCB",
"m.	c #AAAAAA",
"n.	c #A8A8A8",
"o.	c #E9E9E9",
"p.	c #F6F6F6",
"q.	c #ADADAD",
"r.	c #F8F8F8",
"s.	c #EFEFEF",
"t.	c #B3B3B3",
"u.	c #C6C6C6",
"v.	c #F3F3F3",
"w.	c #E7E7E7",
"x.	c #606060",
"y.	c #F7F7F7",
"z.	c #9D9D9D",
"A.	c #D2D2D2",
"B.	c #616161",
"C.	c #E0E0E0",
"D.	c #D6D6D6",
"E.	c #C0C0C0",
"F.	c #E5E5E5",
"G.	c #6A6A6A",
"H.	c #5A5A5A",
"I.	c #ECECEC",
"J.	c #5B5B5B",
"K.	c #6D6D6D",
"L.	c #6B6B6B",
"M.	c #030303",
"N.	c #010101",
"  . + @   @ # $ % & % * . = * % - - - - & & &     ; # >   + , '   &     ) ! & ~ ~ { * . ]           ",
", ] ^ / ( _ : : < [ [ } | } } [ 1 1 1 ! 1 2 3 } 4 5 6 7 8 ( [ 2 8 9 0 7 6 a 4 ! 3 [ 5 _ b : c c c d ",
"  _ 6 6 e 5 e 6 f : 5 f : < | | [ [ | [ g [ [ [ | 4 } 5 / h h i i j / k 6 _ k 5 l < e k 0 m n o c * ",
"  e 5 l | | | l b b e 7 7 5 l } | [ g g g g g [ [ [ [ 4 : 0 i o p q j a 5 < b b < < < < 6 k 0 h p   ",
"  4 4 } | [ [ [ | [ l 5 : e e 5 l | [ g [ g g } 4 } | } 4 6 0 h n p q 9 6 4 | l < 5 5 b 5 5 6 / 0   ",
"  | l | } } [ g g [ [ [ } [ 4 b l } | } } g g | < < 4 } | < f / r n p h 0 5 | l < 5 e e e : f ^ r   ",
"  1 | | [ l 4 | g 2 2 g g g g 2 g [ [ s % [ g g 4 b l | g } 4 : / r n n h ( : b < 5 e 6 : ^ j h i   ",
"* 1 g 2 [ | } | [ g 2 g g g g [ g g g - t u v v w 4 l } [ } 4 5 _ 9 i i h h 9 a e 5 6 k a ( n o p * ",
"- [ [ g g [ g g [ g g g g 2 g | g g g x y z z z z A B e < b 6 a a / j r 8 8 m h ( a k / 9 8 i o C D ",
"& } g g g g 2 2 g [ [ [ [ g g [ [ g g v z z z z z z E ( a 6 k ( j ( ( 9 9 9 m i i r j j i q q C c D ",
", [ g [ g g g 2 2 g [ } | g 2 | [ g F G z z z z z H I J 8 7 f a 0 ( ( ( 8 j r h i n p o C C c c c K ",
", g g [ g g g [ g 2 g } } g 2 [ g 1 F G z z z z z L M N m j a e _ / 8 0 ^ 0 r i i i q C c c c c c K ",
", g [ [ [ [ g | [ 2 2 2 1 2 1 g 2 1 F G z z z z z z O P 0 j 9 _ 6 a ( 0 a k 9 r r r h q o C c c c . ",
", g g [ [ g g g [ g g 1 3 1 1 2 g g 2 v z z z z z z v b f 0 j 8 ^ 7 / 0 7 f f 0 8 m m m q p o c c ! ",
", 2 g g g | [ g g g 2 3 3 1 1 1 2 g g Q R z z z z A B 5 < _ ( j j j 9 ( / a 6 f k / 8 h q p o C c . ",
"' [ | [ g } | g g [ g 2 1 3 1 1 g g g g S T U T V f / 7 l l _ 0 j m 9 0 / / 7 f 5 6 ^ 8 h n p o C   ",
"' [ 4 } g [ [ g g | [ g 1 1 1 2 2 g g g W X Y Z ` e a a 5 | < f / ( 7 a a a k k k f k ^ 9 h q n p   ",
"' | 4 4 } | [ [ [ [ | | g g 2 g g [ g  .z ..Y X +.[ < b 4 } } < : k f : f _ 6 _ a / 8 8 0 j i i i   ",
", | } 4 l 4 } 4 | [ [ [ [ g g g g [ F @.z z z Y #.| } 4 } } } D > $.5 < 5 6 6 f 7 m n q h i q h r   ",
", [ } [ } 4 } 4 } | g 2 [ [ g 2 1 2 %.&...z z *.=.[ 4 5 -.;.' { , 1 b | 4 l e ^ 8 i C C C o o q ( @ ",
"~ } } | } } | 4 } [ [ g g g g g 2 >.,.u '.U z ).!.] > ~.' ) % { * 3 5 } } < e 7 8 i o o C o p n 9 s ",
"  } } } 4 l 4 } [ g g g [ [ [ [ g {.].^.V /.z (._.:.; - % d # K [ 4 4 4 4 < 5 f ^ j i n o p p p 8 s ",
"  [ [ [ } 4 4 < } | [ [ | [ | | <.[.].}.}.Y z z |.1.2.3.4.5.5 < } } } } 4 l < 5 _ 0 r q n n n o m 6.",
"  g [ [ [ [ | 4 | | } | } } < b [ <.Z 7.8.Y z z 9.0.Y z z z a.< } | [ } } 4 l l e 7 j i q q q p r D ",
"  g [ | | } | [ [ g [ [ [ } l b } g b.c.d.e.z z z z z z f. .} | [ [ | } | } } } < _ 9 h q i i q n   ",
", g [ } } 4 4 | [ g g g g | } 4 4 [ } g.}.h.z z z ..i.[.F [ | | g [ | 4 } [ [ [ [ < 7 m r m m i n   ",
"j.! | 4 l l } | [ } } | g g g g } } < k.l.].z z ..m.1 3 1 g g g g g g g g g [ [ | } : ^ ^ a 7 9 r $.",
"- 2 } } l < } | | } 4 4 | g g 1 g | < v z Y Y Y n.[ 2 1 2 2 g [ g 2 1 1 1 2 g g [ } 4 5 5 b e a 9 > ",
"  e l } } 4 | [ | | } < } | [ } [ [ [ [ o.z ..].%.[ g 2 2 g [ | [ g 1 3 2 2 g g | } < b < 4 < : ^   ",
"  b 4 } [ [ [ g [ [ 4 : < 4 } < 4 } } 4 w U p.z  .| [ [ [ g [ | [ g 2 1 g g 2 g g } b e 6 e 5 : ^   ",
"  } | } 4 | | [ [ 2 [ l l g | } } } } l q.f.i.r.s.w g [ | g g [ g g 2 g g 2 2 g g [ 4 5 _ ^ / ( 9   ",
"  [ | [ } | | } } g g [ g g g [ | [ [ [ b.z G f.f.t.2 2 2 g g g g g g g g 1 2 [ [ g [ 4 e 7 0 0 8   ",
"  | l < 4 [ | } | g g [ [ | [ [ | [ [ <.i.f.u.v.v.w | g 1 g g [ [ [ [ g g 2 g g g [ g g } 5 e 6 a   ",
", 3 5 e < } [ | | g 2 g | | | | | | [ t.f.@.t.o.@.w 4 | 2 g g [ | | | g g g g g g [ g g [ | [ l b   ",
", ! } l 4 [ g [ | } | [ [ | g | | | | b.Y w.x. .z R } [ g [ | [ [ [ [ g g g g g g [ g [ [ [ | 4 4   ",
", ! g | } [ [ g g | } | [ | | | 4 l < %.].'.x.w 9.y.z.[ | | | [ g g g g g g g g g [ [ | [ [ } < b   ",
"- ! g l < l | [ g [ | g g } | [ } l b %.f.'.x.w p...b.| 4 } | | | [ [ g [ [ g g [ 4 4 4 } | [ < :   ",
", 1 l 6 : l [ [ [ } | | | } | g [ [ [ %.].A.x.w T y.w } < 4 | | } } | | } | [ g [ 4 < b 4 4 } < 6   ",
", 3 l _ k l | | [ [ [ | [ < l [ g 2 2 a.z [.4 B.C.].D.w b 5 < } | | | | 4 } [ g [ | l < 4 4 l l 6   ",
", 1 4 l } } [ | [ g g [ [ [ | [ 2 g 6 E...F.x.G.i.z ].o.w e 6 5 4 } } | } | g 2 g | 4 l < l < 4 6   ",
"  } 4 < 4 } 4 } | | [ g [ [ [ g 2 2 H.v y.r.%.G.a.o.I.t.l 5 f _ e b } | [ g g g [ | } b b 5 e f 7 - ",
", 2 4 l l b < 4 4 < 4 [ g [ g | [ g g J.+.[.x.: K.L.w l l b f 7 k 6 < | [ g [ [ | } 5 f k 7 a a / > ",
"- 2 } 4 l : e } | < < | | | } b 5 } [ | [ <.b _ 7 _ 5 l b 5 k ^ 7 k 6 5 < } } g 4 < k ( m m ( a a d ",
"j.1 } } } 4 l [ g [ [ [ 4 4 b f k : l < b b 5 k k _ e b b : _ a 7 a k 7 7 6 e : k 0 r i n q 8 / k # ",
"~.3 } } } } 4 [ [ | | | < 5 _ 0 ( a : : k ^ ^ ^ 7 6 l l < < e _ / ( ^ ^ ( a _ a 8 q q p n i m 9 / [ ",
"  [ [ | } 4 4 } } } 4 | 4 5 k / / k f k ^ 0 / / 7 5 } < e f a / 8 j 0 7 _ k / j i h r h h i h 8 0 # ",
"j.5 [ l b e < } l b e b 4 b < e 6 : f k 7 / / 0 0 f 5 e _ ^ 9 m m 9 ^ a k 7 m p p r ( 0 9 j j 9 / * ",
"# a 6 e _ 7 _ e : e f _ _ 6 e b b _ a 7 7 ( j m h m ( k : a 8 r m ( ^ k k ^ j p o h ( / 7 ^ / 0 / 6.",
"6./ _ 6 : _ a _ 4 @ 1 5 e 5 b < 6 a 7 _ : k h n p o n 0 a _ ^ ( ^ e 5 l b 6 ^ 9 m n r 9 k 6 a ^ / # ",
"          $ $ $ M.N.M.% * * . = > @ @ d d >               > @ s + = * $ . d @ ;.;.    ~.% # j.j.& ~."};
