/* XPM */
static char * enemy_shoot_u_xpm[] = {
"50 50 172 2",
"  	c #000000",
". 	c #121212",
"+ 	c #171717",
"@ 	c #181818",
"# 	c #141414",
"$ 	c #101010",
"% 	c #0F0F0F",
"& 	c #0E0E0E",
"* 	c #111111",
"= 	c #131313",
"- 	c #0D0D0D",
"; 	c #040404",
"> 	c #161616",
", 	c #0C0C0C",
"' 	c #0B0B0B",
") 	c #050505",
"! 	c #212121",
"~ 	c #070707",
"{ 	c #090909",
"] 	c #202020",
"^ 	c #363636",
"/ 	c #373737",
"( 	c #393939",
"_ 	c #323232",
": 	c #2F2F2F",
"< 	c #2B2B2B",
"[ 	c #262626",
"} 	c #282828",
"| 	c #272727",
"1 	c #232323",
"2 	c #242424",
"3 	c #222222",
"4 	c #292929",
"5 	c #2D2D2D",
"6 	c #303030",
"7 	c #353535",
"8 	c #3B3B3B",
"9 	c #3A3A3A",
"0 	c #383838",
"a 	c #343434",
"b 	c #2C2C2C",
"c 	c #464646",
"d 	c #151515",
"e 	c #2E2E2E",
"f 	c #313131",
"g 	c #252525",
"h 	c #3F3F3F",
"i 	c #404040",
"j 	c #3C3C3C",
"k 	c #333333",
"l 	c #2A2A2A",
"m 	c #3D3D3D",
"n 	c #424242",
"o 	c #444444",
"p 	c #1F1F1F",
"q 	c #434343",
"r 	c #414141",
"s 	c #1B1B1B",
"t 	c #191919",
"u 	c #0A0A0A",
"v 	c #1D1D1D",
"w 	c #8D8D8D",
"x 	c #3E3E3E",
"y 	c #080808",
"z 	c #1E1E1E",
"A 	c #9A9A9A",
"B 	c #E1E1E1",
"C 	c #BDBDBD",
"D 	c #6A6A6A",
"E 	c #030303",
"F 	c #646464",
"G 	c #D7D7D7",
"H 	c #FFFFFF",
"I 	c #D0D0D0",
"J 	c #1A1A1A",
"K 	c #656565",
"L 	c #BCBCBC",
"M 	c #F4F4F4",
"N 	c #454545",
"O 	c #1C1C1C",
"P 	c #BEBEBE",
"Q 	c #BFBFBF",
"R 	c #8C8C8C",
"S 	c #919191",
"T 	c #866435",
"U 	c #83612E",
"V 	c #AFAFAF",
"W 	c #C5C5C5",
"X 	c #D4D4D4",
"Y 	c #DDDDDD",
"Z 	c #EAEAEA",
"` 	c #D1D1D1",
" .	c #74552B",
"..	c #7F5910",
"+.	c #BB851B",
"@.	c #83602C",
"#.	c #676767",
"$.	c #6F6F6F",
"%.	c #878787",
"&.	c #787878",
"*.	c #7E7E7E",
"=.	c #949494",
"-.	c #5E5E5E",
";.	c #090603",
">.	c #020100",
",.	c #38260A",
"'.	c #4A3D31",
").	c #A8A8A8",
"!.	c #696969",
"~.	c #6E6E6E",
"{.	c #231C15",
"].	c #F5F5F5",
"^.	c #B5B5B5",
"/.	c #636363",
"(.	c #666666",
"_.	c #868686",
":.	c #9D9D9D",
"<.	c #B8B8B8",
"[.	c #B4B4B4",
"}.	c #999999",
"|.	c #5F5F5F",
"1.	c #DADADA",
"2.	c #FDFDFD",
"3.	c #B1B1B1",
"4.	c #B2B2B2",
"5.	c #CDCDCD",
"6.	c #606060",
"7.	c #F2F2F2",
"8.	c #9F9F9F",
"9.	c #C7C7C7",
"0.	c #D6D6D6",
"a.	c #F1F1F1",
"b.	c #929292",
"c.	c #E5E5E5",
"d.	c #FBFBFB",
"e.	c #7B7B7B",
"f.	c #707070",
"g.	c #DFDFDF",
"h.	c #DBDBDB",
"i.	c #616161",
"j.	c #CCCCCC",
"k.	c #AAAAAA",
"l.	c #717171",
"m.	c #9E9E9E",
"n.	c #7A7A7A",
"o.	c #737373",
"p.	c #ADADAD",
"q.	c #A6A6A6",
"r.	c #AEAEAE",
"s.	c #7D7D7D",
"t.	c #7C7C7C",
"u.	c #DCDCDC",
"v.	c #C6C6C6",
"w.	c #6B6B6B",
"x.	c #FCFCFC",
"y.	c #F9F9F9",
"z.	c #828282",
"A.	c #B3B3B3",
"B.	c #FAFAFA",
"C.	c #ACACAC",
"D.	c #E9E9E9",
"E.	c #D2D2D2",
"F.	c #EFEFEF",
"G.	c #F7F7F7",
"H.	c #8E8E8E",
"I.	c #EBEBEB",
"J.	c #F6F6F6",
"K.	c #F3F3F3",
"L.	c #DEDEDE",
"M.	c #626262",
"N.	c #060606",
"O.	c #010101",
"  . + @   @ # $ % & % * . = * % - - - - & & &     ; # >   + , '   &     ) ! & ~ ~ { * . ]           ",
", ] ^ / ( _ : : < [ [ } | } } [ 1 1 1 ! 1 2 3 } 4 5 6 7 8 ( [ 2 8 9 0 7 6 a 4 ! 3 [ 5 _ b : c c c d ",
"  _ 6 6 e 5 e 6 f : 5 f : < | | [ [ | [ g [ [ [ | 4 } 5 / h h i i j / k 6 _ k 5 l < e k 0 m n o c * ",
"  e 5 l | | | l b b e 7 7 5 l } | [ g ] p p 2 [ [ [ [ 4 : 0 i o q r j a 5 < b b < < < < 6 k 0 h q   ",
"  4 4 } | [ [ [ | [ l 5 : e e 5 l | [ s * + 1 } 4 } | } 4 6 0 h n q r 9 6 4 | l < 5 5 b 5 5 6 / 0   ",
"  | l | } } [ g g [ [ [ } [ 4 b l } | t u - v w w w 4 } | < f / x n q h 0 5 | l < 5 e e e : f ^ x   ",
"  1 | | [ l 4 | g 2 2 g g g g 2 g [ [ > y z A B B B C D g } 4 : / x n n h ( : b < 5 e 6 : ^ j h i   ",
"* 1 g 2 [ | } | [ g 2 g g g g [ g g g > E F G H H H H I [ } 4 5 _ 9 i i h h 9 a e 5 6 k a ( n o q * ",
"- [ [ g g [ g g [ g g g g 2 g | g g g J K L M H H H H H w b 6 a a / j x 8 8 m h ( a k / 9 8 i o N O ",
"& } g g g g 2 2 g [ [ [ [ g g [ [ g g 2 C H H H H H H H P 6 k ( j ( ( 9 9 9 m i i x j j i r r N c O ",
", [ g [ g g g 2 2 g [ } | g 2 | [ g g g C H H H H H H H Q 7 f a 0 ( ( ( 8 j x h i n q o N N c c c v ",
", g g [ g g g [ g 2 g } } g 2 [ g 1 2 g R H H H H H H H S T U e _ / 8 0 ^ 0 x i i i r N c c c c c v ",
", g [ [ [ [ g | [ 2 2 2 1 2 1 g 2 1 2 2 g V W L X Y Z `  ...+.@.6 a ( 0 a k 9 x x x h r o N c c c . ",
", g g [ [ g g g [ g g 1 3 1 1 2 g g 2 g g #.$.%.&.*.=.-.;.>.,.'.^ 7 / 0 7 f f 0 8 m m m r q o c c ! ",
", 2 g g g | [ g g g 2 3 3 1 1 1 2 g g g g *.).$.F !.~./     {.j j j 9 ( / a 6 f k / 8 h r q o N c . ",
"' [ | [ g } | g g [ g 2 1 3 1 1 g g g g R ].^././.(.S _.> . _ 0 j m 9 0 / / 7 f 5 6 ^ 8 h n q o N   ",
"' [ 4 } g [ [ g g | [ g 1 1 1 2 2 g g g :.].<././.F [.}.5 | < f / ( 7 a a a k k k f k ^ 9 h r n q   ",
"' | 4 4 } | [ [ [ [ | | g g 2 g g [ g |.1.2.3./././.4.5.6.} } < : k f : f _ 6 _ a / 8 8 0 j i i i   ",
", | } 4 l 4 } 4 | [ [ [ [ g g g g [ g 2 L 7.8././.F 9.0.} } } } l : 5 < 5 6 6 f 7 m n r h i r h x   ",
", [ } [ } 4 } 4 } | g 2 [ [ g 2 1 2 2 R a.7.b././.!.0.c.w | } } < f b | 4 l e ^ 8 i N N N o o r ( @ ",
"~ } } | } } | 4 } [ [ g g g g g 2 2 2 C H d.e././.f.g.h.i.[ | } l e 5 } } < e 7 8 i o o N o q n 9 t ",
"  } } } 4 l 4 } [ g g g [ [ [ [ g g 2 3 W j.k.(.F l.m.6.4 4 l 4 } 4 4 4 4 < 5 f ^ j i n o q q q 8 t ",
"  [ [ [ } 4 4 < } | [ [ | [ | | g g 2 1 3 -.n././.o.[ [ } b 5 < } } } } 4 l < 5 _ 0 x r n n n o m s ",
"  g [ [ [ [ | 4 | | } | } } < b [ g g 2 [ 2 _./.D R g 2 [ 4 < < } | [ } } 4 l l e 7 j i r r r q x O ",
"  g [ | | } | [ [ g [ [ [ } l b } g [ } 4 } p.:.q.r.2 1 2 | } | [ [ | } | } } } < _ 9 h r i i r n   ",
", g [ } } 4 4 | [ g g g g | } 4 4 [ } } < e V :.}.s.1 1 2 [ | | g [ | 4 } [ [ [ [ < 7 m x m m i n   ",
"u ! | 4 l l } | [ } } | g g g g } } < l | t.u.v.W 9.w.3 1 g g g g g g g g g [ [ | } : ^ ^ a 7 9 x z ",
"- 2 } } l < } | | } 4 4 | g g 1 g | < } [ :.x.H H y.z.1 2 2 g [ g 2 1 1 1 2 g g [ } 4 5 5 b e a 9 > ",
"  e l } } 4 | [ | | } < } | [ } [ [ [ [ [ A.x.2.B.B.C.2 2 g [ | [ g 1 3 2 2 g g | } < b < 4 < : ^   ",
"  b 4 } [ [ [ g [ [ 4 : < 4 } < 4 } } 4 } C.d.D.G x.C.[ [ g [ | [ g 2 1 g g 2 g g } b e 6 e 5 : ^   ",
"  } | } 4 | | [ [ 2 [ l l g | } } } } l < C.x.E.j.H W [ | g g [ g g 2 g g 2 2 g g [ 4 5 _ ^ / ( 9   ",
"  [ | [ } | | } } g g [ g g g [ | [ [ [ | I H W C.d.1.|.2 g g g g g g g g 1 2 [ [ g [ 4 e 7 0 0 8   ",
"  | l < 4 [ | } | g g [ [ | [ [ | [ [ g w F.G.H.w 7.I.R 1 g g [ [ [ [ g g 2 g g g [ g g } 5 e 6 a   ",
", 3 5 e < } [ | | g 2 g | | | | | | [ [ A.d.d.A.H.F.F.w 2 g g [ | | | g g g g g g [ g g [ | [ l b   ",
", ! } l 4 [ g [ | } | [ [ | g | | | | g R J.a.w w K.K.w g [ | [ [ [ [ g g g g g g [ g [ [ [ | 4 4   ",
", ! g | } [ [ g g | } | [ | | | 4 l < [ C.d.1.6.A.d.d.A.| | | [ g g g g g g g g g [ [ | [ [ } < b   ",
"- ! g l < l | [ g [ | g g } | [ } l b | C H W 4 w K.K.w 4 } | | | [ [ g [ [ g g [ 4 4 4 } | [ < :   ",
", 1 l 6 : l [ [ [ } | | | } | g [ [ [ g W H C l w F.F.w < 4 | | } } | | } | [ g [ 4 < b 4 4 } < 6   ",
", 3 l _ k l | | [ [ [ | [ < l [ g 2 2 6.1.d.p.l w I.7.w b 5 < } | | | | 4 } [ g [ | l < 4 4 l l 6   ",
", 1 4 l } } [ | [ g g [ [ [ | [ 2 g g w I.7.w 4 6.L.B.C.< e 6 5 4 } } | } | g 2 g | 4 l < l < 4 6   ",
"  } 4 < 4 } 4 } | | [ g [ [ [ g 2 2 2 w D.D.w l i.E.y.p.l 5 f _ e b } | [ g g g [ | } b b 5 e f 7 - ",
", 2 4 l l b < 4 4 < 4 [ g [ g | [ g g [ w w 4 : _ M.p.l l b f 7 k 6 < | [ g [ [ | } 5 f k 7 a a / > ",
"- 2 } 4 l : e } | < < | | | } b 5 } [ | [ [ b _ 7 _ 5 l b 5 k ^ 7 k 6 5 < } } g 4 < k ( m m ( a a d ",
"u 1 } } } 4 l [ g [ [ [ 4 4 b f k : l < b b 5 k k _ e b b : _ a 7 a k 7 7 6 e : k 0 x i n r 8 / k # ",
"N.3 } } } } 4 [ [ | | | < 5 _ 0 ( a : : k ^ ^ ^ 7 6 l l < < e _ / ( ^ ^ ( a _ a 8 r r q n i m 9 / [ ",
"  [ [ | } 4 4 } } } 4 | 4 5 k / / k f k ^ 0 / / 7 5 } < e f a / 8 j 0 7 _ k / j i h x h h i h 8 0 # ",
"u 5 [ l b e < } l b e b 4 b < e 6 : f k 7 / / 0 0 f 5 e _ ^ 9 m m 9 ^ a k 7 m q q x ( 0 9 j j 9 / * ",
"# a 6 e _ 7 _ e : e f _ _ 6 e b b _ a 7 7 ( j m h m ( k : a 8 x m ( ^ k k ^ j q o h ( / 7 ^ / 0 / s ",
"s / _ 6 : _ a _ 4 @ 1 5 e 5 b < 6 a 7 _ : k h n q o n 0 a _ ^ ( ^ e 5 l b 6 ^ 9 m n x 9 k 6 a ^ / # ",
"          $ $ $ E O.E % * * . = > @ @ d d >               > @ t + = * $ . d @ J J     N.% # u u & N."};
