/* XPM */
static char * enemy_left_xpm[] = {
"50 50 188 2",
"  	c #000000",
". 	c #121212",
"+ 	c #171717",
"@ 	c #181818",
"# 	c #141414",
"$ 	c #101010",
"% 	c #0F0F0F",
"& 	c #0E0E0E",
"* 	c #111111",
"= 	c #131313",
"- 	c #0D0D0D",
"; 	c #040404",
"> 	c #161616",
", 	c #0C0C0C",
"' 	c #0B0B0B",
") 	c #050505",
"! 	c #212121",
"~ 	c #070707",
"{ 	c #090909",
"] 	c #202020",
"^ 	c #363636",
"/ 	c #373737",
"( 	c #393939",
"_ 	c #323232",
": 	c #2F2F2F",
"< 	c #2B2B2B",
"[ 	c #262626",
"} 	c #282828",
"| 	c #272727",
"1 	c #232323",
"2 	c #242424",
"3 	c #222222",
"4 	c #292929",
"5 	c #2D2D2D",
"6 	c #303030",
"7 	c #353535",
"8 	c #3B3B3B",
"9 	c #3A3A3A",
"0 	c #383838",
"a 	c #343434",
"b 	c #2C2C2C",
"c 	c #464646",
"d 	c #151515",
"e 	c #2E2E2E",
"f 	c #313131",
"g 	c #252525",
"h 	c #3F3F3F",
"i 	c #404040",
"j 	c #3C3C3C",
"k 	c #333333",
"l 	c #2A2A2A",
"m 	c #3D3D3D",
"n 	c #424242",
"o 	c #444444",
"p 	c #434343",
"q 	c #414141",
"r 	c #3E3E3E",
"s 	c #696969",
"t 	c #8D8D8D",
"u 	c #191919",
"v 	c #030303",
"w 	c #454545",
"x 	c #1C1C1C",
"y 	c #4F4F4F",
"z 	c #9A9A9A",
"A 	c #D0D0D0",
"B 	c #E1E1E1",
"C 	c #585858",
"D 	c #242D49",
"E 	c #8B94B5",
"F 	c #E9E9E9",
"G 	c #FFFFFF",
"H 	c #5C5C5C",
"I 	c #9D9D9D",
"J 	c #1D1D1D",
"K 	c #222C48",
"L 	c #566FB1",
"M 	c #588BF8",
"N 	c #CBD6FF",
"O 	c #969696",
"P 	c #4E4E4E",
"Q 	c #D1D1D1",
"R 	c #707070",
"S 	c #3C7CF0",
"T 	c #0F79FF",
"U 	c #548CFF",
"V 	c #E1E7FF",
"W 	c #AAAAAA",
"X 	c #7C7C7C",
"Y 	c #E2E2E2",
"Z 	c #8F8F8F",
"` 	c #1B53AC",
" .	c #2379FA",
"..	c #2E7EFE",
"+.	c #729AFF",
"@.	c #F1F1F1",
"#.	c #8E8E8E",
"$.	c #23355F",
"%.	c #4372D3",
"&.	c #A7B4E4",
"*.	c #ECECEC",
"=.	c #AEAEAE",
"-.	c #505050",
";.	c #D7D7D7",
">.	c #ADADAD",
",.	c #D4D4D4",
"'.	c #B0B0B0",
").	c #F7F7F7",
"!.	c #BFBFBF",
"~.	c #B3B3B3",
"{.	c #BDBDBD",
"].	c #F2F2F2",
"^.	c #C6F3FF",
"/.	c #FAFAFA",
"(.	c #F4F4F4",
"_.	c #D6D6D6",
":.	c #EBEBEB",
"<.	c #C4F1FE",
"[.	c #46E3FF",
"}.	c #BAEAF8",
"|.	c #DBDBDB",
"1.	c #FBFBFB",
"2.	c #9E9E9E",
"3.	c #B2B2B2",
"4.	c #FCFCFC",
"5.	c #C3F1FE",
"6.	c #44E3FF",
"7.	c #B9E9F6",
"8.	c #C9C9C9",
"9.	c #E6E6E6",
"0.	c #EFEFEF",
"a.	c #BBBBBB",
"b.	c #F9F9F9",
"c.	c #C6C6C6",
"d.	c #FDFDFD",
"e.	c #DADADA",
"f.	c #606060",
"g.	c #1B1B1B",
"h.	c #8C8C8C",
"i.	c #F0F0F0",
"j.	c #F6F6F6",
"k.	c #F8F8F8",
"l.	c #FEFEFE",
"m.	c #E5E5E5",
"n.	c #ACACAC",
"o.	c #C2C2C2",
"p.	c #B4B4B4",
"q.	c #E0E0E0",
"r.	c #E7E7E7",
"s.	c #0A0A0A",
"t.	c #1F1F1F",
"u.	c #020202",
"v.	c #EAEAEA",
"w.	c #B7B7B7",
"x.	c #010101",
"y.	c #494949",
"z.	c #A7A7A7",
"A.	c #1E1E1E",
"B.	c #989898",
"C.	c #1A1A1A",
"D.	c #060606",
"E.	c #595959",
"F.	c #5E5E5E",
"G.	c #575757",
"H.	c #747474",
"I.	c #C4C4C4",
"J.	c #7E7E7E",
"K.	c #DFDFDF",
"L.	c #D2D2D2",
"M.	c #626262",
"N.	c #C5C5C5",
"O.	c #F5F5F5",
"P.	c #E8E8E8",
"Q.	c #CACACA",
"R.	c #5F5F5F",
"S.	c #D5D5D5",
"T.	c #D8D8D8",
"U.	c #E4E4E4",
"V.	c #DDDDDD",
"W.	c #F3F3F3",
"X.	c #E3E3E3",
"Y.	c #D3D3D3",
"Z.	c #DEDEDE",
"`.	c #B9B9B9",
" +	c #525252",
".+	c #818181",
"++	c #C7C7C7",
"@+	c #4A4A4A",
"  . + @   @ # $ % & % * . = * % - - - - & & &     ; # >   + , '   &     ) ! & ~ ~ { * . ]           ",
", ] ^ / ( _ : : < [ [ } | } } [ 1 1 1 ! 1 2 3 } 4 5 6 7 8 ( [ 2 8 9 0 7 6 a 4 ! 3 [ 5 _ b : c c c d ",
"  _ 6 6 e 5 e 6 f : 5 f : < | | [ [ | [ g [ [ [ | 4 } 5 / h h i i j / k 6 _ k 5 l < e k 0 m n o c * ",
"  e 5 l | | | l b b e 7 7 5 l } | [ g g g g g [ [ [ [ 4 : 0 i o p q j a 5 < b b < < < < 6 k 0 h p   ",
"  4 4 } | [ [ [ | [ l 5 : e e 5 l | [ g [ g g } 4 } | } 4 6 0 h n p q 9 6 4 | l < 5 5 b 5 5 6 / 0   ",
"  | l | } } [ g g [ [ [ } [ 4 b l } | } } g g | < < 4 } | < f / r n p h 0 5 | l < 5 e e e : f ^ r   ",
"  1 | | [ l 4 | g 2 2 g g g g 2 g [ [ } l [ g g . # l | g } 4 : / r n n h ( : b < 5 e 6 : ^ j h i   ",
"* 1 g 2 [ | } | [ g 2 g g g g [ g g g g 2 2 g 2 ) ; l } [ } 4 5 _ 9 i i h h 9 a e 5 6 k a ( n o p * ",
"- [ [ g g [ g g [ g g g g 2 g | g g g 2 1 s t t u v : e < b 6 a a / j r 8 8 m h ( a k / 9 8 i o w x ",
"& } g g g g 2 2 g [ [ [ [ g g [ [ g g y z A B B a . C ( a 6 k ( j ( ( 9 9 9 m i i r j j i q q w c x ",
", [ g [ g g g 2 2 g [ } | g 2 | [ g D E F G G G H 4 I m 8 7 f a 0 ( ( ( 8 j r h i n p o w w c c c J ",
", g g [ g g g [ g 2 g } } g 2 [ g K L M N G G G O P Q R m j a e _ / 8 0 ^ 0 r i i i q w c c c c c J ",
", g [ [ [ [ g | [ 2 2 2 1 2 1 g 2 K S T U V G G W X Y Z 0 j 9 _ 6 a ( 0 a k 9 r r r h q o w c c c . ",
", g g [ [ g g g [ g g 1 3 1 1 2 g `  ...+.V G G B B @.#.f 0 j 8 ^ 7 / 0 7 f f 0 8 m m m q p o c c ! ",
", 2 g g g | [ g g g 2 3 3 1 1 1 2 $.%.&.V G G G G G *.=.< _ ( j j j 9 ( / a 6 f k / 8 h q p o w c . ",
"' [ | [ g } | g g [ g 2 1 3 1 1 g g $.z F G G G G F B Z l l _ 0 j m 9 0 / / 7 f 5 6 ^ 8 h n p o w   ",
"' [ 4 } g [ [ g g | [ g 1 1 1 2 2 g g -.z A F F ;.>.,.Z 5 | < f / ( 7 a a a k k k f k ^ 9 h q n p   ",
"' | 4 4 } | [ [ [ [ | | g g 2 g g [ g 2 s '.).@.Y A !.~.4 } } < : k f : f _ 6 _ a / 8 8 0 j i i i   ",
", | } 4 l 4 } 4 | [ [ [ [ g g g g [ g s {.].^./.(.)._.~.} } } } l : 5 < 5 6 6 f 7 m n q h i q h r   ",
", [ } [ } 4 } 4 } | g 2 [ [ g 2 1 2 2 s :.<.[.}.|.1.:.2.< | } } < f b | 4 l e ^ 8 i w w w o o q ( @ ",
"~ } } | } } | 4 } [ [ g g g g g 2 2 2 3.4.5.6.7.8.4./.~.l [ | } l e 5 } } < e 7 8 i o o w o p n 9 u ",
"  } } } 4 l 4 } [ g g g [ [ [ [ g g 2 A G 9.7.0.a.b.).I 4 4 l 4 } 4 4 4 4 < 5 f ^ j i n o p p p 8 u ",
"  [ [ [ } 4 4 < } | [ [ | [ | | g g 8.0.@.3.0.0.c.d.1.e.f.b 5 < } } } } 4 l < 5 _ 0 r q n n n o m g.",
"  g [ [ [ [ | 4 | | } | } } < b [ 3./.1.8.h.i.j.A G k.i.t 4 < < } | [ } } 4 l l e 7 j i q q q p r x ",
"  g [ | | } | [ [ g [ [ [ } l b } h.).0.t I 1.l.m.G ).b.n.| } | [ [ | } | } } } < _ 9 h q i i q n   ",
", g [ } } 4 4 | [ g g g g ! x 2 } |.b.o.g p.q.G e.r.l./.I [ | | g [ | 4 } [ [ [ [ < 7 m r m m i n   ",
"s.! | 4 l l } | [ } } | t.{ u., #.v.w.u x.0 y.t z.X l.(.h.g g g g g g g g g [ [ | } : ^ ^ a 7 9 r A.",
"- 2 } } l < } | | } 4 4 ! { u.' J B.C.        v D.x.E.W 2 2 g [ g 2 1 1 1 2 g g [ } 4 5 5 b e a 9 > ",
"  e l } } 4 | [ | | } < } ! g.1 g [ ! , b H F.G.} u.{ ) x g [ | [ g 1 3 2 2 g g | } < b < 4 < : ^   ",
"  b 4 } [ [ [ g [ [ 4 : < 4 } < 4 } } 4 j.(.(.F _.H.>   v t.[ | [ g 2 1 g g 2 g g } b e 6 e 5 : ^   ",
"  } | } 4 | | [ [ 2 [ l l g | } } } } I.G G G d.).W # x.  d g [ g g 2 g g 2 2 g g [ 4 5 _ ^ / ( 9   ",
"  [ | [ } | | } } g g [ g g g [ | [ [ j.G l.e.@.].t 2 & x.* 1 g g g g g g 1 2 [ [ g [ 4 e 7 0 0 8   ",
"  | l < 4 [ | } | g g [ [ | [ [ | [ I /.G j.J.K./.>.| g d 1 g [ [ [ [ g g 2 g g g [ g g } 5 e 6 a   ",
", 3 5 e < } [ | | g 2 g | | | | | | L.4.G F M.L.4.>.4 | 2 g g [ | | | g g g g g g [ g g [ | [ l b   ",
", ! } l 4 [ g [ | } | [ [ | g | | N.O.G G _.} N.G {.} [ g [ | [ [ [ [ g g g g g g [ g [ [ [ | 4 4   ",
", ! g | } [ [ g g | } | [ | | | 4 {.P.d.l.~.| {.G {.| [ | | | [ g g g g g g g g g [ [ | [ [ } < b   ",
"- ! g l < l | [ g [ | g g } | [ } t Q./.G A } {.G N.[ | 4 } | | | [ [ g [ [ g g [ 4 4 4 } | [ < :   ",
", 1 l 6 : l [ [ [ } | | | } | g [ t F O.G |.} >.1.e.R.} < 4 | | } } | | } | [ g [ 4 < b 4 4 } < 6   ",
", 3 l _ k l | | [ [ [ | [ < l [ g 2 S.O.G T.4 I k.@.t 4 b 5 < } | | | | 4 } [ g [ | l < 4 4 l l 6   ",
", 1 4 l } } [ | [ g g [ [ [ | [ 2 g n.m.d.U.X ].l.d.~.} < e 6 5 4 } } | } | g 2 g | 4 l < l < 4 6   ",
"  } 4 < 4 } 4 } | | [ g [ [ [ g 2 2 2 r.d./.Q./.G l.A l l 5 f _ e b } | [ g g g [ | } b b 5 e f 7 - ",
", 2 4 l l b < 4 4 < 4 [ g [ g | [ g g V.j.k.S.j.G 4.m.t l b f 7 k 6 < | [ g [ [ | } 5 f k 7 a a / > ",
"- 2 } 4 l : e } | < < | | | } b 5 } [ c./.l.b.W.d.K.2.l b 5 k ^ 7 k 6 5 < } } g 4 < k ( m m ( a a d ",
"s.1 } } } 4 l [ g [ [ [ 4 4 b f k : l X.4.4.Y 9.G Y.e b b : _ a 7 a k 7 7 6 e : k 0 r i n q 8 / k # ",
"D.3 } } } } 4 [ [ | | | < 5 _ 0 ( a Z.j.Z.`. +].G :..+l < < e _ / ( ^ ^ ( a _ a 8 q q p n i m 9 / [ ",
"  [ [ | } 4 4 } } } 4 | 4 5 k / / k ++I.^ 0 Q G 1.!.@+< e f a / 8 j 0 7 _ k / j i h r h h i h 8 0 # ",
"s.5 [ l b e < } l b e b 4 b < e 6 : f k 7 / / Q B.y 5 e _ ^ 9 m m 9 ^ a k 7 m p p r ( 0 9 j j 9 / * ",
"# a 6 e _ 7 _ e : e f _ _ 6 e b b _ a 7 7 ( j m h m ( k : a 8 r m ( ^ k k ^ j p o h ( / 7 ^ / 0 / g.",
"g./ _ 6 : _ a _ 4 @ 1 5 e 5 b < 6 a 7 _ : k h n p o n 0 a _ ^ ( ^ e 5 l b 6 ^ 9 m n r 9 k 6 a ^ / # ",
"          $ $ $ v x.v % * * . = > @ @ d d >               > @ u + = * $ . d @ C.C.    D.% # s.s.& D."};
