/* XPM */
static char * exit_open_xpm[] = {
"50 50 141 2",
"  	c None",
". 	c #000000",
"+ 	c #121212",
"@ 	c #171717",
"# 	c #181818",
"$ 	c #141414",
"% 	c #101010",
"& 	c #0F0F0F",
"* 	c #0E0E0E",
"= 	c #111111",
"- 	c #131313",
"; 	c #0D0D0D",
"> 	c #040404",
", 	c #161616",
"' 	c #0C0C0C",
") 	c #0B0B0B",
"! 	c #050505",
"~ 	c #212121",
"{ 	c #070707",
"] 	c #090909",
"^ 	c #202020",
"/ 	c #363636",
"( 	c #373737",
"_ 	c #393939",
": 	c #323232",
"< 	c #2F2F2F",
"[ 	c #2B2B2B",
"} 	c #262626",
"| 	c #282828",
"1 	c #272727",
"2 	c #232323",
"3 	c #242424",
"4 	c #222222",
"5 	c #292929",
"6 	c #2D2D2D",
"7 	c #303030",
"8 	c #353535",
"9 	c #3B3B3B",
"0 	c #3A3A3A",
"a 	c #383838",
"b 	c #343434",
"c 	c #2C2C2C",
"d 	c #464646",
"e 	c #151515",
"f 	c #2E2E2E",
"g 	c #313131",
"h 	c #252525",
"i 	c #3F3F3F",
"j 	c #404040",
"k 	c #3C3C3C",
"l 	c #333333",
"m 	c #2A2A2A",
"n 	c #3D3D3D",
"o 	c #424242",
"p 	c #444444",
"q 	c #434343",
"r 	c #414141",
"s 	c #3E3E3E",
"t 	c #454545",
"u 	c #1C1C1C",
"v 	c #1B1B1B",
"w 	c #1A1A1A",
"x 	c #1E1E1E",
"y 	c #1D1D1D",
"z 	c #1F1F1F",
"A 	c #191919",
"B 	c #0A0A0A",
"C 	c #080808",
"D 	c #535353",
"E 	c #4D4D4D",
"F 	c #5B5B5B",
"G 	c #515151",
"H 	c #626262",
"I 	c #565656",
"J 	c #818181",
"K 	c #575757",
"L 	c #4E4E4E",
"M 	c #4F4F4F",
"N 	c #494949",
"O 	c #727272",
"P 	c #666666",
"Q 	c #828282",
"R 	c #848484",
"S 	c #838383",
"T 	c #767676",
"U 	c #5A5A5A",
"V 	c #595959",
"W 	c #868686",
"X 	c #7D7D7D",
"Y 	c #8C8C8C",
"Z 	c #888888",
"` 	c #7F7F7F",
" .	c #7C7C7C",
"..	c #858585",
"+.	c #808080",
"@.	c #989898",
"#.	c #8D8D8D",
"$.	c #8B8B8B",
"%.	c #878787",
"&.	c #9C9C9C",
"*.	c #919191",
"=.	c #939393",
"-.	c #969696",
";.	c #7B7B7B",
">.	c #929292",
",.	c #959595",
"'.	c #545454",
").	c #909090",
"!.	c #555555",
"~.	c #8A8A8A",
"{.	c #9A9A9A",
"].	c #7E7E7E",
"^.	c #5F5F5F",
"/.	c #9B9B9B",
"(.	c #949494",
"_.	c #676767",
":.	c #7A7A7A",
"<.	c #6D6D6D",
"[.	c #636363",
"}.	c #898989",
"|.	c #505050",
"1.	c #696969",
"2.	c #8F8F8F",
"3.	c #4C4C4C",
"4.	c #646464",
"5.	c #8E8E8E",
"6.	c #5C5C5C",
"7.	c #484848",
"8.	c #999999",
"9.	c #9D9D9D",
"0.	c #525252",
"a.	c #616161",
"b.	c #6A6A6A",
"c.	c #5D5D5D",
"d.	c #797979",
"e.	c #585858",
"f.	c #787878",
"g.	c #757575",
"h.	c #060606",
"i.	c #030303",
"j.	c #010101",
". + @ # . # $ % & * & = + - = & ; ; ; ; * * * . . > $ , . @ ' ) . * . . ! ~ * { { ] = + ^ . . . . . ",
"' ^ / ( _ : < < [ } } | 1 | | } 2 2 2 ~ 2 3 4 | 5 6 7 8 9 _ } 3 9 0 a 8 7 b 5 ~ 4 } 6 : c < d d d e ",
". : 7 7 f 6 f 7 g < 6 g < [ 1 1 } } 1 } h } } } 1 5 | 6 ( i i j j k ( l 7 : l 6 m [ f l a n o p d = ",
". f 6 m 1 1 1 m c c f 8 8 6 m | 1 } h h h h h } } } } 5 < a j p q r k b 6 [ c c [ [ [ [ 7 l a i q . ",
". 5 5 | 1 } } } 1 } m 6 < f f 6 m 1 } h } h h | 5 | 1 | 5 7 a i o q r 0 7 5 1 m [ 6 6 c 6 6 7 ( a . ",
". 1 m 1 | | } h h } } } | } 5 c m | 1 | | h h 1 [ [ 5 | 1 [ g ( s o q i a 6 1 m [ 6 f f f < g / s . ",
". 2 1 1 } m 5 1 h 3 3 h h h h 3 h } } | m } h h 5 c m 1 h | 5 < ( s o o i _ < c [ 6 f 7 < / k i j . ",
"= 2 h 3 } 1 | 1 } h 3 h h h h } h h h h 3 3 h 3 | 5 m | } | 5 6 : 0 j j i i 0 b f 6 7 l b _ o p q = ",
"; } } h h } h h } h h h h 3 h 1 h h h 3 ~ 3 3 h 1 m c f [ c 7 b b ( k s 9 9 n i _ b l ( 0 9 j p t u ",
"* | h h h h 3 3 h } } } } h h } } 2 v w w @ u x ^ 3 5 1 [ ~ x 5 _ _ _ 0 0 0 n j j s k k j r r t d u ",
"' } h } h h h 3 3 h } | 1 h 3 ~ e v ~ y z x z ^ 4 v h 6 1 y e y v < _ _ 9 k s i j o q p t t d d d y ",
"' h h } h h h } h 3 h | | h 3 A # ~ $ + $ $ $ $ * ] % % B $ x @ x | 9 a / a s j j j r t d d d d d y ",
"' h } } } } h 1 } 3 3 3 2 3 ^ A @ > C & - - - - $ = - , = e ' % - 1 _ a b l 0 s s s i r p t d d d + ",
"' h h } } h h h } h h 2 4 2 ^ ) w z A A u z z z ~ 2 2 4 h } D 5 # } ( a 8 g g a 9 n n n r q p d d ~ ",
"' 3 h h h 1 } h h h 3 4 4 2 2 e u E F w z u v v z 4 2 } h G H 0 v [ 0 _ ( b 7 g l ( 9 i r q p t d + ",
") } 1 } h | 1 h h } h 3 2 4 2 # w I J G r r r K L M D F N O P | y m 0 a ( ( 8 g 6 7 / 9 i o q p t . ",
") } 5 | h } } h h 1 } h 2 2 2 A A E Q R S T # H U V U m J W X | w 5 : b b b l l l g l / 0 i r o q . ",
") 1 5 5 | 1 } } } } 1 1 h h 3 w w s Y R Z S u Q W Q ` |  ...+.2 A y g < g : 7 : b ( 9 9 a k j j j . ",
"' 1 | 5 m 5 | 5 1 } } } } h h w w s @.#.Y $.r %.W S  .< Q J X i e @ 6 [ 6 7 7 g 8 n o r i j r i s . ",
"' } | } | 5 | 5 | 1 h 3 } } h A # s &.*.=.-.n %.Z W W | S W ;.4 A , c 1 5 m f / 9 j t t t p p r _ # ",
"{ | | 1 | | 1 5 | } } h h h h w A r &.*.>.,.d H '.9 U [  .W X l $ $ 6 | | [ f 8 9 j p p t p q o 0 A ",
". | | | 5 m 5 | } h h h } } } x , r &.).>.X !.%.~.%.Z $ Z %.X o $ v 5 5 5 [ 6 g / k j o p q q q 9 A ",
". } } } | 5 5 [ | 1 } } 1 } 1 z , '.{.*.=.$.D J Z %.Z d ).%.].p = x | | 5 m [ 6 : a s r o o o p n v ",
". h } } } } 1 5 1 1 | 1 | | [ 2 @ ^./.*.(.$.d Z Q %.$./ ~.Z S p e ~ } | | 5 m m f 8 k j r r r q s u ",
". h } 1 1 | 1 } } h } } } | m 2 A _.{.*.(.:.0 H <.H [.s Z }.W |.@ x 1 | 1 | | | [ : 0 i r j j r o . ",
"' h } | | 5 5 1 } h h h h 1 | ~ w 1.@.(.2.~.E %.$.%.Y 3.Z }...|.w v 1 5 | } } } } [ 8 n s n n j o . ",
"B ~ 1 5 m m | 1 } | | 1 h h h y A 4.{.,.5.~.3.%.#.Z 5.d Z ~...M w w h h h h } } 1 | < / / b 8 0 s x ",
"; 3 | | m [ | 1 1 | 5 5 1 h h u , F {.,.2.2.N %.$.}.$.M %.~.+.E w A 2 2 2 3 h h } | 5 6 6 c f b 0 , ",
". f m | | 5 1 } 1 1 | [ | 1 } A x 6.{.=.(.5.p H H H 4.7.%.}.S o , e 2 4 3 3 h h 1 | [ c [ 5 [ < / . ",
". c 5 | } } } h } } 5 < [ 5 | v ~ G 8.,.9.-.p %.%.%.%.M %.~.` l v w 3 2 h h 3 h h | c f 7 f 6 < / . ",
". | 1 | 5 1 1 } } 3 } m m h 1 A ^ 0.&.9.9.~.|.J %.}.:.7.%.$.  l w w 3 h h 3 3 h h } 5 6 : / ( _ 0 . ",
". } 1 } | 1 1 | | h h } h h h @ f [.{.8.&.Z '.%.%.}.R G +.}.S : w w h h h 2 3 } } h } 5 f 8 a a 9 . ",
". 1 m [ 5 } 1 | 1 h h } } 1 } @ z a.{.8.9.~.s b.b.H c.E R R ).k v v } h h 3 h h h } h h | 6 f 7 b . ",
"' 4 6 f [ | } 1 1 h 3 h 1 1 1 # z 6.(./.{.>.r W X Y ].0 S ..>.l u u 1 h h h h h h } h h } 1 } m c . ",
"' ~ | m 5 } h } 1 | 1 } } 1 h e ~ '.>.*.#.d.e.~.2.).Q d ).}.5.l @ x } h h h h h h } h } } } 1 5 5 . ",
"' ~ h 1 | } } h h 1 | 1 } 1 1 # ~ K f.+.R >.M %.#.>.,.t 2.).Y D & v h h h h h h h } } 1 } } | [ c . ",
"; ~ h m [ m 1 } h } 1 h h | 1 v y q G q : g.b.4.4.[.|.o q o e.L ! A } h } } h h } 5 5 5 | 1 } [ < . ",
"' 2 m 7 < m } } } | 1 1 1 | 1 y ; x v w v , A w w @ @ e # , # & ] 3 1 1 | 1 } h } 5 [ c 5 5 | [ 7 . ",
"' 4 m : l m 1 1 } } } 1 } [ m ^ $ ' = , e @ # , e - - @ z @ = - ; h 1 1 5 | } h } 1 m [ 5 5 m m 7 . ",
"' 2 5 m | | } 1 } h h } } } 1 } 3 h 2 A = = = e $ - $ $ # h 6 6 5 | | 1 | 1 h 3 h 1 5 m [ m [ 5 7 . ",
". | 5 [ 5 | 5 | 1 1 } h } } } h 3 3 3 1 1 | | m [ m [ m m 6 g : f c | 1 } h h h } 1 | c c 6 f g 8 ; ",
"' 3 5 m m c [ 5 5 [ 5 } h } h 1 } h h } } } 5 < : 6 [ m m c g 8 l 7 [ 1 } h } } 1 | 6 g l 8 b b ( , ",
"; 3 | 5 m < f | 1 [ [ 1 1 1 | c 6 | } 1 } } c : 8 : 6 m c 6 l / 8 l 7 6 [ | | h 5 [ l _ n n _ b b e ",
"B 2 | | | 5 m } h } } } 5 5 c g l < m [ c c 6 l l : f c c < : b 8 b l 8 8 7 f < l a s j o r 9 ( l $ ",
"h.4 | | | | 5 } } 1 1 1 [ 6 : a _ b < < l / / / 8 7 m m [ [ f : ( _ / / _ b : b 9 r r q o j n 0 ( } ",
". } } 1 | 5 5 | | | 5 1 5 6 l ( ( l g l / a ( ( 8 6 | [ f g b ( 9 k a 8 : l ( k j i s i i j i 9 a $ ",
"B 6 } m c f [ | m c f c 5 c [ f 7 < g l 8 ( ( a a g 6 f : / 0 n n 0 / b l 8 n q q s _ a 0 k k 0 ( = ",
"$ b 7 f : 8 : f < f g : : 7 f c c : b 8 8 _ k n i n _ l < b 9 s n _ / l l / k q p i _ ( 8 / ( a ( v ",
"v ( : 7 < : b : 5 # 2 6 f 6 c [ 7 b 8 : < l i o q p o a b : / _ / f 6 m c 7 / 0 n o s 0 l 7 b / ( $ ",
". . . . . % % % i.j.i.& = = + - , # # e e , . . . . . . . , # A @ - = % + e # w w . . h.& $ B B * h."};
