/* XPM */
static char * exit_xpm[] = {
"50 50 103 2",
"  	c #000000",
". 	c #121212",
"+ 	c #171717",
"@ 	c #181818",
"# 	c #141414",
"$ 	c #101010",
"% 	c #0F0F0F",
"& 	c #0E0E0E",
"* 	c #111111",
"= 	c #131313",
"- 	c #0D0D0D",
"; 	c #040404",
"> 	c #161616",
", 	c #0C0C0C",
"' 	c #0B0B0B",
") 	c #050505",
"! 	c #212121",
"~ 	c #070707",
"{ 	c #090909",
"] 	c #202020",
"^ 	c #363636",
"/ 	c #373737",
"( 	c #393939",
"_ 	c #323232",
": 	c #2F2F2F",
"< 	c #2B2B2B",
"[ 	c #262626",
"} 	c #282828",
"| 	c #272727",
"1 	c #232323",
"2 	c #242424",
"3 	c #222222",
"4 	c #292929",
"5 	c #2D2D2D",
"6 	c #303030",
"7 	c #353535",
"8 	c #3B3B3B",
"9 	c #3A3A3A",
"0 	c #383838",
"a 	c #343434",
"b 	c #2C2C2C",
"c 	c #464646",
"d 	c #151515",
"e 	c #2E2E2E",
"f 	c #313131",
"g 	c #252525",
"h 	c #3F3F3F",
"i 	c #404040",
"j 	c #3C3C3C",
"k 	c #333333",
"l 	c #2A2A2A",
"m 	c #3D3D3D",
"n 	c #424242",
"o 	c #444444",
"p 	c #434343",
"q 	c #414141",
"r 	c #3E3E3E",
"s 	c #454545",
"t 	c #1C1C1C",
"u 	c #1B1B1B",
"v 	c #1A1A1A",
"w 	c #1E1E1E",
"x 	c #1D1D1D",
"y 	c #1F1F1F",
"z 	c #191919",
"A 	c #0A0A0A",
"B 	c #080808",
"C 	c #535353",
"D 	c #4D4D4D",
"E 	c #515151",
"F 	c #626262",
"G 	c #585858",
"H 	c #494949",
"I 	c #505050",
"J 	c #4A4A4A",
"K 	c #545454",
"L 	c #5A5A5A",
"M 	c #565656",
"N 	c #4F4F4F",
"O 	c #575757",
"P 	c #484848",
"Q 	c #555555",
"R 	c #474747",
"S 	c #525252",
"T 	c #5B5B5B",
"U 	c #636363",
"V 	c #5D5D5D",
"W 	c #4E4E4E",
"X 	c #666666",
"Y 	c #5E5E5E",
"Z 	c #5F5F5F",
"` 	c #030303",
" .	c #4C4C4C",
"..	c #676767",
"+.	c #010101",
"@.	c #696969",
"#.	c #646464",
"$.	c #5C5C5C",
"%.	c #595959",
"&.	c #656565",
"*.	c #606060",
"=.	c #616161",
"-.	c #060606",
"  . + @   @ # $ % & % * . = * % - - - - & & &     ; # >   + , '   &     ) ! & ~ ~ { * . ]           ",
", ] ^ / ( _ : : < [ [ } | } } [ 1 1 1 ! 1 2 3 } 4 5 6 7 8 ( [ 2 8 9 0 7 6 a 4 ! 3 [ 5 _ b : c c c d ",
"  _ 6 6 e 5 e 6 f : 5 f : < | | [ [ | [ g [ [ [ | 4 } 5 / h h i i j / k 6 _ k 5 l < e k 0 m n o c * ",
"  e 5 l | | | l b b e 7 7 5 l } | [ g g g g g [ [ [ [ 4 : 0 i o p q j a 5 < b b < < < < 6 k 0 h p   ",
"  4 4 } | [ [ [ | [ l 5 : e e 5 l | [ g [ g g } 4 } | } 4 6 0 h n p q 9 6 4 | l < 5 5 b 5 5 6 / 0   ",
"  | l | } } [ g g [ [ [ } [ 4 b l } | } } g g | < < 4 } | < f / r n p h 0 5 | l < 5 e e e : f ^ r   ",
"  1 | | [ l 4 | g 2 2 g g g g 2 g [ [ } l [ g g 4 b l | g } 4 : / r n n h ( : b < 5 e 6 : ^ j h i   ",
"* 1 g 2 [ | } | [ g 2 g g g g [ g g g g 2 2 g 2 } 4 l } [ } 4 5 _ 9 i i h h 9 a e 5 6 k a ( n o p * ",
"- [ [ g g [ g g [ g g g g 2 g | g g g 2 ! 2 2 g | l b e < b 6 a a / j r 8 8 m h ( a k / 9 8 i o s t ",
"& } g g g g 2 2 g [ [ [ [ g g [ [ 1 u v v + t w ] 2 4 | < ! w 4 ( ( ( 9 9 9 m i i r j j i q q s c t ",
", [ g [ g g g 2 2 g [ } | g 2 ! d u ! x y w y ] 3 u g 5 | x d x u : ( ( 8 j r h i n p o s s c c c x ",
", g g [ g g g [ g 2 g } } g 2 z @ ! # . # # # # & { $ $ A # w + w } 8 0 ^ 0 r i i i q s c c c c c x ",
", g [ [ [ [ g | [ 2 2 2 1 2 ] z + ; B % = = = = # * = > * d , $ = | ( 0 a k 9 r r r h q o s c c c . ",
", g g [ [ g g g [ g g 1 3 1 ] ' v y z z t y y y ! 1 1 3 g [ C 4 @ [ / 0 7 f f 0 8 m m m q p o c c ! ",
", 2 g g g | [ g g g 2 3 3 1 1 d t D D v y t u u y 3 1 [ g E F 9 u < 9 ( / a 6 f k / 8 h q p o s c . ",
"' [ | [ g } | g g [ g 2 1 3 1 @ v G H q q q q I o c J K H L M } x l 9 0 / / 7 f 5 6 ^ 8 h n p o s   ",
"' [ 4 } g [ [ g g | [ g 1 1 1 z z N C O q n q N n s P C E I Q } v 4 _ a a a k k k f k ^ 9 h q n p   ",
"' | 4 4 } | [ [ [ [ | | g g 2 v v q R D 8 O R q D E S C K n K 1 z x f : f _ 6 _ a / 8 8 0 j i i i   ",
", | } 4 l 4 } 4 | [ [ [ [ g g v v q N T U T i q E E E S V n W 6 d + 5 < 5 6 6 f 7 m n q h i q h r   ",
", [ } [ } 4 } 4 } | g 2 [ [ g z @ q G F R 1 x u e ] 1 3 o n K 3 z > b | 4 l e ^ 8 i s s s o o q ( @ ",
"~ } } | } } | 4 } [ [ g g g g v z q X c x d w u @ d d > # K D k # # 5 } } < e 7 8 i o o s o p n 9 z ",
"  } } } 4 l 4 } [ g g g [ [ [ w > q X ! = ] c 6 i T N 2 ~ o H n # u 4 4 4 < 5 f ^ j i n o p p p 8 z ",
"  [ [ [ } 4 4 < } | [ [ | [ | y > K Y ] > c 0 A { ~ G o * l L o * w } } 4 l < 5 _ 0 r q n n n o m u ",
"  g [ [ [ [ | 4 | | } | } } < 1 + Z Z t + M d | ` [ -  .b y E o d ! [ } } 4 l l e 7 j i q q q p r t ",
"  g [ | | } | [ [ g [ [ [ } l 1 z ..Z + # K > ] +.! @  .w & T I + w | } | } } } < _ 9 h q i i q n   ",
", g [ } } 4 4 | [ g g g g | } ! v @.L ! = G . { x A = 9 w +  .I v u | 4 } [ [ [ [ < 7 m r m m i n   ",
"A ! | 4 l l } | [ } } | g g g x z #.L t $ L $.x , *  . .z v N N v v g g g g [ [ | } : ^ ^ a 7 9 r w ",
"- 2 } } l < } | | } 4 4 | g g t > T ..q ' ] W K K q V 1 w w _ D v z 1 1 1 2 g g [ } 4 5 5 b e a 9 > ",
"  e l } } 4 | [ | | } < } | [ z w E K O : $ % x u t z # v g q n > d 1 3 2 2 g g | } < b < 4 < : ^   ",
"  b 4 } [ [ [ g [ [ 4 : < 4 } u ! n O Y m [ t t t @ v = [ C D k u v 2 1 g g 2 g g } b e 6 e 5 : ^   ",
"  } | } 4 | | [ [ 2 [ l l g | z ] n V Y ..m P P P R C q I N D k v v 2 g g 2 2 g g [ 4 5 _ ^ / ( 9   ",
"  [ | [ } | | } } g g [ g g g + e %.L K @.&.Z *.Z X #.=.R N U _ v v g g g 1 2 [ [ g [ 4 e 7 0 0 8   ",
"  | l < 4 [ | } | g g [ [ | [ + y O Z $.Y I Y T =.U O O =.$.X j u u [ g g 2 g g g [ g g } 5 e 6 a   ",
", 3 5 e < } [ | | g 2 g | | | @ y $.%.q q I L G o p p P M D =.k t t | g g g g g g [ g g [ | [ l b   ",
", ! } l 4 [ g [ | } | [ [ | g d ! K K q q q n p n n n q q D E k + w [ g g g g g g [ g [ [ [ | 4 4   ",
", ! g | } [ [ g g | } | [ | | @ ! O F q D q I n n n n q n n F C % u g g g g g g g [ [ | [ [ } < b   ",
"- ! g l < l | [ g [ | g g } | u x p E n _ q I p p q q n p n G W ) z [ g [ [ g g [ 4 4 4 } | [ < :   ",
", 1 l 6 : l [ [ [ } | | | } | x - w u v u > z v v + + d @ > @ % { 2 | | } | [ g [ 4 < b 4 4 } < 6   ",
", 3 l _ k l | | [ [ [ | [ < l ] # , * > d + @ > d = = + y + * = - g | | 4 } [ g [ | l < 4 4 l l 6   ",
", 1 4 l } } [ | [ g g [ [ [ | [ 2 g 1 z * * * d # = # # @ g 5 5 4 } } | } | g 2 g | 4 l < l < 4 6   ",
"  } 4 < 4 } 4 } | | [ g [ [ [ g 2 2 2 | | } } l < l < l l 5 f _ e b } | [ g g g [ | } b b 5 e f 7 - ",
", 2 4 l l b < 4 4 < 4 [ g [ g | [ g g [ [ [ 4 : _ 5 < l l b f 7 k 6 < | [ g [ [ | } 5 f k 7 a a / > ",
"- 2 } 4 l : e } | < < | | | } b 5 } [ | [ [ b _ 7 _ 5 l b 5 k ^ 7 k 6 5 < } } g 4 < k ( m m ( a a d ",
"A 1 } } } 4 l [ g [ [ [ 4 4 b f k : l < b b 5 k k _ e b b : _ a 7 a k 7 7 6 e : k 0 r i n q 8 / k # ",
"-.3 } } } } 4 [ [ | | | < 5 _ 0 ( a : : k ^ ^ ^ 7 6 l l < < e _ / ( ^ ^ ( a _ a 8 q q p n i m 9 / [ ",
"  [ [ | } 4 4 } } } 4 | 4 5 k / / k f k ^ 0 / / 7 5 } < e f a / 8 j 0 7 _ k / j i h r h h i h 8 0 # ",
"A 5 [ l b e < } l b e b 4 b < e 6 : f k 7 / / 0 0 f 5 e _ ^ 9 m m 9 ^ a k 7 m p p r ( 0 9 j j 9 / * ",
"# a 6 e _ 7 _ e : e f _ _ 6 e b b _ a 7 7 ( j m h m ( k : a 8 r m ( ^ k k ^ j p o h ( / 7 ^ / 0 / u ",
"u / _ 6 : _ a _ 4 @ 1 5 e 5 b < 6 a 7 _ : k h n p o n 0 a _ ^ ( ^ e 5 l b 6 ^ 9 m n r 9 k 6 a ^ / # ",
"          $ $ $ ` +.` % * * . = > @ @ d d >               > @ z + = * $ . d @ v v     -.% # A A & -."};
