/* XPM */
static char * none_xpm[] = {
"50 50 53 1",
" 	c #40CA00",
".	c #3BBD00",
"+	c #3EC400",
"@	c #3FC800",
"#	c #3FC700",
"$	c #3FC900",
"%	c #32A400",
"&	c #39B700",
"*	c #3ABB00",
"=	c #3BBF00",
"-	c #3CC100",
";	c #3DC300",
">	c #3DC200",
",	c #3DC100",
"'	c #3CC000",
")	c #3BBC00",
"!	c #38B400",
"~	c #36AF00",
"{	c #34A900",
"]	c #33A600",
"^	c #31A100",
"/	c #2F9C00",
"(	c #41CB00",
"_	c #40CB00",
":	c #000000",
"<	c #41CE00",
"[	c #3EC600",
"}	c #3EC500",
"|	c #36B000",
"1	c #40CC00",
"2	c #42D000",
"3	c #40C900",
"4	c #41CF00",
"5	c #3EC700",
"6	c #42D200",
"7	c #43D300",
"8	c #44D500",
"9	c #45D900",
"0	c #48E200",
"a	c #45DA00",
"b	c #44D600",
"c	c #2B9100",
"d	c #000100",
"e	c #32A300",
"f	c #35AB00",
"g	c #38B600",
"h	c #36AE00",
"i	c #3BBE00",
"j	c #3AB900",
"k	c #39B800",
"l	c #37B300",
"m	c #35AC00",
"n	c #41CC00",
"  .+@@@@@@@@@@@@@@@@@@@@@@@@@@@@@@@@@@@@@@@@@@@@@#",
"@@@+@@@@@@@@@@@@@@@@@@@@@@@@@@@@@@@@@@@@@@@@@@##@@",
"@@$%&*=-++;>,')&!~{{{{]^//////////////////////^,@@",
"($_::::::::::::::::::::::::::::::::::::::::::::>@@",
"<$@::::::::::::::::::::::::::::::::::::::::::::[@@",
"<$@::::::::::::::::::::::::::::::::::::::::::::}@@",
"<$}::::::::::::::::::::::::::::::::::::::::::::'@#",
"<$>::::::::::::::::::::::::::::::::::::::::::::|}}",
"<$.::::::::::::::::::::::::::::::::::::::::::::/>>",
"<$.::::::::::::::::::::::::::::::::::::::::::::/>>",
"<$*::::::::::::::::::::::::::::::::::::::::::::/>>",
"11#::::::::::::::::::::::::::::::::::::::::::::/>>",
"2@ ::::::::::::::::::::::::::::::::::::::::::::{}}",
"3<4::::::::::::::::::::::::::::::::::::::::::::{55",
"@2@::::::::::::::::::::::::::::::::::::::::::::{}}",
"$6@::::::::::::::::::::::::::::::::::::::::::::/>>",
"$7@::::::::::::::::::::::::::::::::::::::::::::/>>",
"$8@::::::::::::::::::::::::::::::::::::::::::::/>>",
" 9@::::::::::::::::::::::::::::::::::::::::::::/>>",
"_0@::::::::::::::::::::::::::::::::::::::::::::/>>",
"<0@::::::::::::::::::::::::::::::::::::::::::::/>>",
"_0@::::::::::::::::::::::::::::::::::::::::::::/>>",
"_a@::::::::::::::::::::::::::::::::::::::::::::/>>",
"$b@::::::::::::::::::::::::::::::::::::::::::::/>>",
"$6@::::::::::::::::::::::::::::::::::::::::::::/>>",
"@2@::::::::::::::::::::::::::::::::::::::::::::/>>",
"@4@::::::::::::::::::::::::::::::::::::::::::::/>>",
"@4@::::::::::::::::::::::::::::::::::::::::::::/>>",
"@4@::::::::::::::::::::::::::::::::::::::::::::/>>",
"@4@::::::::::::::::::::::::::::::::::::::::::::/>>",
"$<@::::::::::::::::::::::::::::::::::::::::::::/>>",
"$<@::::::::::::::::::::::::::::::::::::::::::::/>>",
"$<@::::::::::::::::::::::::::::::::::::::::::::/>>",
"3<6::::::::::::::::::::::::::::::::::::::::::::/>>",
"112::::::::::::::::::::::::::::::::::::::::::::/>>",
"114::::::::::::::::::::::::::::::::::::::::::::/>>",
"__@::::::::::::::::::::::::::::::::::::::::::::/>>",
"__@::::::::::::::::::::::::::::::::::::::::::::/>>",
"__@::::::::::::::::::::::::::::::::::::::::::::c>>",
"__@:::::::::::::d::::::::::::::::::::::::::::::e;#",
"__@::::::::::::::::::::::::::::::::::::::::::::f@@",
"__@::::::::::::::::::::::::::::::::::::::::::::g@@",
"__@::::::::::::::::::::::::::::::::::::::::::::!@@",
"<$@::::::::::::::::::::::::::::::::::::::::::::!@@",
"  @::::::::::::::::::::::::::::::::::::::::::::h@@",
"$$@::::::::::::::::::::::::::::::::::::::::::::]#@",
"$ @::::::::::::::::::::::::::::::::::::::::::::{@@",
"@@@;>-'>>>''i)jjjjjjjjjkg!!!!!!!&lm///////{{{//&@@",
"$@@@@@@@@@@@@@@@@@@@@@@@@@@@@@@@@@#########@####@@",
"n$@####@@@###@@@@@@@@@@@@@@@@@@@@@@@@@@@@@@@@@@@@@"};
