/* XPM */
static char * on_xpm[] = {
"35 35 61 1",
" 	c #8F8F8F",
".	c #D4B764",
"+	c #FFD200",
"@	c #FACF24",
"#	c #92908E",
"$	c #F1C93B",
"%	c #E0BE57",
"&	c #A59B86",
"*	c #C0AA76",
"=	c #CBB16D",
"-	c #FDD110",
";	c #99948B",
">	c #EAC44A",
",	c #E8C34C",
"'	c #9A958B",
")	c #FED10E",
"!	c #CAB16E",
"~	c #C1AC74",
"{	c #A39986",
"]	c #E2BF55",
"^	c #F0C83E",
"/	c #93918D",
"(	c #FACF21",
"_	c #D3B666",
":	c #B7A57B",
"<	c #AFA080",
"[	c #D9BA5F",
"}	c #F7CD2E",
"|	c #90908F",
"1	c #F5CC32",
"2	c #DCBB5D",
"3	c #AC9F82",
"4	c #B9A77A",
"5	c #D1B568",
"6	c #FCD01B",
"7	c #94928D",
"8	c #EEC742",
"9	c #E4C053",
"0	c #A09888",
"a	c #C4AD73",
"b	c #C7AE70",
"c	c #FED207",
"d	c #9C9689",
"e	c #E7C24F",
"f	c #ECC547",
"g	c #97938C",
"h	c #FDD115",
"i	c #CDB26B",
"j	c #BDA877",
"k	c #A89D84",
"l	c #DEBE5A",
"m	c #F3CA37",
"n	c #918F8E",
"o	c #F9CF28",
"p	c #D6B862",
"q	c #B3A27E",
"r	c #B4A37D",
"s	c #D6B763",
"t	c #F9CE26",
"u	c #F2CA39",
"v	c #DFBD59",
"                                   ",
"                                   ",
"                                   ",
"                                   ",
"                                   ",
"                  .+@#             ",
"                  $+%              ",
"                 &++*              ",
"                 =+-;              ",
"                 >+,               ",
"                ')+!               ",
"                ~++{               ",
"                ]+^                ",
"               /(+_                ",
"               :++<                ",
"               [+}|                ",
"               1+2                 ",
"              3++4                 ",
"              5+67                 ",
"              8+9                  ",
"             0++a                  ",
"             b+cd                  ",
"             e+f                   ",
"            gh+i                   ",
"            j++k                   ",
"            l+m                    ",
"           no+p                    ",
"           q++r                    ",
"           s+tn                    ",
"           u+v                     ",
"                                   ",
"                                   ",
"                                   ",
"                                   ",
"                                   "};
