/* XPM */
static char * player_shoot_l_xpm[] = {
"50 50 103 2",
"  	c #000000",
". 	c #121212",
"+ 	c #171717",
"@ 	c #181818",
"# 	c #141414",
"$ 	c #101010",
"% 	c #0F0F0F",
"& 	c #0E0E0E",
"* 	c #111111",
"= 	c #131313",
"- 	c #0D0D0D",
"; 	c #040404",
"> 	c #161616",
", 	c #0C0C0C",
"' 	c #0B0B0B",
") 	c #050505",
"! 	c #212121",
"~ 	c #070707",
"{ 	c #090909",
"] 	c #202020",
"^ 	c #363636",
"/ 	c #373737",
"( 	c #393939",
"_ 	c #323232",
": 	c #2F2F2F",
"< 	c #2B2B2B",
"[ 	c #262626",
"} 	c #282828",
"| 	c #272727",
"1 	c #232323",
"2 	c #242424",
"3 	c #222222",
"4 	c #292929",
"5 	c #2D2D2D",
"6 	c #303030",
"7 	c #353535",
"8 	c #3B3B3B",
"9 	c #3A3A3A",
"0 	c #383838",
"a 	c #343434",
"b 	c #2C2C2C",
"c 	c #464646",
"d 	c #151515",
"e 	c #2E2E2E",
"f 	c #313131",
"g 	c #252525",
"h 	c #3F3F3F",
"i 	c #404040",
"j 	c #3C3C3C",
"k 	c #333333",
"l 	c #2A2A2A",
"m 	c #3D3D3D",
"n 	c #424242",
"o 	c #444444",
"p 	c #434343",
"q 	c #414141",
"r 	c #1E1E1E",
"s 	c #3E3E3E",
"t 	c #0A0A0A",
"u 	c #020202",
"v 	c #1A1A1A",
"w 	c #010101",
"x 	c #080808",
"y 	c #030303",
"z 	c #493807",
"A 	c #181001",
"B 	c #454545",
"C 	c #1C1C1C",
"D 	c #987719",
"E 	c #D3A527",
"F 	c #A27F1B",
"G 	c #4E3C08",
"H 	c #1D1D1D",
"I 	c #5F2323",
"J 	c #602525",
"K 	c #9D1E1E",
"L 	c #8C1F1F",
"M 	c #191919",
"N 	c #1F1F1F",
"O 	c #1B1B1B",
"P 	c #8D2121",
"Q 	c #CC1616",
"R 	c #B67F7F",
"S 	c #E27373",
"T 	c #CE6A6A",
"U 	c #A85858",
"V 	c #9E1D1D",
"W 	c #C41717",
"X 	c #060606",
"Y 	c #8D2323",
"Z 	c #C51919",
"` 	c #D27E7E",
" .	c #B27575",
"..	c #AC7F7F",
"+.	c #CB9A9A",
"@.	c #B51A1A",
"#.	c #9B1E1E",
"$.	c #100101",
"%.	c #2B0000",
"&.	c #C51818",
"*.	c #8D2020",
"=.	c #4F0202",
"-.	c #8F0101",
"  . + @   @ # $ % & % * . = * % - - - - & & &     ; # >   + , '   &     ) ! & ~ ~ { * . ]           ",
", ] ^ / ( _ : : < [ [ } | } } [ 1 1 1 ! 1 2 3 } 4 5 6 7 8 ( [ 2 8 9 0 7 6 a 4 ! 3 [ 5 _ b : c c c d ",
"  _ 6 6 e 5 e 6 f : 5 f : < | | [ [ | [ g [ [ [ | 4 } 5 / h h i i j / k 6 _ k 5 l < e k 0 m n o c * ",
"  e 5 l | | | l b b e 7 7 5 l } | [ g g g g g [ [ [ [ 4 : 0 i o p q j a 5 < b b < < < < 6 k 0 h p   ",
"  4 4 } | [ [ [ | [ l 5 : e e 5 l | [ g [ g g } 4 } | } 4 6 6 ^ n p q 9 6 4 | l < 5 5 b 5 5 6 / 0   ",
"  | l | } } [ g g [ [ [ } [ 4 b l } | } } g g | < < 4 2 1 | % r s n p h 0 5 | l < 5 e e e : f ^ s   ",
"  1 | | [ l 4 | g 2 2 g g g g 2 g [ [ } l [ g g 4 l 3 % t ' u $ / s n n h ( : b < 5 e 6 : ^ j h i   ",
"* 1 g 2 [ | } | [ g 2 g g g g [ g g g g 2 2 g 2 } v w         x e 9 i i h h 9 a e 5 6 k a ( n o p * ",
"- [ [ g g [ g g [ g g g g 2 g | g g g 2 1 2 [ | g y z A         g / j s 8 8 m h ( a k / 9 8 i o B C ",
"& } g g g g 2 2 g [ [ [ [ g g [ [ g g 2 2 2 [ } + D E z         d k ( 9 9 9 m i i s j j i q q B c C ",
", [ g [ g g g 2 2 g [ } | g 2 | [ g g g g 2 g [ > F G           = k ( ( 8 j s h i n p o B B c c c H ",
", g g [ g g g [ g 2 g } } g 2 [ g 1 2 g g g g g @ w             # _ 8 0 ^ 0 s i i i q B c c c c c H ",
", g [ [ [ [ g | [ 2 2 2 1 2 1 g 2 1 2 2 g g g g [ ~           w @ f ( 0 a k 9 s s s h q o B c c c . ",
", g g [ [ g g g [ g g 1 3 1 1 2 g g 2 g g g g g | ! ~ w     w y r } / 0 7 f f 0 8 m m m q p o c c ! ",
", 2 g I g J K L L g 1 r ] H M v r N N N N O N N 2 < } u         # N / ( / a 6 f k / 8 h q p o B c . ",
"' [ P Q R S T U V W H * - ~ u u ~ X ) X X u X { - + '       w     r _ 0 / / 7 f 5 6 ^ 8 h n p o B   ",
"' [ Y Z `  ...+.@.#.r , y ) u t ~ u   w u u X { x u $.%.          u 5 a a a k k k f k ^ 9 h q n p   ",
"' | 4 4 } &.*.[ [ [ [ 3 O N M 1 N > ~ ;   ; - # ] - =.-.  w ; y     $ : f _ 6 _ a / 8 8 0 j i i i   ",
", | } 4 l 4 } 4 | [ [ [ [ g g g g [ N r = x u u ~ y ) w     ) )     ; [ 5 6 6 f 7 m n q h i q h s   ",
", [ } [ } 4 } 4 } | g 2 [ [ g 2 1 2 2 g 2 H $ w   w % w   u d O d ~ ~ H 4 l e ^ 8 i B B B o o q ( @ ",
"~ } } | } } | 4 } [ [ g g g g g 2 2 2 1 3 1 2 M = O C     u ' ~ M < 3 } } < e 7 8 i o o B o p n 9 M ",
"  } } } 4 l 4 } [ g g g [ [ [ [ g g 2 3 3 3 g 2 g g +     w { ; M 4 4 4 4 < 5 f ^ j i n o p p p 8 M ",
"  [ [ [ } 4 4 < } | [ [ | [ | | g g 2 1 3 1 g [ [ [ [ ;     ) x C } } } 4 l < 5 _ 0 s q n n n o m O ",
"  g [ [ [ [ | 4 | | } | } } < b [ g g 2 [ 2 g | 4 } 1 u     ; & [ | [ } } 4 l l e 7 j i q q q p s C ",
"  g [ | | } | [ [ g [ [ [ } l b } g [ } 4 } [ | 4 H x u     t > [ [ | } | } } } < _ 9 h q i i q n   ",
", g [ } } 4 4 | [ g g g g | } 4 4 [ } } < e l 4 C , w       X g g [ | 4 } [ [ [ [ < 7 m s m m i n   ",
"t ! | 4 l l } | [ } } | g g g g } } < l | } 4 C . u   u w   w O g g g g g g [ [ | } : ^ ^ a 7 9 s r ",
"- 2 } } l < } | | } 4 4 | g g 1 g | < } [ } 4 d     ; > ; w w $ g 2 1 1 1 2 g g [ } 4 5 5 b e a 9 > ",
"  e l } } 4 | [ | | } < } | [ } [ [ [ [ [ | d w   y 1 r t y u w O g 1 3 2 2 g g | } < b < 4 < : ^   ",
"  b 4 } [ [ [ g [ [ 4 : < 4 } < 4 } } 4 } > w   X g [ [ d   w   . g 2 1 g g 2 g g } b e 6 e 5 : ^   ",
"  } | } 4 | | [ [ 2 [ l l g | } } } } l g ;   w C [ g [ ! ) w   ) H 2 g g 2 2 g g [ 4 5 _ ^ / ( 9   ",
"  [ | [ } | | } } g g [ g g g [ | [ [ [ C u   ) ! [ 2 2 2 H ~ w w H g g g 1 2 [ [ g [ 4 e 7 0 0 8   ",
"  | l < 4 [ | } | g g [ [ | [ [ | [ [ g ] ; u { g 4 | g 1 g H u   X 2 g g 2 g g g [ g g } 5 e 6 a   ",
", 3 5 e < } [ | | g 2 g | | | | | | [ [ M   y & g l 4 | 2 g g > w w v g g g g g g [ g g [ | [ l b   ",
", ! } l 4 [ g [ | } | [ [ | g | | | | g O w w * [ | } [ g [ | [ '   X 1 g g g g g [ g [ [ [ | 4 4   ",
", ! g | } [ [ g g | } | [ | | | 4 l < [ O w w = [ | | [ | | | [ H u   d g g g g g [ [ | [ [ } < b   ",
"- ! g l < l | [ g [ | g g } | [ } l b | M w w = | [ [ | 4 } | | g '   ~ 2 [ g g [ 4 4 4 } | [ < :   ",
", 1 l 6 : l [ [ [ } | | | } | g [ [ [ 1 '   w d } [ [ } < 4 | | } =   w O | [ g [ 4 < b 4 4 } < 6   ",
", 3 l _ k l | | [ [ [ | [ < l [ g 2 2 O w   ~ [ 4 [ [ 4 b 5 < } | ! ) ; + } [ g [ | l < 4 4 l l 6   ",
", 1 4 l } } [ | [ g g [ [ [ | [ 2 g g } C $ [ 4 } [ } } < e 6 5 4 } & w u @ g 2 g | 4 l < l < 4 6   ",
"  } 4 < 4 } 4 } | | [ g [ [ [ g 2 2 2 | | } } l < l < l l 5 f _ e H     ; @ 1 g [ | } b b 5 e f 7 - ",
", 2 4 l l b < 4 4 < 4 [ g [ g | [ g g [ [ [ 4 : _ 5 < l l b f 7 k 6 H v r 1 [ [ | } 5 f k 7 a a / > ",
"- 2 } 4 l : e } | < < | | | } b 5 } [ | [ [ b _ 7 _ 5 l b 5 k ^ 7 k 6 5 < } } g 4 < k ( m m ( a a d ",
"t 1 } } } 4 l [ g [ [ [ 4 4 b f k : l < b b 5 k k _ e b b : _ a 7 a k 7 7 6 e : k 0 s i n q 8 / k # ",
"X 3 } } } } 4 [ [ | | | < 5 _ 0 ( a : : k ^ ^ ^ 7 6 l l < < e _ / ( ^ ^ ( a _ a 8 q q p n i m 9 / [ ",
"  [ [ | } 4 4 } } } 4 | 4 5 k / / k f k ^ 0 / / 7 5 } < e f a / 8 j 0 7 _ k / j i h s h h i h 8 0 # ",
"t 5 [ l b e < } l b e b 4 b < e 6 : f k 7 / / 0 0 f 5 e _ ^ 9 m m 9 ^ a k 7 m p p s ( 0 9 j j 9 / * ",
"# a 6 e _ 7 _ e : e f _ _ 6 e b b _ a 7 7 ( j m h m ( k : a 8 s m ( ^ k k ^ j p o h ( / 7 ^ / 0 / O ",
"O / _ 6 : _ a _ 4 @ 1 5 e 5 b < 6 a 7 _ : k h n p o n 0 a _ ^ ( ^ e 5 l b 6 ^ 9 m n s 9 k 6 a ^ / # ",
"          $ $ $ y w y % * * . = > @ @ d d >               > @ M + = * $ . d @ v v     X % # t t & X "};
