/* XPM */
static char * player_down_xpm[] = {
"50 50 92 2",
"  	c #000000",
". 	c #121212",
"+ 	c #171717",
"@ 	c #181818",
"# 	c #141414",
"$ 	c #101010",
"% 	c #0F0F0F",
"& 	c #0E0E0E",
"* 	c #111111",
"= 	c #131313",
"- 	c #0D0D0D",
"; 	c #040404",
"> 	c #161616",
", 	c #0C0C0C",
"' 	c #0B0B0B",
") 	c #050505",
"! 	c #212121",
"~ 	c #070707",
"{ 	c #090909",
"] 	c #202020",
"^ 	c #363636",
"/ 	c #373737",
"( 	c #393939",
"_ 	c #323232",
": 	c #2F2F2F",
"< 	c #2B2B2B",
"[ 	c #262626",
"} 	c #282828",
"| 	c #272727",
"1 	c #232323",
"2 	c #242424",
"3 	c #222222",
"4 	c #292929",
"5 	c #2D2D2D",
"6 	c #303030",
"7 	c #353535",
"8 	c #3B3B3B",
"9 	c #3A3A3A",
"0 	c #383838",
"a 	c #343434",
"b 	c #2C2C2C",
"c 	c #464646",
"d 	c #151515",
"e 	c #2E2E2E",
"f 	c #313131",
"g 	c #252525",
"h 	c #3F3F3F",
"i 	c #404040",
"j 	c #3C3C3C",
"k 	c #333333",
"l 	c #2A2A2A",
"m 	c #3D3D3D",
"n 	c #424242",
"o 	c #444444",
"p 	c #434343",
"q 	c #414141",
"r 	c #3E3E3E",
"s 	c #454545",
"t 	c #1C1C1C",
"u 	c #1D1D1D",
"v 	c #1F1F1F",
"w 	c #080808",
"x 	c #9F7E00",
"y 	c #584500",
"z 	c #574300",
"A 	c #745B00",
"B 	c #A68300",
"C 	c #6D5500",
"D 	c #C29A00",
"E 	c #BC9500",
"F 	c #BD9500",
"G 	c #6B5300",
"H 	c #554200",
"I 	c #AE8A00",
"J 	c #352800",
"K 	c #1E1E1E",
"L 	c #020202",
"M 	c #030303",
"N 	c #0A0A0A",
"O 	c #4C0000",
"P 	c #010101",
"Q 	c #060606",
"R 	c #8C0000",
"S 	c #C70000",
"T 	c #760000",
"U 	c #7E0000",
"V 	c #C60000",
"W 	c #B90000",
"X 	c #990000",
"Y 	c #191919",
"Z 	c #1B1B1B",
"` 	c #1A1A1A",
"  . + @   @ # $ % & % * . = * % - - - - & & &     ; # >   + , '   &     ) ! & ~ ~ { * . ]           ",
", ] ^ / ( _ : : < [ [ } | } } [ 1 1 1 ! 1 2 3 } 4 5 6 7 8 ( [ 2 8 9 0 7 6 a 4 ! 3 [ 5 _ b : c c c d ",
"  _ 6 6 e 5 e 6 f : 5 f : < | | [ [ | [ g [ [ [ | 4 } 5 / h h i i j / k 6 _ k 5 l < e k 0 m n o c * ",
"  e 5 l | | | l b b e 7 7 5 l } | [ g g g g g [ [ [ [ 4 : 0 i o p q j a 5 < b b < < < < 6 k 0 h p   ",
"  4 4 } | [ [ [ | [ l 5 : e e 5 l | [ g [ g g } 4 } | } 4 6 0 h n p q 9 6 4 | l < 5 5 b 5 5 6 / 0   ",
"  | l | } } [ g g [ [ [ } [ 4 b l } | } } g g | < < 4 } | < f / r n p h 0 5 | l < 5 e e e : f ^ r   ",
"  1 | | [ l 4 | g 2 2 g g g g 2 g [ [ } l [ g g 4 b l | g } 4 : / r n n h ( : b < 5 e 6 : ^ j h i   ",
"* 1 g 2 [ | } | [ g 2 g g g g [ g g g g 2 2 g 2 } 4 l } [ } 4 5 _ 9 i i h h 9 a e 5 6 k a ( n o p * ",
"- [ [ g g [ g g [ g g g g 2 g | g g g 2 1 2 ] ! 1 b [ . < b 6 a a / j r 8 8 m h ( a k / 9 8 i o s t ",
"& } g g g g 2 2 g [ [ [ [ g g [ [ g g 2 ! + % $ . ] ] ~ a 6 k ( j ( ( 9 9 9 m i i r j j i q q s c t ",
", [ g [ g g g 2 2 g [ } | g 2 | [ g g g #           & ~ 8 7 f a 0 ( ( ( 8 j r h i n p o s s c c c u ",
", g g [ g g g [ g 2 g } } g 2 [ g 1 2 v               w m j a e _ / 8 0 ^ 0 r i i i q s c c c c c u ",
", g [ [ [ [ g | [ 2 2 2 1 2 1 g 2 1 2 +   x y z A B   - 0 j 9 _ 6 a ( 0 a k 9 r r r h q o s c c c . ",
", g g [ [ g g g [ g g 1 3 1 1 2 g g 2 @   C D E F G   u f 0 j 8 ^ 7 / 0 7 f f 0 8 m m m q p o c c ! ",
", 2 g g g | [ g g g 2 3 3 1 1 1 2 g g v     H I J     [ K [ ( j j j 9 ( / a 6 f k / 8 h q p o s c . ",
"' [ | [ g } | g g [ g 2 1 3 1 1 g g g g =           K + L M [ 0 j m 9 0 / / 7 f 5 6 ^ 8 h n p o s   ",
"' [ 4 } g [ [ g g | [ g 1 1 1 2 2 g g g =         L w     M 3 f / ( 7 a a a k k k f k ^ 9 h q n p   ",
"' | 4 4 } | [ [ [ [ | | g g 2 g g [ g 2 N     O       P Q w v < : k f : f _ 6 _ a / 8 8 0 j i i i   ",
", | } 4 l 4 } 4 | [ [ [ [ g g g g [ g ] P   R S T L   % 1 v } } l : 5 < 5 6 6 f 7 m n q h i q h r   ",
", [ } [ } 4 } 4 } | g 2 [ [ g 2 1 2 2 .     U V W N P 3 < | } } < f b | 4 l e ^ 8 i s s s o o q ( @ ",
"~ } } | } } | 4 } [ [ g g g g g 2 2 2 *       X   -   u l [ | } l e 5 } } < e 7 8 i o o s o p n 9 Y ",
"  } } } 4 l 4 } [ g g g [ [ [ [ g g 2 &     P     ~   & 4 4 l 4 } 4 4 4 4 < 5 f ^ j i n o p p p 8 Y ",
"  [ [ [ } 4 4 < } | [ [ | [ | | g g 2 &     P     ;   Q [ b 5 < } } } } 4 l < 5 _ 0 r q n n n o m Z ",
"  g [ [ [ [ | 4 | | } | } } < b [ g g .     P     ;   ; 2 4 < < } | [ } } 4 l l e 7 j i q q q p r t ",
"  g [ | | } | [ [ g [ [ [ } l b } g [ Y   P P     ,   ) K | } | [ [ | } | } } } < _ 9 h q i i q n   ",
", g [ } } 4 4 | [ g g g g | } 4 4 [ } Y P M P     '   ; K [ | | g [ | 4 } [ [ [ [ < 7 m r m m i n   ",
"N ! | 4 l l } | [ } } | g g g g } } < 2 ~ w P     , P Q u g g g g g g g g g [ [ | } : ^ ^ a 7 9 r K ",
"- 2 } } l < } | | } 4 4 | g g 1 g | < } ] #       Y > u 2 2 g [ g 2 1 1 1 2 g g [ } 4 5 5 b e a 9 > ",
"  e l } } 4 | [ | | } < } | [ } [ [ [ [ [ `       $ g 2 2 g [ | [ g 1 3 2 2 g g | } < b < 4 < : ^   ",
"  b 4 } [ [ [ g [ [ 4 : < 4 } < 4 } } 4 [ + P     ; ] [ [ g [ | [ g 2 1 g g 2 g g } b e 6 e 5 : ^   ",
"  } | } 4 | | [ [ 2 [ l l g | } } } } l < ] L     P Z [ | g g [ g g 2 g g 2 2 g g [ 4 5 _ ^ / ( 9   ",
"  [ | [ } | | } } g g [ g g g [ | [ [ [ | `         ` 2 2 g g g g g g g g 1 2 [ [ g [ 4 e 7 0 0 8   ",
"  | l < 4 [ | } | g g [ [ | [ [ | [ [ g [ `         d g 1 g g [ [ [ [ g g 2 g g g [ g g } 5 e 6 a   ",
", 3 5 e < } [ | | g 2 g | | | | | | [ [ [ `         = | 2 g g [ | | | g g g g g g [ g g [ | [ l b   ",
", ! } l 4 [ g [ | } | [ [ | g | | | | g g Y   M P   * [ g [ | [ [ [ [ g g g g g g [ g [ [ [ | 4 4   ",
", ! g | } [ [ g g | } | [ | | | 4 l < [ g Y   ; M   & 2 | | | [ g g g g g g g g g [ [ | [ [ } < b   ",
"- ! g l < l | [ g [ | g g } | [ } l b | g Y   L M   Q g 4 } | | | [ [ g [ [ g g [ 4 4 4 } | [ < :   ",
", 1 l 6 : l [ [ [ } | | | } | g [ [ [ g [ @   P Q   ) } < 4 | | } } | | } | [ g [ 4 < b 4 4 } < 6   ",
", 3 l _ k l | | [ [ [ | [ < l [ g 2 2 | } >   P N     d b 5 < } | | | | 4 } [ g [ | l < 4 4 l l 6   ",
", 1 4 l } } [ | [ g g [ [ [ | [ 2 g g } [ # P L % L ) 3 < e 6 5 4 } } | } | g 2 g | 4 l < l < 4 6   ",
"  } 4 < 4 } 4 } | | [ g [ [ [ g 2 2 2 | g $   ) 1 v g l l 5 f _ e b } | [ g g g [ | } b b 5 e f 7 - ",
", 2 4 l l b < 4 4 < 4 [ g [ g | [ g g [ 2 %   { < 5 < l l b f 7 k 6 < | [ g [ [ | } 5 f k 7 a a / > ",
"- 2 } 4 l : e } | < < | | | } b 5 } [ | 2 ,   * _ _ 5 l b 5 k ^ 7 k 6 5 < } } g 4 < k ( m m ( a a d ",
"N 1 } } } 4 l [ g [ [ [ 4 4 b f k : l < l @ M 2 k _ e b b : _ a 7 a k 7 7 6 e : k 0 r i n q 8 / k # ",
"Q 3 } } } } 4 [ [ | | | < 5 _ 0 ( a : : k k 4 ^ 7 6 l l < < e _ / ( ^ ^ ( a _ a 8 q q p n i m 9 / [ ",
"  [ [ | } 4 4 } } } 4 | 4 5 k / / k f k ^ 0 / / 7 5 } < e f a / 8 j 0 7 _ k / j i h r h h i h 8 0 # ",
"N 5 [ l b e < } l b e b 4 b < e 6 : f k 7 / / 0 0 f 5 e _ ^ 9 m m 9 ^ a k 7 m p p r ( 0 9 j j 9 / * ",
"# a 6 e _ 7 _ e : e f _ _ 6 e b b _ a 7 7 ( j m h m ( k : a 8 r m ( ^ k k ^ j p o h ( / 7 ^ / 0 / Z ",
"Z / _ 6 : _ a _ 4 @ 1 5 e 5 b < 6 a 7 _ : k h n p o n 0 a _ ^ ( ^ e 5 l b 6 ^ 9 m n r 9 k 6 a ^ / # ",
"          $ $ $ M P M % * * . = > @ @ d d >               > @ Y + = * $ . d @ ` `     Q % # N N & Q "};
