/* XPM */
static char * player_shoot_u_xpm[] = {
"50 50 91 1",
" 	c #000000",
".	c #121212",
"+	c #171717",
"@	c #181818",
"#	c #141414",
"$	c #101010",
"%	c #0F0F0F",
"&	c #0E0E0E",
"*	c #111111",
"=	c #131313",
"-	c #0D0D0D",
";	c #040404",
">	c #161616",
",	c #0C0C0C",
"'	c #0B0B0B",
")	c #050505",
"!	c #212121",
"~	c #070707",
"{	c #090909",
"]	c #202020",
"^	c #363636",
"/	c #373737",
"(	c #393939",
"_	c #323232",
":	c #2F2F2F",
"<	c #2B2B2B",
"[	c #262626",
"}	c #282828",
"|	c #272727",
"1	c #232323",
"2	c #242424",
"3	c #222222",
"4	c #292929",
"5	c #2D2D2D",
"6	c #303030",
"7	c #353535",
"8	c #3B3B3B",
"9	c #3A3A3A",
"0	c #383838",
"a	c #343434",
"b	c #2C2C2C",
"c	c #464646",
"d	c #151515",
"e	c #2E2E2E",
"f	c #313131",
"g	c #252525",
"h	c #3F3F3F",
"i	c #404040",
"j	c #3C3C3C",
"k	c #333333",
"l	c #2A2A2A",
"m	c #3D3D3D",
"n	c #424242",
"o	c #444444",
"p	c #AD1E1E",
"q	c #AD2323",
"r	c #B52929",
"s	c #B03131",
"t	c #434343",
"u	c #414141",
"v	c #1C1C1C",
"w	c #080808",
"x	c #5C1A1A",
"y	c #5D1B1B",
"z	c #BD2121",
"A	c #B92828",
"B	c #010101",
"C	c #1F1F1F",
"D	c #1D1D1D",
"E	c #020202",
"F	c #6D1C1C",
"G	c #C22020",
"H	c #3E3E3E",
"I	c #1E1E1E",
"J	c #191919",
"K	c #441717",
"L	c #812424",
"M	c #030303",
"N	c #594B08",
"O	c #594A04",
"P	c #454545",
"Q	c #1B1B1B",
"R	c #C4A703",
"S	c #C4A600",
"T	c #897404",
"U	c #897400",
"V	c #060606",
"W	c #3E0000",
"X	c #A20000",
"Y	c #0A0A0A",
"Z	c #1A1A1A",
" .+@ @#$%&%*.=*%----&&&  ;#> +,' &  )!&~~{*.]     ",
",]^/(_::<[[}|}}[111!123}45678([289076a4!3[5_b:cccd",
" _66e5e6f:5f:<||[[|[g[[[|4}5/hhiij/k6_k5l<ek0mnoc*",
" e5l|||lbbe775l}|[ggggg[[[[pqrsotuja5<bb<<<<6k0ht ",
" 44}|[[[|[l5:ee5l|vw[gg}4}|xyzAhntu964|l<55b556/0 ",
" |l|}}[gg[[[}[4bl}>B}]C!l<DBEFG/Hnth05|l<5eee:f^H ",
" 1||[l4|g22gggg2g[*BI*%%J|&  KL:/Hnnh(:b<5e6:^jhi ",
"*1g2[|}|[g2gggg[gg+);    .~ M[45_9iihh9ae56ka(not*",
"-[[gg[gg[gggg2g|gg]N      O {l6aa/jH88mh(ak/98ioPv",
"&}gggg22g[[[[gg[[gQR      S #6k(j((999miiHjjiuuPcv",
",[g[ggg22g[}|g2|[gQT      U C7fa0(((8jHhintoPPcccD",
",gg[ggg[g2g}}g2[g1]{       )9jae_/80^0HiiiuPcccccD",
",g[[[[g|[222121g212+;      %0j9_6a(0ak9HHHhuoPccc.",
",gg[[ggg[gg13112gg21V  ;E  #f0j8^7/07ff08mmmutocc!",
",2ggg|[ggg2331112gg@B  B   I<_(jjj9(/a6fk/8hutoPc.",
"'[|[g}|gg[g21311gg1M WXW  B}ll_0jm90//7f56^8hntoP ",
"'[4}g[[gg|[g11122gw  WXW B;|5|<f/(7aaakkkfk^9hunt ",
"'|44}|[[[[||gg2gg+  E    B~g4}}<:kf:f_6_a/880jiii ",
",|}4l4}4|[[[[gggg-  E    E'1}}}}l:5<566f7mnuhiuhH ",
",[}[}4}4}|g2[[g2DY ;B    B=<<|}}<fb|4le^8iPPPoou(@",
"~}}|}}|4}[[ggggg3{ EB    Evbl[|}le5}}<e78iooPotn9J",
" }}}4l4}[ggg[[[[gJB      )]|44l4}4444<5f^jinottt8J",
" [[[}44<}|[[|[||gQE      #[[}b5<}}}}4l<5_0HunnnomQ",
" g[[[[|4||}|}}<b[g%      Jg2[4<<}|[}}4lle7jiuuutHv",
" g[||}|[[g[[[}lb}gvB     J212|}|[[|}|}}}<_9huiiun ",
",g[}}44|[gggg|}44[IB     @112[||g[|4}[[[[<7mHmmin ",
"Y!|4ll}|[}}|gggg}}IB     J131ggggggggg[[|}:^^a79HI",
"-2}}l<}||}44|gg1g|Q      Z2122g[g21112gg[}455bea9>",
" el}}4|[||}<}|[}[[+      Zg22g[|[g1322gg|}<b<4<:^ ",
" b4}[[[g[[4:<4}<4}IB     Z[[[g[|[g21gg2gg}be6e5:^ ",
" }|}4||[[2[llg|}}}}$    Y[g[|gg[gg2gg22gg[45_^/(9 ",
" [|[}||}}gg[ggg[|[[%    =[222gggggggg12[[g[4e7008 ",
" |l<4[|}|gg[[|[[|[[V    =4|g1gg[[[[gg2ggg[gg}5e6a ",
",35e<}[||g2g||||||[Y    {l4|2gg[|||gggggg[gg[|[lb ",
",!}l4[g[|}|[[|g|||g~    '|}[g[|[[[[gggggg[g[[[|44 ",
",!g|}[[gg|}|[|||4l4V    ~!|[|||[ggggggggg[[|[[}<b ",
"-!gl<l|[g[|gg}|[}ll)    M][|4}|||[[g[[gg[444}|[<: ",
",1l6:l[[[}|||}|g[[2;    BJ[}<4||}}||}|[g[4<b44}<6 ",
",3l_kl||[[[|[<l[g2]E B  BQ[4b5<}||||4}[g[|l<44ll6 ",
",14l}}[|[gg[[[|[2gvB E  BQ}}<e654}}|}|g2g|4l<l<46 ",
" }4<4}4}||[g[[[g22J  M  BI<ll5f_eb}|[ggg[|}bb5ef7-",
",24llb<44<4[g[g|[g@  ' BM]<llbf7k6<|[g[[|}5fk7aa/>",
"-2}4l:e}|<<|||}b5}QEBQJ&$<5lb5k^7k65<}}g4<k(mm(aad",
"Y1}}}4l[g[[[44bfk:lC]b5bb_ebb:_a7ak776e:k0Hinu8/k#",
"V3}}}}4[[|||<5_0(a::k^^^76ll<<e_/(^^(a_a8uutnim9/[",
" [[|}44}}}4|45k//kfk^0//75}<efa/8j07_k/jihHhhih80#",
"Y5[lbe<}lbeb4b<e6:fk7//00f5e_^9mm9^ak7mttH(09jj9/*",
"#a6e_7_e:ef__6ebb_a77(jmhm(k:a8Hm(^kk^jtoh(/7^/0/Q",
"Q/_6:_a_4@15e5b<6a7_:khnton0a_^(^e5lb6^9mnH9k6a^/#",
"     $$$MBM%**.=>@@dd>       >@J+=*$.d@ZZ  V%#YY&V"};
