/* XPM */
static char * player_left_xpm[] = {
"50 50 81 1",
" 	c #000000",
".	c #121212",
"+	c #171717",
"@	c #181818",
"#	c #141414",
"$	c #101010",
"%	c #0F0F0F",
"&	c #0E0E0E",
"*	c #111111",
"=	c #131313",
"-	c #0D0D0D",
";	c #040404",
">	c #161616",
",	c #0C0C0C",
"'	c #0B0B0B",
")	c #050505",
"!	c #212121",
"~	c #070707",
"{	c #090909",
"]	c #202020",
"^	c #363636",
"/	c #373737",
"(	c #393939",
"_	c #323232",
":	c #2F2F2F",
"<	c #2B2B2B",
"[	c #262626",
"}	c #282828",
"|	c #272727",
"1	c #232323",
"2	c #242424",
"3	c #222222",
"4	c #292929",
"5	c #2D2D2D",
"6	c #303030",
"7	c #353535",
"8	c #3B3B3B",
"9	c #3A3A3A",
"0	c #383838",
"a	c #343434",
"b	c #2C2C2C",
"c	c #464646",
"d	c #151515",
"e	c #2E2E2E",
"f	c #313131",
"g	c #252525",
"h	c #3F3F3F",
"i	c #404040",
"j	c #3C3C3C",
"k	c #333333",
"l	c #2A2A2A",
"m	c #3D3D3D",
"n	c #424242",
"o	c #444444",
"p	c #434343",
"q	c #414141",
"r	c #3E3E3E",
"s	c #454545",
"t	c #1C1C1C",
"u	c #1D1D1D",
"v	c #020202",
"w	c #010101",
"x	c #1F1F1F",
"y	c #0A0A0A",
"z	c #6E5600",
"A	c #634D00",
"B	c #644E07",
"C	c #D8AB00",
"D	c #B58F00",
"E	c #271E0A",
"F	c #1B1B1B",
"G	c #060606",
"H	c #191919",
"I	c #7F0101",
"J	c #7F0000",
"K	c #D10101",
"L	c #D10000",
"M	c #030303",
"N	c #1E1E1E",
"O	c #1A1A1A",
"P	c #080808",
" .+@ @#$%&%*.=*%----&&&  ;#> +,' &  )!&~~{*.]     ",
",]^/(_::<[[}|}}[111!123}45678([289076a4!3[5_b:cccd",
" _66e5e6f:5f:<||[[|[g[[[|4}5/hhiij/k6_k5l<ek0mnoc*",
" e5l|||lbbe775l}|[ggggg[[[[4:0iopqja5<bb<<<<6k0hp ",
" 44}|[[[|[l5:ee5l|[g[gg}4}|}460hnpq964|l<55b556/0 ",
" |l|}}[gg[[[}[4bl}|}}gg|<<4}|<f/rnph05|l<5eee:f^r ",
" 1||[l4|g22gggg2g[[}l[gg4bl|g}4:/rnnh(:b<5e6:^jhi ",
"*1g2[|}|[g2gggg[gggg22g2}4l}[}45_9iihh9ae56ka(nop*",
"-[[gg[gg[gggg2g|ggg212[|4b:e<b6aa/jr88mh(ak/98iost",
"&}gggg22g[[[[gg[[gg222[}<6^(a6k(j((999miirjjiqqsct",
",[g[ggg22g[}|g2|[gggg2,!l:^m87fa0(((8jrhinposscccu",
",gg[ggg[g2g}}g2[g12gg!v!|<k9mjae_/80^0riiiqscccccu",
",g[[[[g|[222121g21]&&&vg[4ek0j9_6a(0ak9rrrhqosccc.",
",gg[[ggg[gg131121=     t|44bf0j8^7/07ff08mmmqpocc!",
",2ggg|[ggg233111t      wge:5<_(jjj9(/a6fk/8hqposc.",
"'[|[g}|gg[g2131xyzA    w f/7ll_0jm90//7f56^8hnpos ",
"'[4}g[[gg|[g111]BCD     w4aa5|<f/(7aaakkkfk^9hqnp ",
"'|44}|[[[[||gg2!EA     w ]4b4}}<:kf:f_6_a/880jiii ",
",|}4l4}4|[[[[gggu      v y{F}}}}l:5<566f7mnqhiqhr ",
",[}[}4}4}|g2[[g2!=     G   vx|}}<fb|4le^8isssooq(@",
"~}}|}}|4}[[ggggg21@wv      y}[|}le5}}<e78ioosopn9H",
" }}}4l4}[ggg[[[[g2{        ~|4l4}4444<5f^jinoppp8H",
" [[[}44<}|[[|[||ggt  IJ    ~[b5<}}}}4l<5_0rqnnnomF",
" g[[[[|4||}|}}<b[guvJKLJ   w$|<<}|[}}4lle7jiqqqprt",
" g[||}|[[g[[[}lb}g]M JI     G!}|[[|}|}}}<_9hqiiqn ",
",g[}}44|[gggg|}44[[,        G]||g[|4}[[[[<7mrmmin ",
"y!|4ll}|[}}|gggg}}<=  v  w  Mxgggggggg[[|}:^^a79rN",
"-2}}l<}||}44|gg1g|<N  ~  vv M]g[g21112gg[}455bea9>",
" el}}4|[||}<}|[}[[[Fw &v  M wt[|[g1322gg|}<b<4<:^ ",
" b4}[[[g[[4:<4}<4}}4#wd,     @[|[g21gg2gg}be6e5:^ ",
" }|}4||[[2[llg|}}}}l]v#y   %Ogg[gg2gg22gg[45_^/(9 ",
" [|[}||}}gg[ggg[|[[[u;+t   y2gggggggg12[[g[4e7008 ",
" |l<4[|}|gg[[|[[|[[g[N<@   wFgg[[[[gg2ggg[gg}5e6a ",
",35e<}[||g2g||||||[[[|[)    {gg[|||gggggg[gg[|[lb ",
",!}l4[g[|}|[[|g||||gg[2{    wN|[[[[gggggg[g[[[|44 ",
",!g|}[[gg|}|[|||4l<[g[|+ ;   $|[ggggggggg[[|[[}<b ",
"-!gl<l|[g[|gg}|[}lb|g[}F G   G!||[[g[[gg[444}|[<: ",
",1l6:l[[[}|||}|g[[[g[g}3;w   )g|}}||}|[g[4<b44}<6 ",
",3l_kl||[[[|[<l[g22|}|4l!$w  wF}||||4}[g[|l<44ll6 ",
",14l}}[|[gg[[[|[2gg}}}}4}[dw  N54}}|}|g2g|4l<l<46 ",
" }4<4}4}||[g[[[g222||}}l<l<P  ,:eb}|[ggg[|}bb5ef7-",
",24llb<44<4[g[g|[gg[[[4:_5<N   !k6<|[g[[|}5fk7aa/>",
"-2}4l:e}|<<|||}b5}[|[[b_7_5l) w47k65<}}g4<k(mm(aad",
"y1}}}4l[g[[[44bfk:l<bb5kk_e!; $f7ak776e:k0rinq8/k#",
"G3}}}}4[[|||<5_0(a::k^^^76l}*MH:/(^^(a_a8qqpnim9/[",
" [[|}44}}}4|45k//kfk^0//75}<<gf/8j07_k/jihrhhih80#",
"y5[lbe<}lbeb4b<e6:fk7//00f5e_^9mm9^ak7mppr(09jj9/*",
"#a6e_7_e:ef__6ebb_a77(jmhm(k:a8rm(^kk^jpoh(/7^/0/F",
"F/_6:_a_4@15e5b<6a7_:khnpon0a_^(^e5lb6^9mnr9k6a^/#",
"     $$$MwM%**.=>@@dd>       >@H+=*$.d@OO  G%#yy&G"};
