/* XPM */
static char * player_shoot_r_xpm[] = {
"50 50 94 2",
"  	c #000000",
". 	c #121212",
"+ 	c #171717",
"@ 	c #181818",
"# 	c #141414",
"$ 	c #101010",
"% 	c #0F0F0F",
"& 	c #0E0E0E",
"* 	c #111111",
"= 	c #131313",
"- 	c #0D0D0D",
"; 	c #040404",
"> 	c #161616",
", 	c #0C0C0C",
"' 	c #0B0B0B",
") 	c #050505",
"! 	c #212121",
"~ 	c #070707",
"{ 	c #090909",
"] 	c #202020",
"^ 	c #363636",
"/ 	c #373737",
"( 	c #393939",
"_ 	c #323232",
": 	c #2F2F2F",
"< 	c #2B2B2B",
"[ 	c #262626",
"} 	c #282828",
"| 	c #272727",
"1 	c #232323",
"2 	c #242424",
"3 	c #222222",
"4 	c #292929",
"5 	c #2D2D2D",
"6 	c #303030",
"7 	c #353535",
"8 	c #3B3B3B",
"9 	c #3A3A3A",
"0 	c #383838",
"a 	c #343434",
"b 	c #2C2C2C",
"c 	c #464646",
"d 	c #151515",
"e 	c #2E2E2E",
"f 	c #313131",
"g 	c #252525",
"h 	c #3F3F3F",
"i 	c #404040",
"j 	c #3C3C3C",
"k 	c #333333",
"l 	c #2A2A2A",
"m 	c #3D3D3D",
"n 	c #424242",
"o 	c #444444",
"p 	c #1D1D1D",
"q 	c #434343",
"r 	c #414141",
"s 	c #1F1F1F",
"t 	c #0A0A0A",
"u 	c #3E3E3E",
"v 	c #181001",
"w 	c #4A3807",
"x 	c #99771A",
"y 	c #8E6E17",
"z 	c #1B1B1B",
"A 	c #454545",
"B 	c #1C1C1C",
"C 	c #191919",
"D 	c #59440A",
"E 	c #1E1E1E",
"F 	c #080808",
"G 	c #010101",
"H 	c #3E0000",
"I 	c #400909",
"J 	c #7C0000",
"K 	c #1A1A1A",
"L 	c #632F2F",
"M 	c #B93030",
"N 	c #DB5858",
"O 	c #E06161",
"P 	c #B95E5E",
"Q 	c #030303",
"R 	c #020202",
"S 	c #A82626",
"T 	c #EE5555",
"U 	c #EF9999",
"V 	c #F0B4B4",
"W 	c #E49B9B",
"X 	c #C02C2C",
"Y 	c #8F2C2C",
"Z 	c #C61F1F",
"` 	c #B42525",
" .	c #902E2E",
"..	c #060606",
"  . + @   @ # $ % & % * . = * % - - - - & & &     ; # >   + , '   &     ) ! & ~ ~ { * . ]           ",
", ] ^ / ( _ : : < [ [ } | } } [ 1 1 1 ! 1 2 3 } 4 5 6 7 8 ( [ 2 8 9 0 7 6 a 4 ! 3 [ 5 _ b : c c c d ",
"  _ 6 6 e 5 e 6 f : 5 f : < | | [ [ | [ g [ [ [ | 4 } 5 / h h i i j / k 6 _ k 5 l < e k 0 m n o c * ",
"  e 5 l | | | l b b e 7 7 5 l } | [ > p g g g [ [ [ [ 4 : 0 i o q r j a 5 < b b < < < < 6 k 0 h q   ",
"  4 4 } | [ [ [ | [ l 5 : e e 5 l | % $ ] s g } 4 } | } 4 6 0 h n q r 9 6 4 | l < 5 5 b 5 5 6 / 0   ",
"  | l | } } [ g g [ [ [ } [ 4 b l g t { $ % @ 2 < < 4 } | < f / u n q h 0 5 | l < 5 e e e : f ^ u   ",
"  1 | | [ l 4 | g 2 2 g g g g 2 g d           # 4 b l | g } 4 : / u n n h ( : b < 5 e 6 : ^ j h i   ",
"* 1 g 2 [ | } | [ g 2 g g g g [ s         v w   3 4 l } [ } 4 5 _ 9 i i h h 9 a e 5 6 k a ( n o q * ",
"- [ [ g g [ g g [ g g g g 2 g | @         w x y z b : e < b 6 a a / j u 8 8 m h ( a k / 9 8 i o A B ",
"& } g g g g 2 2 g [ [ [ [ g g [ C           D y p 6 ^ ( a 6 k ( j ( ( 9 9 9 m i i u j j i r r A c B ",
", [ g [ g g g 2 2 g [ } | g 2 | E               2 : ^ m 8 7 f a 0 ( ( ( 8 j u h i n q o A A c c c p ",
", g g [ g g g [ g 2 g } } g 2 [ 1 F           # | < k 9 m j a e _ / 8 0 ^ 0 u i i i r A c c c c c p ",
", g [ [ [ [ g | [ 2 2 2 1 2 1 g 2 {         > 3 [ 4 e k 0 j 9 _ 6 a ( 0 a k 9 u u u h r o A c c c . ",
", g g [ [ g g g [ g g 1 3 1 1 2 s G       H I g | 4 4 b f 0 j 8 ^ 7 / 0 _ f f 0 8 m m m r q o c c ! ",
", 2 g g g | [ g g g 2 3 3 1 1 1 $         J J K l | } [ 3 < e b b [ < z d ! 6 L M N O P r q o A c . ",
"' [ | [ g } | g g [ g 2 1 3 1 ! )             { . & ' ~ ; ; ; Q R G G       2 S T U V W X n q o A   ",
"' [ 4 } g [ [ g g | [ g 1 1 1 + Q             G   G G         G R G Q - @ 1 k k Y Z `  .9 h r n q   ",
"' | 4 4 } | [ [ [ [ | | g g E F                 G ~ * > d ..G & ] s 2 b f _ 6 _ a / 8 8 0 j i i i   ",
", | } 4 l 4 } 4 | [ [ [ [ g s % ..        G G   ; s C $ F   ) ] l : 5 < 5 6 6 f 7 m n r h i r h u   ",
", [ } [ } 4 } 4 } | g 2 [ [ g B '         G ..    ~ R G { d 3 } < f b | 4 l e ^ 8 i A A A o o r ( @ ",
"~ } } | } } | 4 } [ [ g g g g 1 =           * R ..; F + 2 [ | } l e 5 } } < e 7 8 i o o A o q n 9 C ",
"  } } } 4 l 4 } [ g g g [ [ [ [ 1 ~         . K 1 z ] | 4 4 l 4 } 4 4 4 4 < 5 f ^ j i n o q q q 8 C ",
"  [ [ [ } 4 4 < } | [ [ | [ | | g p         ~ 2 [ [ [ [ } b 5 < } } } } 4 l < 5 _ 0 u r n n n o m z ",
"  g [ [ [ [ | 4 | | } | } } < b [ g %       ) 2 4 } g 2 [ 4 < < } | [ } } 4 l l e 7 j i r r r q u B ",
"  g [ | | } | [ [ g [ [ [ } l b } g [ .     ; @ } 4 2 1 2 | } | [ [ | } | } } } < _ 9 h r i i r n   ",
", g [ } } 4 4 | [ g g g g | } 4 4 [ } *       Q $ | 1 1 2 [ | | g [ | 4 } [ [ [ [ < 7 m u m m i n   ",
"t ! | 4 l l } | [ } } | g g g g } } g G           & 1 3 1 g g g g g g g g g [ [ | } : ^ ^ a 7 9 u E ",
"- 2 } } l < } | | } 4 4 | g g 1 g | '               @ 1 2 2 g [ g 2 1 1 1 2 g g [ } 4 5 5 b e a 9 > ",
"  e l } } 4 | [ | | } < } | [ } [ 3 R     + d G       3 2 g [ | [ g 1 3 2 2 g g | } < b < 4 < : ^   ",
"  b 4 } [ [ [ g [ [ 4 : < 4 } < 4 C     - } } } G     G 1 g [ | [ g 2 1 g g 2 g g } b e 6 e 5 : ^   ",
"  } | } 4 | | [ [ 2 [ l l g | } } F     p } } } g G     Q 3 g [ g g 2 g g 2 2 g g [ 4 5 _ ^ / ( 9   ",
"  [ | [ } | | } } g g [ g g g [ s Q   ..g } l < | B     G p g g g g g g g 1 2 [ [ g [ 4 e 7 0 0 8   ",
"  | l < 4 [ | } | g g [ [ | [ [ 1 R   . [ } 5 e < 4 @ G   . g [ [ [ [ g g 2 g g g [ g g } 5 e 6 a   ",
", 3 5 e < } [ | | g 2 g | | | | .   G C [ | 5 5 b l 1 F R p g [ | | | g g g g g g [ g g [ | [ l b   ",
", ! } l 4 [ g [ | } | [ [ | g g {   F 1 g [ } l } | 3 { F ] | [ [ [ [ g g g g g g [ g [ [ [ | 4 4   ",
", ! g | } [ [ g g | } | [ | | > G G B [ g [ | } } | ! ~ ~ ! | [ g g g g g g g g g [ [ | [ [ } < b   ",
"- ! g l < l | [ g [ | g g } ! ..  , l | g [ } 4 4 [ z R R - d | | [ [ g [ [ g g [ 4 4 4 } | [ < :   ",
", 1 l 6 : l [ [ [ } | | | } s Q   > [ g [ g } l l [ K R G     d } } | | } | [ g [ 4 < b 4 4 } < 6   ",
", 3 l _ k l | | [ [ [ | [ < E G G d 2 | } | 4 l 4 [ 1 % ~ ; = } | | | | 4 } [ g [ | l < 4 4 l l 6   ",
", 1 4 l } } [ | [ g g [ [ [ K     ~ s } } } } 4 } [ } g 3 g 6 5 4 } } | } | g 2 g | 4 l < l < 4 6   ",
"  } 4 < 4 } 4 } | | [ g [ [ [ . ; t E | | } } l < l < l l 5 f _ e b } | [ g g g [ | } b b 5 e f 7 - ",
", 2 4 l l b < 4 4 < 4 [ g [ g | E s g [ [ [ 4 : _ 5 < l l b f 7 k 6 < | [ g [ [ | } 5 f k 7 a a / > ",
"- 2 } 4 l : e } | < < | | | } b 5 } [ | [ [ b _ 7 _ 5 l b 5 k ^ 7 k 6 5 < } } g 4 < k ( m m ( a a d ",
"t 1 } } } 4 l [ g [ [ [ 4 4 b f k : l < b b 5 k k _ e b b : _ a 7 a k 7 7 6 e : k 0 u i n r 8 / k # ",
"..3 } } } } 4 [ [ | | | < 5 _ 0 ( a : : k ^ ^ ^ 7 6 l l < < e _ / ( ^ ^ ( a _ a 8 r r q n i m 9 / [ ",
"  [ [ | } 4 4 } } } 4 | 4 5 k / / k f k ^ 0 / / 7 5 } < e f a / 8 j 0 7 _ k / j i h u h h i h 8 0 # ",
"t 5 [ l b e < } l b e b 4 b < e 6 : f k 7 / / 0 0 f 5 e _ ^ 9 m m 9 ^ a k 7 m q q u ( 0 9 j j 9 / * ",
"# a 6 e _ 7 _ e : e f _ _ 6 e b b _ a 7 7 ( j m h m ( k : a 8 u m ( ^ k k ^ j q o h ( / 7 ^ / 0 / z ",
"z / _ 6 : _ a _ 4 @ 1 5 e 5 b < 6 a 7 _ : k h n q o n 0 a _ ^ ( ^ e 5 l b 6 ^ 9 m n u 9 k 6 a ^ / # ",
"          $ $ $ Q G Q % * * . = > @ @ d d >               > @ C + = * $ . d @ K K     ..% # t t & .."};
