/* XPM */
static char * player_right_xpm[] = {
"50 50 84 1",
" 	c #000000",
".	c #121212",
"+	c #171717",
"@	c #181818",
"#	c #141414",
"$	c #101010",
"%	c #0F0F0F",
"&	c #0E0E0E",
"*	c #111111",
"=	c #131313",
"-	c #0D0D0D",
";	c #040404",
">	c #161616",
",	c #0C0C0C",
"'	c #0B0B0B",
")	c #050505",
"!	c #212121",
"~	c #070707",
"{	c #090909",
"]	c #202020",
"^	c #363636",
"/	c #373737",
"(	c #393939",
"_	c #323232",
":	c #2F2F2F",
"<	c #2B2B2B",
"[	c #262626",
"}	c #282828",
"|	c #272727",
"1	c #232323",
"2	c #242424",
"3	c #222222",
"4	c #292929",
"5	c #2D2D2D",
"6	c #303030",
"7	c #353535",
"8	c #3B3B3B",
"9	c #3A3A3A",
"0	c #383838",
"a	c #343434",
"b	c #2C2C2C",
"c	c #464646",
"d	c #151515",
"e	c #2E2E2E",
"f	c #313131",
"g	c #252525",
"h	c #3F3F3F",
"i	c #404040",
"j	c #3C3C3C",
"k	c #333333",
"l	c #2A2A2A",
"m	c #3D3D3D",
"n	c #424242",
"o	c #444444",
"p	c #434343",
"q	c #414141",
"r	c #3E3E3E",
"s	c #1A1A1A",
"t	c #454545",
"u	c #1C1C1C",
"v	c #1E1E1E",
"w	c #030303",
"x	c #1B1B1B",
"y	c #191919",
"z	c #1D1D1D",
"A	c #060606",
"B	c #020202",
"C	c #715900",
"D	c #D8AB00",
"E	c #E1B300",
"F	c #DEB000",
"G	c #7F6400",
"H	c #CEA300",
"I	c #6D5715",
"J	c #6B5300",
"K	c #30291A",
"L	c #010101",
"M	c #080808",
"N	c #9E0202",
"O	c #571D1D",
"P	c #9E0101",
"Q	c #582020",
"R	c #0A0A0A",
"S	c #1F1F1F",
" .+@ @#$%&%*.=*%----&&&  ;#> +,' &  )!&~~{*.]     ",
",]^/(_::<[[}|}}[111!123}45678([289076a4!3[5_b:cccd",
" _66e5e6f:5f:<||[[|[g[[[|4}5/hhiij/k6_k5l<ek0mnoc*",
" e5l|||lbbe775l}|[ggggg[[[[4:0iopqja5<bb<<<<6k0hp ",
" 44}|[[[|[l5:ee5l|[g[gg}4}|}460hnpq964|l<55b556/0 ",
" |l|}}[gg[[[}[4bl}|}}gg|<<4}|<f/rnph05|l<5eee:f^r ",
" 1||[l4|g22gggg2g[[}l[gg4bl|g}4:/rnnh(:b<5e6:^jhi ",
"*1g2[|}|[g2gggg[gggg22g2}4l}[}45_9iihh9ae56ka(nop*",
"-[[gg[gg[gggg2g|ggg2!s[|4b:e<b6aa/jr88mh(ak/98iotu",
"&}gggg22g[[[[gg[[gg2v~[}<6^(a6k(j((999miirjjiqqtcu",
",[g[ggg22g[}|g2|[ggg=wxyub^m87fa0(((8jrhinpottcccz",
",gg[ggg[g2g}}g2[g12g'     v/mjae_/80^0riiiqtcccccz",
",g[[[[g|[222121g212Aw      v7j9_6a(0ak9rrrhqotccc.",
",gg[[ggg[gg13112gg2B      CCb0j8^7/07ff08mmmqpocc!",
",2ggg|[ggg2331112gxA     DEFy:(jjj9(/a6fk/8hqpotc.",
"'[|[g}|gg[g21311ggxA      GHI}_0jm90//7f56^8hnpot ",
"'[4}g[[gg|[g11122gxA       JKg<f/(7aaakkkfk^9hqnp ",
"'|44}|[[[[||gg2gg[g'        2}}<:kf:f_6_a/880jiii ",
",|}4l4}4|[[[[gggg[gs)      @[}}}l:5<566f7mnqhiqhr ",
",[}[}4}4}|g2[[g2122g-     @<<|}}<fb|4le^8itttooq(@",
"~}}|}}|4}[[ggggg2&#1L  L =}bl[|}le5}}<e78iootopn9y",
" }}}4l4}[ggg[[[[g% BL    *2|44l4}4444<5f^jinoppp8y",
" [[[}44<}|[[|[||gg) BL   M2[}b5<}}}}4l<5_0rqnnnomx",
" g[[[[|4||}|}}<b[g!  L   NO2[4<<}|[}}4lle7jiqqqpru",
" g[||}|[[g[[[}lb}g[ L L  PQ12|}|[[|}|}}}<_9hqiiqn ",
",g[}}44|[gggg|}44[}-  B   z12[||g[|4}[[[[<7mrmmin ",
"R!|4ll}|[}}|gggg}}<sRBL   #31ggggggggg[[|}:^^a79rv",
"-2}}l<}||}44|gg1g|<vB;    y122g[g21112gg[}455bea9>",
" el}}4|[||}<}|[}[[[] ~    s22g[|[g1322gg|}<b<4<:^ ",
" b4}[[[g[[4:<4}<4}}+ ;   B][[g[|[g21gg2gg}be6e5:^ ",
" }|}4||[[2[llg|}}}}2A)   wS[|gg[gg2gg22gg[45_^/(9 ",
" [|[}||}}gg[ggg[|[[]~L   Bv22gggggggg12[[g[4e7008 ",
" |l<4[|}|gg[[|[[|[[SM    ~!g1gg[[[[gg2ggg[gg}5e6a ",
",35e<}[||g2g||||||[[]~   ;g|2gg[|||gggggg[gg[|[lb ",
",!}l4[g[|}|[[|g||||gg+    %[g[|[[[[gggggg[g[[[|44 ",
",!g|}[[gg|}|[|||4l<[gd   L d|||[ggggggggg[[|[[}<b ",
"-!gl<l|[g[|gg}|[}lb|g>  L  ;s}|||[[g[[gg[444}|[<: ",
",1l6:l[[[}|||}|g[[[g[s  w  wx4||}}||}|[g[4<b44}<6 ",
",3l_kl||[[[|[<l[g22|}uL    'l5<}||||4}[g[|l<44ll6 ",
",14l}}[|[gg[[[|[2gg}[-    R[<e654}}|}|g2g|4l<l<46 ",
" }4<4}4}||[g[[[g2221)    #<ll5f_eb}|[ggg[|}bb5ef7-",
",24llb<44<4[g[g|[guw    w}<llbf7k6<|[g[[|}5fk7aa/>",
"-2}4l:e}|<<|||}b5]w  ~A )<5lb5k^7k65<}}g4<k(mm(aad",
"R1}}}4l[g[[[44bfk}-;;1{ B=|bb:_a7ak776e:k0rinq8/k#",
"A3}}}}4[[|||<5_0(a}> dB   )2<<e_/(^^(a_a8qqpnim9/[",
" [[|}44}}}4|45k//kfkS4;LL ~gefa/8j07_k/jihrhhih80#",
"R5[lbe<}lbeb4b<e6:fk7/}4|u[e_^9mm9^ak7mppr(09jj9/*",
"#a6e_7_e:ef__6ebb_a77(jmhm(k:a8rm(^kk^jpoh(/7^/0/x",
"x/_6:_a_4@15e5b<6a7_:khnpon0a_^(^e5lb6^9mnr9k6a^/#",
"     $$$wLw%**.=>@@dd>       >@y+=*$.d@ss  A%#RR&A"};
