/* XPM */
static char * player_shoot_d_xpm[] = {
"50 50 99 2",
"  	c #000000",
". 	c #121212",
"+ 	c #171717",
"@ 	c #181818",
"# 	c #141414",
"$ 	c #101010",
"% 	c #0F0F0F",
"& 	c #0E0E0E",
"* 	c #111111",
"= 	c #131313",
"- 	c #0D0D0D",
"; 	c #040404",
"> 	c #161616",
", 	c #0C0C0C",
"' 	c #0B0B0B",
") 	c #050505",
"! 	c #212121",
"~ 	c #070707",
"{ 	c #090909",
"] 	c #202020",
"^ 	c #363636",
"/ 	c #373737",
"( 	c #393939",
"_ 	c #323232",
": 	c #2F2F2F",
"< 	c #2B2B2B",
"[ 	c #262626",
"} 	c #282828",
"| 	c #272727",
"1 	c #232323",
"2 	c #242424",
"3 	c #222222",
"4 	c #292929",
"5 	c #2D2D2D",
"6 	c #303030",
"7 	c #353535",
"8 	c #3B3B3B",
"9 	c #3A3A3A",
"0 	c #383838",
"a 	c #343434",
"b 	c #2C2C2C",
"c 	c #464646",
"d 	c #151515",
"e 	c #2E2E2E",
"f 	c #313131",
"g 	c #252525",
"h 	c #3F3F3F",
"i 	c #404040",
"j 	c #3C3C3C",
"k 	c #333333",
"l 	c #2A2A2A",
"m 	c #3D3D3D",
"n 	c #424242",
"o 	c #444444",
"p 	c #434343",
"q 	c #414141",
"r 	c #1F1F1F",
"s 	c #3E3E3E",
"t 	c #080808",
"u 	c #010101",
"v 	c #030303",
"w 	c #1C1C1C",
"x 	c #715713",
"y 	c #423206",
"z 	c #1A1A1A",
"A 	c #454545",
"B 	c #AB851E",
"C 	c #705610",
"D 	c #AD871E",
"E 	c #957418",
"F 	c #1B1B1B",
"G 	c #060606",
"H 	c #A17D1B",
"I 	c #1D1D1D",
"J 	c #1E1E1E",
"K 	c #020202",
"L 	c #630101",
"M 	c #640808",
"N 	c #630000",
"O 	c #191919",
"P 	c #890202",
"Q 	c #890505",
"R 	c #8A0A0A",
"S 	c #E63F3F",
"T 	c #890000",
"U 	c #811919",
"V 	c #DE8E8E",
"W 	c #DB7F7F",
"X 	c #E00D0D",
"Y 	c #E59999",
"Z 	c #C45656",
"` 	c #640A0A",
" .	c #AC1A1A",
"..	c #DF0E0E",
"+.	c #BA1616",
"@.	c #682020",
"#.	c #8C1F1F",
"$.	c #D01313",
"%.	c #0A0A0A",
"  . + @   @ # $ % & % * . = * % - - - - & & &     ; # >   + , '   &     ) ! & ~ ~ { * . ]           ",
", ] ^ / ( _ : : < [ [ } | } } [ 1 1 1 ! 1 2 3 } 4 5 6 7 8 ( [ 2 8 9 0 7 6 a 4 ! 3 [ 5 _ b : c c c d ",
"  _ 6 6 e 5 e 6 f : 5 f : < | | [ [ | [ g [ [ [ | 4 } 5 / h h i i j / k 6 _ k 5 l < e k 0 m n o c * ",
"  e 5 l | | | l b b e 7 7 5 l } | [ g g g g g [ [ [ [ 4 e 0 i o p q j a 5 < b b < < < < 6 k 0 h p   ",
"  4 4 } | [ [ [ | [ l 5 : e e 5 l | [ g [ g g } 4 } | 4 4 6 0 h n p q 9 6 4 | l < 5 5 b 5 5 6 / 0   ",
"  | l | } } [ g g [ [ [ } [ 4 b l } | } } g g r ] ] g - [ < f / s n p h 0 5 | l < 5 e e e : f ^ s   ",
"  1 | | [ l 4 | g 2 2 g g g g 2 g [ [ } l 3 . ~ ~ t $ ) 2 } 4 : / s n n h ( : b < 5 e 6 : ^ j h i   ",
"* 1 g 2 [ | } | [ g 2 g g g g [ g g g g 2 * u       & v ! } 4 5 _ 9 i i h h 9 a e 5 6 k a ( n o p * ",
"- [ [ g g [ g g [ g g g g 2 g | g g g 2 w x         y   z l 6 a a / j s 8 8 m h ( a k / 9 8 i o A w ",
"& } g g g g 2 2 g [ [ [ [ g g [ [ g g 2 z x B C C D E   F 5 k ( j ( ( 9 9 9 m i i s j j i q q A c w ",
", [ g [ g g g 2 2 g [ } | g 2 | [ g g g F G B B B H     3 _ f a 0 ( ( ( 8 j s h i n p o A A c c c I ",
", g g [ g g g [ g 2 g } } g 2 [ g 1 2 g 1 '             k j a e _ / 8 0 ^ 0 s i i i q A c c c c c I ",
", g [ [ [ [ g | [ 2 2 2 1 2 1 g 2 1 2 2 g I t         3 ^ j 9 _ 6 a ( 0 a k 9 s s s h q o A c c c . ",
", g g [ [ g g g [ g g 1 3 1 1 2 g g 2 g g J $ K L L . l f 0 j 8 ^ 7 / 0 7 f f 0 8 m m m q p o c c ! ",
", 2 g g g | [ g g g 2 3 3 1 1 1 2 g g g I )   . M N K * < _ ( j j j 9 ( / a 6 f k / 8 h q p o A c . ",
"' [ | [ g } | g g [ g 2 1 3 1 1 g g g 1 ' u # z O w u   & 2 _ 0 j m 9 0 / / 7 f 5 6 ^ 8 h n p o A   ",
"' [ 4 } g [ [ g g | [ g 1 1 1 2 2 g g O v # J ; K . z *   ; g f / ( 7 a a a k k k f k ^ 9 h q n p   ",
"' | 4 4 } | [ [ [ [ | | g g 2 g g [ 1 = K O , v   O z w G   # < : k f : f _ 6 _ a / 8 8 0 j i i i   ",
", | } 4 l 4 } 4 | [ [ [ [ g g g g [ 1 % P Q     . . )   K K + [ l : 5 < 5 6 6 f 7 m n q h i q h s   ",
", [ } [ } 4 } 4 } | g 2 [ [ g 2 1 2 J R S S T d O   G O ] I [ } < f b | 4 l e ^ 8 i A A A o o q ( @ ",
"~ } } | } } | 4 } [ [ g g g g g 2 2 2 U V W N .   ; ] b l [ | } l e 5 } } < e 7 8 i o o A o p n 9 O ",
"  } } } 4 l 4 } [ g g g [ [ [ [ g g 2 X Y Z ` K   * 2 | 4 4 l 4 } 4 4 4 4 < 5 f ^ j i n o p p p 8 O ",
"  [ [ [ } 4 4 < } | [ [ | [ | | g g  ...+.@.1 % K = 2 [ } b 5 < } } } } 4 l < 5 _ 0 s q n n n o m F ",
"  g [ [ [ [ | 4 | | } | } } < b [ g #.$.[ 2 g O K $ 1 2 [ 4 < < } | [ } } 4 l l e 7 j i q q q p s w ",
"  g [ | | } | [ [ g [ [ [ } l b } g [ } 4 } ! ~   v I 1 2 | } | [ [ | } | } } } < _ 9 h q i i q n   ",
", g [ } } 4 4 | [ g g g g | } 4 4 [ } } < e d u     + 1 2 [ | | g [ | 4 } [ [ [ [ < 7 m s m m i n   ",
"%.! | 4 l l } | [ } } | g g g g } } < l | } ~       - 3 1 g g g g g g g g g [ [ | } : ^ ^ a 7 9 s J ",
"- 2 } } l < } | | } 4 4 | g g 1 g | < } [ [ )       ' 1 2 2 g [ g 2 1 1 1 2 g g [ } 4 5 5 b e a 9 > ",
"  e l } } 4 | [ | | } < } | [ } [ [ [ [ [ * K     u { > 2 g [ | [ g 1 3 2 2 g g | } < b < 4 < : ^   ",
"  b 4 } [ [ [ g [ [ 4 : < 4 } < 4 } } 4 3 & u u   K v F ] g [ | [ g 2 1 g g 2 g g } b e 6 e 5 : ^   ",
"  } | } 4 | | [ [ 2 [ l l g | } } } } l F ;   u { v   % ! g g [ g g 2 g g 2 2 g g [ 4 5 _ ^ / ( 9   ",
"  [ | [ } | | } } g g [ g g g [ | [ [ O z u   ~ ] ~ u G F g g g g g g g g 1 2 [ [ g [ 4 e 7 0 0 8   ",
"  | l < 4 [ | } | g g [ [ | [ [ | [ 2 F *     @ < # ) u * g g [ [ [ [ g g 2 g g g [ g g } 5 e 6 a   ",
", 3 5 e < } [ | | g 2 g | | | | | | ] F ~   u ] b 2 ~   $ g g [ | | | g g g g g g [ g g [ | [ l b   ",
", ! } l 4 [ g [ | } | [ [ | g | | | ! I v   ) 2 } | O v ' ] | [ [ [ [ g g g g g g [ g [ [ [ | 4 4   ",
", ! g | } [ [ g g | } | [ | | | 4 l g O K   * } } | ! ' ~ ! | [ g g g g g g g g g [ [ | [ [ } < b   ",
"- ! g l < l | [ g [ | g g } | [ } l I # u u w 4 4 [ 2 . v w | | | [ [ g [ [ g g [ 4 4 4 } | [ < :   ",
", 1 l 6 : l [ [ [ } | | | } | g [ 2 + .   K ] l l [ [ w K $ g | } } | | } | [ g [ 4 < b 4 4 } < 6   ",
", 3 l _ k l | | [ [ [ | [ < l [ g 3 @ -   ~ | l 4 [ [ >   K r } | | | | 4 } [ g [ | l < 4 4 l l 6   ",
", 1 4 l } } [ | [ g g [ [ [ | [ 2 g > K   ; 3 4 } [ | z K K + 5 4 } } | } | g 2 g | 4 l < l < 4 6   ",
"  } 4 < 4 } 4 } | | [ g [ [ [ g 2 2 = ; u %.3 l < l [ -       3 e b } | [ g g g [ | } b b 5 e f 7 - ",
", 2 4 l l b < 4 4 < 4 [ g [ g | [ g $ ) * ] 4 : _ 5 < g d + ! 7 k 6 < | [ g [ [ | } 5 f k 7 a a / > ",
"- 2 } 4 l : e } | < < | | | } b 5 } [ w w [ b _ 7 _ 5 l b 5 k ^ 7 k 6 5 < } } g 4 < k ( m m ( a a d ",
"%.1 } } } 4 l [ g [ [ [ 4 4 b f k : l < b b 5 k k _ e b b : _ a 7 a k 7 7 6 e : k 0 s i n q 8 / k # ",
"G 3 } } } } 4 [ [ | | | < 5 _ 0 ( a : : k ^ ^ ^ 7 6 l l < < e _ / ( ^ ^ ( a _ a 8 q q p n i m 9 / [ ",
"  [ [ | } 4 4 } } } 4 | 4 5 k / / k f k ^ 0 / / 7 5 } < e f a / 8 j 0 7 _ k / j i h s h h i h 8 0 # ",
"%.5 [ l b e < } l b e b 4 b < e 6 : f k 7 / / 0 0 f 5 e _ ^ 9 m m 9 ^ a k 7 m p p s ( 0 9 j j 9 / * ",
"# a 6 e _ 7 _ e : e f _ _ 6 e b b _ a 7 7 ( j m h m ( k : a 8 s m ( ^ k k ^ j p o h ( / 7 ^ / 0 / F ",
"F / _ 6 : _ a _ 4 @ 1 5 e 5 b < 6 a 7 _ : k h n p o n 0 a _ ^ ( ^ e 5 l b 6 ^ 9 m n s 9 k 6 a ^ / # ",
"          $ $ $ v u v % * * . = > @ @ d d >               > @ O + = * $ . d @ z z     G % # %.%.& G "};
