/* XPM */
static char * small6_xpm[] = {
"25 25 59 1",
" 	c #00FF08",
".	c #000000",
"+	c #000D00",
"@	c #00A703",
"#	c #00E405",
"$	c #00F907",
"%	c #00F606",
"&	c #00DA05",
"*	c #008602",
"=	c #002600",
"-	c #00D805",
";	c #00FF07",
">	c #00FE07",
",	c #00BE04",
"'	c #00F506",
")	c #00A203",
"!	c #004900",
"~	c #003500",
"{	c #008E02",
"]	c #00DF05",
"^	c #00FB07",
"/	c #007A01",
"(	c #00D705",
"_	c #00C504",
":	c #00AA03",
"<	c #009F02",
"[	c #00EC06",
"}	c #00FC07",
"|	c #00F006",
"1	c #004700",
"2	c #00D205",
"3	c #00CE04",
"4	c #00EB06",
"5	c #004000",
"6	c #00D305",
"7	c #00C604",
"8	c #006001",
"9	c #003B00",
"0	c #008C02",
"a	c #00EE06",
"b	c #00BB03",
"c	c #00CA04",
"d	c #00E305",
"e	c #008202",
"f	c #00E606",
"g	c #00B203",
"h	c #00C804",
"i	c #003200",
"j	c #007901",
"k	c #00E505",
"l	c #008B02",
"m	c #00B703",
"n	c #007701",
"o	c #00E706",
"p	c #003800",
"q	c #006D01",
"r	c #00D505",
"s	c #00FD07",
"t	c #00BF04",
"                         ",
" ....................... ",
" ....................... ",
" ....................... ",
" ....................... ",
" ........+@#$%&*........ ",
" .......=-;;;;;>........ ",
" .......,;')!~{]........ ",
" ......!^>/............. ",
" ......);(.............. ",
" ......_;:<[}|_1........ ",
" ......2;3;;;;;45....... ",
" ......6;;7890a;b....... ",
" ......c;d....e;f....... ",
" ......g;h....i;|....... ",
" ......j;d....e;k....... ",
" .......f;789la;m....... ",
" .......n$;;;;;op....... ",
" ........qr%sat9........ ",
" ....................... ",
" ....................... ",
" ....................... ",
" ....................... ",
" ....................... ",
"                         "};
