/* XPM */
static char * small9_xpm[] = {
"25 25 62 1",
" 	c #00FF08",
".	c #000000",
"+	c #002A00",
"@	c #00B803",
"#	c #00EC06",
"$	c #00FC07",
"%	c #00F707",
"&	c #00D905",
"*	c #007801",
"=	c #002200",
"-	c #00DE05",
";	c #00FF07",
">	c #008602",
",	c #00A703",
"'	c #00F306",
")	c #009402",
"!	c #004000",
"~	c #005A01",
"{	c #00BD04",
"]	c #00EE06",
"^	c #001C00",
"/	c #00D805",
"(	c #009702",
"_	c #008D02",
":	c #00E505",
"<	c #006201",
"[	c #00BB03",
"}	c #00BE04",
"|	c #00DA05",
"1	c #00D505",
"2	c #00AD03",
"3	c #00F206",
"4	c #003D00",
"5	c #00DD05",
"6	c #002E00",
"7	c #00E606",
"8	c #00D004",
"9	c #00DC05",
"0	c #003B00",
"a	c #00C004",
"b	c #00EF06",
"c	c #00F006",
"d	c #009B02",
"e	c #00D104",
"f	c #00CC04",
"g	c #00B003",
"h	c #006901",
"i	c #00FB07",
"j	c #00FE07",
"k	c #005F01",
"l	c #004D01",
"m	c #009902",
"n	c #00F106",
"o	c #00C804",
"p	c #00F506",
"q	c #00DF05",
"r	c #003500",
"s	c #007E01",
"t	c #00D705",
"u	c #00FA07",
"v	c #00E706",
"w	c #00AE03",
"                         ",
" ....................... ",
" ....................... ",
" ....................... ",
" ....................... ",
" .......+@#$%&*......... ",
" ......=-;;;;;$>........ ",
" ......,;')!~{;]^....... ",
" ....../;(..../;_....... ",
" ......:;<....[;}....... ",
" ......|;(..../;1....... ",
" ......2;3)4~{;;5....... ",
" ......67;;;;;8;9....... ",
" .......0ab$c2d;e....... ",
" .............f;g....... ",
" ............hijk....... ",
" ......./)l!mn;o........ ",
" .......p;;;;;qr........ ",
" .......stpuvw=......... ",
" ....................... ",
" ....................... ",
" ....................... ",
" ....................... ",
" ....................... ",
"                         "};
