/* XPM */
static char * small2_xpm[] = {
"25 25 50 1",
" 	c #00FF08",
".	c #000000",
"+	c #003B00",
"@	c #00A102",
"#	c #00DA05",
"$	c #00F106",
"%	c #00FC07",
"&	c #00F406",
"*	c #00D505",
"=	c #007901",
"-	c #00BE04",
";	c #00FF07",
">	c #00FD07",
",	c #009102",
"'	c #00B603",
")	c #00D104",
"!	c #009402",
"~	c #006501",
"{	c #003500",
"]	c #007801",
"^	c #00DE05",
"/	c #00EF06",
"(	c #003800",
"_	c #00F707",
":	c #004D01",
"<	c #00E906",
"[	c #003200",
"}	c #006D01",
"|	c #00FE07",
"1	c #00D705",
"2	c #00E806",
"3	c #006301",
"4	c #00DF05",
"5	c #00FB07",
"6	c #008702",
"7	c #004900",
"8	c #00E405",
"9	c #00FA07",
"0	c #008802",
"a	c #005801",
"b	c #00EA06",
"c	c #008602",
"d	c #006801",
"e	c #00F006",
"f	c #00F907",
"g	c #008302",
"h	c #007301",
"i	c #00F807",
"j	c #007F01",
"k	c #00CD04",
"                         ",
" ....................... ",
" ....................... ",
" ....................... ",
" ....................... ",
" ......+@#$%&*=......... ",
" ......-;;;;;;>,........ ",
" ......')!~{]^;/........ ",
" ............(_;:....... ",
" .............<>[....... ",
" ............}|1........ ",
" ...........+2_3........ ",
" ..........+456......... ",
" .........7890.......... ",
" ........ab9c........... ",
" .......defg............ ",
" ......h&ij............. ",
" ......k;;;;;;;;]....... ",
" ......k;;;;;;;;]....... ",
" ....................... ",
" ....................... ",
" ....................... ",
" ....................... ",
" ....................... ",
"                         "};
