/* XPM */
static char * small1_xpm[] = {
"25 25 15 1",
" 	c #00FF08",
".	c #000000",
"+	c #006201",
"@	c #00AE03",
"#	c #00DD05",
"$	c #00FC07",
"%	c #00FF07",
"&	c #009102",
"*	c #00F506",
"=	c #00E505",
"-	c #00C804",
";	c #009002",
">	c #00CC04",
",	c #00D205",
"'	c #009B02",
"                         ",
" ....................... ",
" ....................... ",
" ....................... ",
" ....................... ",
" .......+@#$%&.......... ",
" .......*%%%%&.......... ",
" .......=-;>%&.......... ",
" ..........-%&.......... ",
" ..........-%&.......... ",
" ..........-%&.......... ",
" ..........-%&.......... ",
" ..........-%&.......... ",
" ..........-%&.......... ",
" ..........-%&.......... ",
" ..........-%&.......... ",
" ..........-%&.......... ",
" .......,%%%%%%%'....... ",
" .......,%%%%%%%'....... ",
" ....................... ",
" ....................... ",
" ....................... ",
" ....................... ",
" ....................... ",
"                         "};
