/* XPM */
static char * small5_xpm[] = {
"25 25 40 1",
" 	c #00FF08",
".	c #000000",
"+	c #00FA07",
"@	c #00FF07",
"#	c #00AB03",
"$	c #00E305",
"%	c #00F606",
"&	c #00EF06",
"*	c #00FD07",
"=	c #00F406",
"-	c #00D405",
";	c #007901",
">	c #009A02",
",	c #00D905",
"'	c #009402",
")	c #005601",
"!	c #004000",
"~	c #007E01",
"{	c #00D605",
"]	c #00F707",
"^	c #000D00",
"/	c #00E005",
"(	c #009602",
"_	c #00BD04",
":	c #00AA03",
"<	c #00B603",
"[	c #00C404",
"}	c #007F01",
"|	c #004D01",
"1	c #003D00",
"2	c #007D01",
"3	c #00D505",
"4	c #00F807",
"5	c #004200",
"6	c #00C104",
"7	c #009D02",
"8	c #00AD03",
"9	c #00E205",
"0	c #00F106",
"a	c #00D104",
"                         ",
" ....................... ",
" ....................... ",
" ....................... ",
" ....................... ",
" .......+@@@@@@#........ ",
" .......+@@@@@@#........ ",
" .......+$.............. ",
" .......+$.............. ",
" .......+$.............. ",
" .......+%&*=-;......... ",
" .......+@@@@@*>........ ",
" .......,')!~{@]!....... ",
" ............^/@(....... ",
" ............._@:....... ",
" ............^/@(....... ",
" ......<[}|123@45....... ",
" ......6@@@@@@*7........ ",
" ......589%*0a;......... ",
" ....................... ",
" ....................... ",
" ....................... ",
" ....................... ",
" ....................... ",
"                         "};
