/* XPM */
static char * small3_xpm[] = {
"25 25 54 1",
" 	c #00FF08",
".	c #000000",
"+	c #008602",
"@	c #00CD04",
"#	c #00ED06",
"$	c #00FB07",
"%	c #00F707",
"&	c #00DE05",
"*	c #009402",
"=	c #006901",
"-	c #00FF07",
";	c #00B203",
">	c #006601",
",	c #00DD05",
"'	c #00A002",
")	c #006A01",
"!	c #003200",
"~	c #006301",
"{	c #00C204",
"]	c #00FC07",
"^	c #004200",
"/	c #00E105",
"(	c #008002",
"_	c #006501",
":	c #001600",
"<	c #005C01",
"[	c #00B903",
"}	c #00DC05",
"|	c #006E01",
"1	c #00C904",
"2	c #003D00",
"3	c #00E806",
"4	c #008302",
"5	c #001C00",
"6	c #005A01",
"7	c #00A803",
"8	c #00F907",
"9	c #00AE03",
"0	c #00B503",
"a	c #00B303",
"b	c #00BE04",
"c	c #00B803",
"d	c #007E01",
"e	c #004D01",
"f	c #00AF03",
"g	c #009002",
"h	c #00C404",
"i	c #00D205",
"j	c #004500",
"k	c #00AD03",
"l	c #00F506",
"m	c #00FD07",
"n	c #009F02",
"o	c #000D00",
"                         ",
" ....................... ",
" ....................... ",
" ....................... ",
" ....................... ",
" .......+@#$%&*......... ",
" ......=-------;........ ",
" ......>,')!~{-]^....... ",
" ............./-(....... ",
" .............&-_....... ",
" ..........:<[-}........ ",
" ........|---$12........ ",
" ........|----34........ ",
" ..........5678$_....... ",
" .............9-0....... ",
" .............a-b....... ",
" ......c{de!_f$-g....... ",
" ......h-------i........ ",
" ......jk/lml}no........ ",
" ....................... ",
" ....................... ",
" ....................... ",
" ....................... ",
" ....................... ",
"                         "};
