/* XPM */
static char * small0_xpm[] = {
"25 25 40 1",
" 	c #00FF08",
".	c #000000",
"+	c #008502",
"@	c #00DE05",
"#	c #00F907",
"$	c #00FA07",
"%	c #00E205",
"&	c #008F02",
"*	c #009002",
"=	c #00FE07",
"-	c #00FF07",
";	c #009C02",
">	c #002A00",
",	c #00F106",
"'	c #00C404",
")	c #004F01",
"!	c #004700",
"~	c #00B903",
"{	c #00F606",
"]	c #003D00",
"^	c #009302",
"/	c #00D705",
"(	c #00A102",
"_	c #00C104",
":	c #00AA03",
"<	c #009902",
"[	c #00CC04",
"}	c #00D605",
"|	c #008302",
"1	c #006801",
"2	c #00E005",
"3	c #006E01",
"4	c #004900",
"5	c #00E806",
"6	c #004B00",
"7	c #00A203",
"8	c #004500",
"9	c #009102",
"0	c #009D02",
"a	c #00DF05",
"                         ",
" ....................... ",
" ....................... ",
" ....................... ",
" ....................... ",
" ........+@#$%&......... ",
" .......*=-----;........ ",
" ......>,-')!~-{]....... ",
" ......^-%..../-(....... ",
" ......_-:....<-[....... ",
" ......}-|....1-2....... ",
" ......@-3....4-5....... ",
" ......@-3....6-5....... ",
" ......}-|....1-2....... ",
" ......_-:....<-[....... ",
" ......^-%..../-7....... ",
" ......>,-')8~-{]....... ",
" .......9=-----0........ ",
" ........+a#$%&......... ",
" ....................... ",
" ....................... ",
" ....................... ",
" ....................... ",
" ....................... ",
"                         "};
