/* XPM */
static char * small7_xpm[] = {
"25 25 35 1",
" 	c #00FF08",
".	c #000000",
"+	c #00B103",
"@	c #00FF07",
"#	c #00B503",
"$	c #007D01",
"%	c #003B00",
"&	c #00F907",
"*	c #00EB06",
"=	c #00A703",
"-	c #00B203",
";	c #00E505",
">	c #00FD07",
",	c #005101",
"'	c #007301",
")	c #00D705",
"!	c #00C704",
"~	c #009402",
"{	c #003200",
"]	c #00F707",
"^	c #00F406",
"/	c #001C00",
"(	c #00A102",
"_	c #00C204",
":	c #00E005",
"<	c #006D01",
"[	c #006A01",
"}	c #00E405",
"|	c #00A803",
"1	c #002200",
"2	c #00F506",
"3	c #00FA07",
"4	c #004000",
"5	c #009A02",
"6	c #00D004",
"                         ",
" ....................... ",
" ....................... ",
" ....................... ",
" ....................... ",
" ......+@@@@@@@@#....... ",
" ......+@@@@@@@@$....... ",
" ............%&*........ ",
" ............=@-........ ",
" ............;>,........ ",
" ...........'@)......... ",
" ...........!@~......... ",
" ..........{]^/......... ",
" ..........(@_.......... ",
" ..........:@<.......... ",
" .........[@}........... ",
" ........._@|........... ",
" ........1234........... ",
" ........5@6............ ",
" ....................... ",
" ....................... ",
" ....................... ",
" ....................... ",
" ....................... ",
"                         "};
