/* XPM */
static char * small8_xpm[] = {
"25 25 62 1",
" 	c #00FF08",
".	c #000000",
"+	c #001600",
"@	c #00A403",
"#	c #00E505",
"$	c #00F606",
"%	c #00F807",
"&	c #00E706",
"*	c #00AD03",
"=	c #002600",
"-	c #00D205",
";	c #00FF07",
">	c #00DC05",
",	c #000D00",
"'	c #007901",
")	c #00FC07",
"!	c #004900",
"~	c #004200",
"{	c #009B02",
"]	c #00F907",
"^	c #008E02",
"/	c #00A203",
"(	c #00CA04",
"_	c #00BC04",
":	c #00B103",
"<	c #008D02",
"[	c #009E02",
"}	c #001C00",
"|	c #00EB06",
"1	c #004700",
"2	c #00F106",
"3	c #003800",
"4	c #005501",
"5	c #00FE07",
"6	c #00D805",
"7	c #006301",
"8	c #009202",
"9	c #00EC06",
"0	c #00EF06",
"a	c #007F01",
"b	c #00F006",
"c	c #004000",
"d	c #008A02",
"e	c #00EA06",
"f	c #00CB04",
"g	c #009402",
"h	c #007C01",
"i	c #00D605",
"j	c #007E01",
"k	c #00E205",
"l	c #00B803",
"m	c #004500",
"n	c #003D00",
"o	c #008B02",
"p	c #00C704",
"q	c #00F406",
"r	c #005C01",
"s	c #004D01",
"t	c #00C404",
"u	c #00ED06",
"v	c #00C904",
"w	c #005801",
"                         ",
" ....................... ",
" ....................... ",
" ....................... ",
" ....................... ",
" .......+@#$%&*=........ ",
" .......-;;;;;;>,....... ",
" ......';)@!~{];^....... ",
" ....../;(...._;:....... ",
" ......<;(...._;[....... ",
" ......}|)@1~{]23....... ",
" .......4-5;;;67........ ",
" .......89;;;;0[........ ",
" ......a5b81cde;8....... ",
" ......f;g....h;6....... ",
" ......i;g....j;k....... ",
" ......l;b8mno|;p....... ",
" ......!0;;;;;;qr....... ",
" .......stu))0vw........ ",
" ....................... ",
" ....................... ",
" ....................... ",
" ....................... ",
" ....................... ",
"                         "};
