/* XPM */
static char * small4_xpm[] = {
"25 25 29 1",
" 	c #00FF08",
".	c #000000",
"+	c #00D004",
"@	c #00FF07",
"#	c #003D00",
"$	c #008C02",
"%	c #00FB07",
"&	c #003200",
"*	c #00EE06",
"=	c #00E906",
"-	c #00C004",
";	c #00F506",
">	c #004B00",
",	c #007501",
"'	c #00FD07",
")	c #009E02",
"!	c #001600",
"~	c #00E505",
"{	c #00DA05",
"]	c #00AE03",
"^	c #00F907",
"/	c #005D01",
"(	c #005C01",
"_	c #00AD03",
":	c #00D805",
"<	c #00E305",
"[	c #000D00",
"}	c #002200",
"|	c #004F01",
"                         ",
" ....................... ",
" ....................... ",
" ....................... ",
" ....................... ",
" ...........+@@#........ ",
" ..........$@%@#........ ",
" .........&*+=@#........ ",
" .........-;>=@#........ ",
" ........,').=@#........ ",
" .......!~{..=@#........ ",
" .......]^/..=@#........ ",
" ......(^_...=@#........ ",
" ......:<[...=@#........ ",
" .....>@@@@@@@@@@}...... ",
" .....|@@@@@@@@@@}...... ",
" ............=@#........ ",
" ............=@#........ ",
" ............=@#........ ",
" ....................... ",
" ....................... ",
" ....................... ",
" ....................... ",
" ....................... ",
"                         "};
