/* XPM */
static char * test_xpm[] = {
"50 50 68 1",
" 	c #000000",
".	c #121212",
"+	c #171717",
"@	c #181818",
"#	c #141414",
"$	c #101010",
"%	c #0F0F0F",
"&	c #0E0E0E",
"*	c #111111",
"=	c #131313",
"-	c #0D0D0D",
";	c #040404",
">	c #161616",
",	c #0C0C0C",
"'	c #0B0B0B",
")	c #050505",
"!	c #212121",
"~	c #070707",
"{	c #090909",
"]	c #202020",
"^	c #363636",
"/	c #373737",
"(	c #393939",
"_	c #323232",
":	c #2F2F2F",
"<	c #2B2B2B",
"[	c #262626",
"}	c #282828",
"|	c #272727",
"1	c #232323",
"2	c #242424",
"3	c #222222",
"4	c #292929",
"5	c #2D2D2D",
"6	c #303030",
"7	c #353535",
"8	c #3B3B3B",
"9	c #3A3A3A",
"0	c #383838",
"a	c #343434",
"b	c #2C2C2C",
"c	c #464646",
"d	c #151515",
"e	c #2E2E2E",
"f	c #313131",
"g	c #252525",
"h	c #3F3F3F",
"i	c #404040",
"j	c #3C3C3C",
"k	c #333333",
"l	c #2A2A2A",
"m	c #3D3D3D",
"n	c #424242",
"o	c #444444",
"p	c #434343",
"q	c #414141",
"r	c #3E3E3E",
"s	c #454545",
"t	c #1C1C1C",
"u	c #1D1D1D",
"v	c #191919",
"w	c #1B1B1B",
"x	c #0A0A0A",
"y	c #1E1E1E",
"z	c #060606",
"A	c #030303",
"B	c #010101",
"C	c #1A1A1A",
" .+@ @#$%&%*.=*%----&&&  ;#> +,' &  )!&~~{*.]     ",
",]^/(_::<[[}|}}[111!123}45678([289076a4!3[5_b:cccd",
" _66e5e6f:5f:<||[[|[g[[[|4}5/hhiij/k6_k5l<ek0mnoc*",
" e5l|||lbbe775l}|[ggggg[[[[4:0iopqja5<bb<<<<6k0hp ",
" 44}|[[[|[l5:ee5l|[g[gg}4}|}460hnpq964|l<55b556/0 ",
" |l|}}[gg[[[}[4bl}|}}gg|<<4}|<f/rnph05|l<5eee:f^r ",
" 1||[l4|g22gggg2g[[}l[gg4bl|g}4:/rnnh(:b<5e6:^jhi ",
"*1g2[|}|[g2gggg[gggg22g2}4l}[}45_9iihh9ae56ka(nop*",
"-[[gg[gg[gggg2g|ggg212[|4b:e<b6aa/jr88mh(ak/98iost",
"&}gggg22g[[[[gg[[gg222[}<6^(a6k(j((999miirjjiqqsct",
",[g[ggg22g[}|g2|[gggg2g[l:^m87fa0(((8jrhinposscccu",
",gg[ggg[g2g}}g2[g12ggggg|<k9mjae_/80^0riiiqscccccu",
",g[[[[g|[222121g2122gggg[4ek0j9_6a(0ak9rrrhqosccc.",
",gg[[ggg[gg13112gg2ggggg|44bf0j8^7/07ff08mmmqpocc!",
",2ggg|[ggg2331112gggg[ggle:5<_(jjj9(/a6fk/8hqposc.",
"'[|[g}|gg[g21311ggggggg|<f/7ll_0jm90//7f56^8hnpos ",
"'[4}g[[gg|[g11122gggg|gg}eaa5|<f/(7aaakkkfk^9hqnp ",
"'|44}|[[[[||gg2gg[g2gggg[[<b4}}<:kf:f_6_a/880jiii ",
",|}4l4}4|[[[[gggg[g21112g|}4}}}}l:5<566f7mnqhiqhr ",
",[}[}4}4}|g2[[g2122g21312[45<|}}<fb|4le^8isssooq(@",
"~}}|}}|4}[[ggggg222131211[}bl[|}le5}}<e78ioosopn9v",
" }}}4l4}[ggg[[[[gg2333g2gg[|44l4}4444<5f^jinoppp8v",
" [[[}44<}|[[|[||gg2131g[[[[[}b5<}}}}4l<5_0rqnnnomw",
" g[[[[|4||}|}}<b[gg2[2g|4}g2[4<<}|[}}4lle7jiqqqprt",
" g[||}|[[g[[[}lb}g[}4}[|44212|}|[[|}|}}}<_9hqiiqn ",
",g[}}44|[gggg|}44[}}<el4}|112[||g[|4}[[[[<7mrmmin ",
"x!|4ll}|[}}|gggg}}<l|}4l}g131ggggggggg[[|}:^^a79ry",
"-2}}l<}||}44|gg1g|<}[}44|[2122g[g21112gg[}455bea9>",
" el}}4|[||}<}|[}[[[[[|44|[g22g[|[g1322gg|}<b<4<:^ ",
" b4}[[[g[[4:<4}<4}}4}}}}}|[[[g[|[g21gg2gg}be6e5:^ ",
" }|}4||[[2[llg|}}}}l<}}}|[g[|gg[gg2gg22gg[45_^/(9 ",
" [|[}||}}gg[ggg[|[[[|}l<|[222gggggggg12[[g[4e7008 ",
" |l<4[|}|gg[[|[[|[[g[}5e<4|g1gg[[[[gg2ggg[gg}5e6a ",
",35e<}[||g2g||||||[[[|55bl4|2gg[|||gggggg[gg[|[lb ",
",!}l4[g[|}|[[|g||||gg[}l}|}[g[|[[[[gggggg[g[[[|44 ",
",!g|}[[gg|}|[|||4l<[g[|}}||[|||[ggggggggg[[|[[}<b ",
"-!gl<l|[g[|gg}|[}lb|g[}44[[|4}|||[[g[[gg[444}|[<: ",
",1l6:l[[[}|||}|g[[[g[g}ll[[}<4||}}||}|[g[4<b44}<6 ",
",3l_kl||[[[|[<l[g22|}|4l4[[4b5<}||||4}[g[|l<44ll6 ",
",14l}}[|[gg[[[|[2gg}}}}4}[}}<e654}}|}|g2g|4l<l<46 ",
" }4<4}4}||[g[[[g222||}}l<l<ll5f_eb}|[ggg[|}bb5ef7-",
",24llb<44<4[g[g|[gg[[[4:_5<llbf7k6<|[g[[|}5fk7aa/>",
"-2}4l:e}|<<|||}b5}[|[[b_7_5lb5k^7k65<}}g4<k(mm(aad",
"x1}}}4l[g[[[44bfk:l<bb5kk_ebb:_a7ak776e:k0rinq8/k#",
"z3}}}}4[[|||<5_0(a::k^^^76ll<<e_/(^^(a_a8qqpnim9/[",
" [[|}44}}}4|45k//kfk^0//75}<efa/8j07_k/jihrhhih80#",
"x5[lbe<}lbeb4b<e6:fk7//00f5e_^9mm9^ak7mppr(09jj9/*",
"#a6e_7_e:ef__6ebb_a77(jmhm(k:a8rm(^kk^jpoh(/7^/0/w",
"w/_6:_a_4@15e5b<6a7_:khnpon0a_^(^e5lb6^9mnr9k6a^/#",
"     $$$ABA%**.=>@@dd>       >@v+=*$.d@CC  z%#xx&z"};
